<?xml version="1.0" encoding="utf-8"?>
<!-- Generator: Adobe Illustrator 16.0.0, SVG Export Plug-In . SVG Version: 6.00 Build 0)  -->
<!DOCTYPE svg PUBLIC "-//W3C//DTD SVG 1.1//EN" "http://www.w3.org/Graphics/SVG/1.1/DTD/svg11.dtd">
<svg version="1.1" id="Шар_1" xmlns="http://www.w3.org/2000/svg" xmlns:xlink="http://www.w3.org/1999/xlink" x="0px" y="0px"
	 width="28px" height="28.001px" viewBox="0 0 28 28.001" enable-background="new 0 0 28 28.001" xml:space="preserve">
<g>
	<g>
		<path d="M9.812,0.881L0.876,9.816c-1.168,1.167-1.168,3.066,0,4.233l13.075,13.075c1.168,1.168,3.066,1.168,4.234,0l8.939-8.938
			c1.168-1.168,1.168-3.066,0-4.234l-13.08-13.08C12.877-0.294,10.976-0.291,9.812,0.881z M1.843,10.784l8.936-8.936
			c0.634-0.634,1.666-0.634,2.3,0l13.076,13.076c0.635,0.635,0.635,1.666,0,2.299l-8.936,8.936c-0.635,0.635-1.666,0.635-2.299,0
			L1.839,13.079c-0.634-0.634-0.634-1.666,0-2.299L1.843,10.784z"/>
		<path d="M11.85,11.628l-0.438-8.029c-0.018-0.376,0.269-0.699,0.648-0.72c0.376-0.018,0.698,0.269,0.72,0.648l0.599,11.078
			l2.156,0.121c0.008,0,0.014,0,0.018-0.003c0.051,0,0.098,0.003,0.146,0.011l8.783,0.486c0.379,0.021,0.666,0.344,0.645,0.725
			c-0.021,0.379-0.344,0.666-0.725,0.645l-8.111-0.455l0.271,8.258c0.012,0.377-0.283,0.691-0.662,0.707
			c-0.197,0.002-0.379-0.072-0.508-0.201c-0.119-0.119-0.193-0.279-0.201-0.459l-0.279-8.381l-2.224-0.125
			c-0.176-0.01-0.33-0.086-0.444-0.201c-0.114-0.113-0.189-0.275-0.197-0.447l-0.125-2.288l-8.395-0.215
			c-0.184-0.003-0.348-0.082-0.466-0.2c-0.129-0.129-0.204-0.305-0.201-0.501c0.011-0.376,0.326-0.677,0.702-0.667L11.85,11.628z"/>
	</g>
</g>
</svg>
