<?xml version="1.0" encoding="utf-8"?>
<!-- Generator: Adobe Illustrator 16.0.0, SVG Export Plug-In . SVG Version: 6.00 Build 0)  -->
<!DOCTYPE svg PUBLIC "-//W3C//DTD SVG 1.1//EN" "http://www.w3.org/Graphics/SVG/1.1/DTD/svg11.dtd">
<svg version="1.1" id="Шар_1" xmlns="http://www.w3.org/2000/svg" xmlns:xlink="http://www.w3.org/1999/xlink" x="0px" y="0px"
	 width="12.001px" height="10.931px" viewBox="0 0 12.001 10.931" enable-background="new 0 0 12.001 10.931" xml:space="preserve">
<path fill="#3C3C3B" d="M0.171,5.037l4.882-4.882c0.207-0.208,0.637-0.207,0.844,0c0.111,0.11,0.172,0.26,0.172,0.422
	S6.009,0.89,5.897,1L2.043,4.855h9.352c0.334,0,0.605,0.271,0.605,0.604s-0.271,0.604-0.605,0.604H2.043l3.854,3.854
	c0.23,0.229,0.23,0.617,0,0.846c-0.223,0.224-0.621,0.224-0.844,0L0.171,5.882C-0.057,5.653-0.057,5.266,0.171,5.037z"/>
</svg>
