<?xml version="1.0" encoding="utf-8"?>
<!-- Generator: Adobe Illustrator 16.0.0, SVG Export Plug-In . SVG Version: 6.00 Build 0)  -->
<!DOCTYPE svg PUBLIC "-//W3C//DTD SVG 1.1//EN" "http://www.w3.org/Graphics/SVG/1.1/DTD/svg11.dtd">
<svg version="1.1" id="Шар_1" xmlns="http://www.w3.org/2000/svg" xmlns:xlink="http://www.w3.org/1999/xlink" x="0px" y="0px"
	 width="89px" height="122.896px" viewBox="0 0 89 122.896" enable-background="new 0 0 89 122.896" xml:space="preserve">
<g>
	<g>
		<g>
			<path d="M73.543,122.896H53.918V94.97H0V77.554l0.032-0.042L60.144,0h13.399v77.101H89V94.97H73.543V122.896z M54.225,122.589
				h19.013V94.664h15.456V77.408H73.237V0.306H60.293L0.307,77.658v17.006h53.918V122.589z M56.333,77.408H19.516l0.188-0.246
				l36.63-47.955V77.408z M20.134,77.101h35.893v-46.99L20.134,77.101z"/>
		</g>
	</g>
	<g>
		<path fill="#CC9107" d="M20.53,94.818l22.217-12.666c0.505-0.149,0.816-0.691,0.692-1.203c-0.127-0.512-0.639-0.807-1.141-0.657
			L16.814,94.818H20.53z"/>
		<path fill="#CC9107" d="M43.109,85.948v-0.002c-0.124-0.509-0.636-0.806-1.139-0.655l-16.715,9.527h3.711l13.452-7.668
			C42.922,87,43.234,86.46,43.109,85.948z"/>
		<path fill="#CC9107" d="M42.78,90.945c-0.124-0.512-0.637-0.806-1.14-0.656l-7.944,4.529h3.713l4.681-2.669
			C42.594,91.998,42.904,91.457,42.78,90.945z"/>
		<path fill="#CC9107" d="M56.741,10.764h0.002c0.122,0.513,0.636,0.806,1.143,0.658l16.766-9.557V0.153h-0.714L57.432,9.562
			C56.928,9.712,56.617,10.252,56.741,10.764z"/>
		<path fill="#CC9107" d="M56.412,15.762v0.001c0.128,0.511,0.64,0.806,1.144,0.654l17.096-9.744V4.558L57.103,14.56
			C56.6,14.711,56.289,15.25,56.412,15.762z"/>
		<path fill="#CC9107" d="M57.227,21.418l17.425-9.932V9.37L56.774,19.56c-0.504,0.149-0.812,0.689-0.688,1.2v0.001
			C56.209,21.272,56.724,21.57,57.227,21.418z"/>
		<path fill="#CC9107" d="M56.448,24.557c-0.506,0.149-0.815,0.691-0.69,1.202c0.124,0.513,0.637,0.806,1.141,0.657l17.753-10.12
			v-2.116L56.448,24.557z"/>
	</g>
</g>
</svg>
