<?xml version="1.0" encoding="utf-8"?>
<!-- Generator: Adobe Illustrator 16.0.0, SVG Export Plug-In . SVG Version: 6.00 Build 0)  -->
<!DOCTYPE svg PUBLIC "-//W3C//DTD SVG 1.1//EN" "http://www.w3.org/Graphics/SVG/1.1/DTD/svg11.dtd">
<svg version="1.1" id="Шар_1" xmlns="http://www.w3.org/2000/svg" xmlns:xlink="http://www.w3.org/1999/xlink" x="0px" y="0px"
	 width="15.001px" height="23.187px" viewBox="0 0 15.001 23.187" enable-background="new 0 0 15.001 23.187" xml:space="preserve">
<g>
	<path d="M14.95,13.243c-0.09-0.195-0.285-0.321-0.5-0.321H9.899V0H0v5.5c0,0.304,0.246,0.55,0.551,0.55
		c0.304,0,0.55-0.246,0.55-0.55V1.1H8.8v11.821H4.186c-0.216,0-0.41,0.126-0.5,0.321s-0.058,0.425,0.083,0.589l5.133,5.943
		c0.104,0.121,0.257,0.189,0.417,0.189c0.159,0,0.311-0.068,0.416-0.189l5.133-5.943C15.008,13.667,15.04,13.438,14.95,13.243z
		 M9.442,14.021h3.807l-3.931,4.553l-3.932-4.553h3.869H9.442z"/>
	<rect x="4.949" y="22.086" width="8.8" height="1.101"/>
</g>
</svg>
