<?xml version="1.0" encoding="utf-8"?>
<!-- Generator: Adobe Illustrator 16.0.0, SVG Export Plug-In . SVG Version: 6.00 Build 0)  -->
<!DOCTYPE svg PUBLIC "-//W3C//DTD SVG 1.1//EN" "http://www.w3.org/Graphics/SVG/1.1/DTD/svg11.dtd">
<svg version="1.1" id="Шар_1" xmlns="http://www.w3.org/2000/svg" xmlns:xlink="http://www.w3.org/1999/xlink" x="0px" y="0px"
	 width="28px" height="21.439px" viewBox="0 0 28 21.439" enable-background="new 0 0 28 21.439" xml:space="preserve">
<g>
	<path fill="#252525" d="M5.184,21.439c-3.357,0-4.939-2.765-5.039-5.138C-0.346,13.141-0.247,4.941,11.606,0l0.79,0.889
		c0,0-4.246,2.964-4.939,9.189c1.682,0.495,3.161,2.173,3.655,5.037C11.112,15.116,10.917,21.439,5.184,21.439z"/>
	<path fill="#252525" d="M20.789,21.439c-3.361,0-4.94-2.765-5.04-5.138C15.254,13.141,15.354,4.941,27.21,0L28,0.889
		c0,0-4.25,2.964-4.94,9.189c1.679,0.495,3.162,2.173,3.656,5.037C26.716,15.116,26.517,21.439,20.789,21.439z"/>
</g>
</svg>
