<?xml version="1.0" encoding="utf-8"?>
<!-- Generator: Adobe Illustrator 16.0.0, SVG Export Plug-In . SVG Version: 6.00 Build 0)  -->
<!DOCTYPE svg PUBLIC "-//W3C//DTD SVG 1.1//EN" "http://www.w3.org/Graphics/SVG/1.1/DTD/svg11.dtd">
<svg version="1.1" id="Шар_1" xmlns="http://www.w3.org/2000/svg" xmlns:xlink="http://www.w3.org/1999/xlink" x="0px" y="0px"
	 width="27px" height="27.04px" viewBox="0 0 27 27.04" enable-background="new 0 0 27 27.04" xml:space="preserve">
<g>
	<g>
		<path d="M21.351,16.75c-0.554-0.576-1.222-0.885-1.93-0.885c-0.701,0-1.375,0.303-1.951,0.879l-1.804,1.797
			c-0.148-0.08-0.297-0.154-0.439-0.229c-0.205-0.102-0.399-0.199-0.564-0.302c-1.689-1.073-3.225-2.472-4.697-4.28
			C9.252,12.83,8.772,12.07,8.424,11.3c0.469-0.428,0.902-0.873,1.324-1.301c0.16-0.16,0.319-0.326,0.479-0.485
			c1.198-1.198,1.198-2.75,0-3.949L8.67,4.007C8.493,3.83,8.31,3.647,8.139,3.464C7.797,3.111,7.437,2.746,7.066,2.403
			C6.513,1.855,5.851,1.564,5.154,1.564s-1.37,0.291-1.94,0.839C3.208,2.409,3.208,2.409,3.202,2.415l-1.94,1.957
			c-0.73,0.731-1.146,1.621-1.238,2.654c-0.137,1.667,0.354,3.219,0.73,4.234c0.925,2.494,2.306,4.805,4.366,7.282
			c2.499,2.984,5.507,5.342,8.942,7.003c1.312,0.622,3.064,1.358,5.022,1.483c0.119,0.006,0.245,0.012,0.359,0.012
			c1.318,0,2.425-0.474,3.293-1.416c0.005-0.011,0.017-0.017,0.022-0.027c0.297-0.36,0.64-0.686,0.999-1.033
			c0.245-0.234,0.496-0.479,0.741-0.736c0.565-0.588,0.862-1.273,0.862-1.975c0-0.708-0.303-1.387-0.879-1.957L21.351,16.75z
			 M23.394,22.759C23.388,22.759,23.388,22.765,23.394,22.759c-0.223,0.239-0.451,0.456-0.696,0.696
			c-0.371,0.354-0.748,0.725-1.102,1.141c-0.576,0.617-1.256,0.908-2.146,0.908c-0.086,0-0.178,0-0.263-0.006
			c-1.695-0.108-3.271-0.771-4.451-1.336c-3.23-1.562-6.066-3.783-8.424-6.597c-1.946-2.345-3.247-4.514-4.108-6.842
			c-0.531-1.421-0.725-2.528-0.64-3.573C1.622,6.483,1.879,5.93,2.353,5.456L4.298,3.51c0.28-0.263,0.577-0.405,0.868-0.405
			c0.359,0,0.65,0.217,0.833,0.399C6.005,3.51,6.01,3.516,6.016,3.521c0.349,0.325,0.68,0.662,1.027,1.021
			C7.22,4.726,7.402,4.908,7.585,5.097l1.559,1.558c0.604,0.604,0.604,1.164,0,1.769C8.978,8.589,8.818,8.755,8.652,8.915
			C8.173,9.405,7.717,9.862,7.22,10.307c-0.011,0.011-0.022,0.017-0.028,0.028c-0.49,0.491-0.399,0.97-0.297,1.295
			c0.006,0.017,0.012,0.034,0.018,0.051c0.405,0.982,0.976,1.906,1.843,3.008l0.006,0.006c1.575,1.939,3.236,3.452,5.067,4.611
			c0.234,0.148,0.474,0.268,0.702,0.382c0.206,0.103,0.399,0.2,0.565,0.303c0.022,0.011,0.046,0.028,0.068,0.04
			c0.194,0.097,0.377,0.143,0.564,0.143c0.474,0,0.771-0.297,0.868-0.395l1.951-1.951c0.194-0.193,0.502-0.428,0.862-0.428
			c0.354,0,0.645,0.223,0.821,0.416c0.006,0.006,0.006,0.006,0.012,0.012l3.145,3.145C23.976,21.555,23.976,22.155,23.394,22.759z"
			/>
		<path d="M14.593,6.432c1.496,0.251,2.854,0.958,3.938,2.043c1.084,1.084,1.786,2.442,2.043,3.938
			c0.062,0.377,0.388,0.639,0.759,0.639c0.046,0,0.086-0.005,0.131-0.011c0.423-0.068,0.702-0.468,0.634-0.89
			c-0.308-1.809-1.164-3.458-2.471-4.765c-1.308-1.307-2.956-2.163-4.766-2.471c-0.422-0.068-0.815,0.211-0.89,0.627
			C13.897,5.958,14.171,6.364,14.593,6.432z"/>
		<path d="M26.988,11.928c-0.508-2.979-1.911-5.69-4.068-7.847c-2.157-2.157-4.868-3.561-7.848-4.069
			c-0.416-0.074-0.81,0.211-0.884,0.628c-0.068,0.422,0.211,0.816,0.633,0.89c2.66,0.451,5.085,1.712,7.014,3.635
			c1.93,1.929,3.185,4.354,3.636,7.014c0.062,0.377,0.388,0.639,0.759,0.639c0.046,0,0.086-0.005,0.131-0.011
			C26.777,12.744,27.062,12.344,26.988,11.928z"/>
	</g>
</g>
</svg>
