<?xml version="1.0" encoding="utf-8"?>
<!-- Generator: Adobe Illustrator 16.0.0, SVG Export Plug-In . SVG Version: 6.00 Build 0)  -->
<!DOCTYPE svg PUBLIC "-//W3C//DTD SVG 1.1//EN" "http://www.w3.org/Graphics/SVG/1.1/DTD/svg11.dtd">
<svg version="1.1" id="Шар_1" xmlns="http://www.w3.org/2000/svg" xmlns:xlink="http://www.w3.org/1999/xlink" x="0px" y="0px"
	 width="20.999px" height="21.001px" viewBox="0 0 20.999 21.001" enable-background="new 0 0 20.999 21.001" xml:space="preserve">
<g>
	<g>
		<path d="M7.358,0.66L0.657,7.362c-0.876,0.876-0.876,2.3,0,3.175l9.807,9.807c0.875,0.876,2.299,0.876,3.175,0l6.704-6.704
			c0.876-0.875,0.876-2.299,0-3.175l-9.809-9.81C9.657-0.221,8.231-0.218,7.358,0.66z M1.382,8.087l6.702-6.702
			c0.476-0.475,1.249-0.475,1.725,0l9.807,9.807c0.476,0.476,0.476,1.249,0,1.725l-6.702,6.701c-0.475,0.477-1.248,0.477-1.724,0
			L1.379,9.809c-0.476-0.476-0.476-1.249,0-1.725L1.382,8.087z"/>
		<path d="M8.888,8.721L8.56,2.699C8.546,2.417,8.761,2.175,9.046,2.159c0.281-0.013,0.523,0.202,0.539,0.486l0.449,8.309
			l1.616,0.091c0.006,0,0.011,0,0.015-0.002c0.037,0,0.072,0.002,0.109,0.008l6.587,0.365c0.284,0.016,0.499,0.258,0.483,0.543
			c-0.017,0.285-0.258,0.5-0.543,0.483l-6.084-0.341l0.204,6.193c0.008,0.283-0.212,0.52-0.497,0.529
			c-0.147,0.003-0.284-0.053-0.381-0.15c-0.089-0.088-0.146-0.209-0.151-0.344l-0.209-6.285L9.516,11.95
			c-0.132-0.008-0.247-0.064-0.333-0.15s-0.143-0.207-0.148-0.336L8.94,9.747L2.645,9.586c-0.138-0.002-0.261-0.062-0.349-0.15
			C2.198,9.339,2.143,9.208,2.145,9.06c0.008-0.282,0.245-0.508,0.526-0.5L8.888,8.721z"/>
	</g>
</g>
</svg>
