<?xml version="1.0" encoding="utf-8"?>
<!-- Generator: Adobe Illustrator 16.0.0, SVG Export Plug-In . SVG Version: 6.00 Build 0)  -->
<!DOCTYPE svg PUBLIC "-//W3C//DTD SVG 1.1//EN" "http://www.w3.org/Graphics/SVG/1.1/DTD/svg11.dtd">
<svg version="1.1" id="Шар_1" xmlns="http://www.w3.org/2000/svg" xmlns:xlink="http://www.w3.org/1999/xlink" x="0px" y="0px"
	 width="20px" height="21.875px" viewBox="0 0 20 21.875" enable-background="new 0 0 20 21.875" xml:space="preserve">
<g>
	<g>
		<path d="M4.072,4.338c3.229-2.921,8.062-2.966,11.337-0.299l-2.595,0.099c-0.335,0.013-0.595,0.29-0.581,0.625
			c0.014,0.326,0.281,0.581,0.604,0.581c0.009,0,0.013,0,0.021,0l3.985-0.147c0.325-0.014,0.58-0.277,0.58-0.603V4.548
			c0-0.009,0-0.013,0-0.022V4.521l0,0l-0.147-3.939C17.263,0.247,16.981-0.013,16.651,0c-0.335,0.014-0.595,0.291-0.581,0.625
			l0.094,2.47c-1.621-1.327-3.618-2.095-5.753-2.202C7.767,0.76,5.225,1.667,3.264,3.445c-2.697,2.443-3.841,6.16-2.983,9.697
			c0.067,0.276,0.312,0.46,0.585,0.46c0.049,0,0.094-0.004,0.144-0.018c0.321-0.08,0.522-0.406,0.441-0.729
			C0.7,9.747,1.701,6.482,4.072,4.338z"/>
		<path d="M19.72,8.733c-0.08-0.322-0.406-0.523-0.729-0.442c-0.321,0.081-0.522,0.407-0.441,0.728
			c0.755,3.108-0.25,6.374-2.622,8.519c-1.666,1.506-3.757,2.246-5.839,2.246c-1.987,0-3.971-0.674-5.569-2.006l2.626-0.236
			c0.331-0.031,0.576-0.321,0.545-0.656s-0.321-0.576-0.656-0.545l-3.972,0.357c-0.33,0.031-0.575,0.321-0.544,0.656l0.356,3.971
			c0.027,0.312,0.291,0.55,0.599,0.55c0.019,0,0.036,0,0.054-0.005c0.331-0.031,0.576-0.321,0.545-0.656l-0.214-2.416
			c1.621,1.312,3.608,2.076,5.73,2.184c0.17,0.01,0.34,0.014,0.505,0.014c2.461,0,4.802-0.902,6.643-2.564
			C19.434,15.987,20.577,12.276,19.72,8.733z"/>
	</g>
</g>
</svg>
