<?xml version="1.0" encoding="utf-8"?>
<!-- Generator: Adobe Illustrator 16.0.0, SVG Export Plug-In . SVG Version: 6.00 Build 0)  -->
<!DOCTYPE svg PUBLIC "-//W3C//DTD SVG 1.1//EN" "http://www.w3.org/Graphics/SVG/1.1/DTD/svg11.dtd">
<svg version="1.1" id="Шар_1" xmlns="http://www.w3.org/2000/svg" xmlns:xlink="http://www.w3.org/1999/xlink" x="0px" y="0px"
	 width="92px" height="92.002px" viewBox="0 0 92 92.002" enable-background="new 0 0 92 92.002" xml:space="preserve">
<g>
	<path fill="#231F20" d="M64.438,44.386L39.073,27.038c-0.789-0.583-2.892-0.583-3.062,1.614V63.35
		c0.187,2.195,2.328,2.234,3.062,1.613l25.364-17.348C65.095,47.221,65.997,45.607,64.438,44.386z"/>
	<path fill="#231F20" d="M46.002,0C20.635,0,0,20.636,0,46.002c0,25.363,20.635,46,46.002,46c25.364,0,45.998-20.637,45.998-46
		C92,20.636,71.366,0,46.002,0z M46.002,88.077c-23.208,0-42.076-18.869-42.076-42.074c0-23.208,18.868-42.078,42.076-42.078
		c23.205,0,42.074,18.869,42.074,42.078C88.076,69.208,69.207,88.077,46.002,88.077z"/>
</g>
</svg>
