<?xml version="1.0" encoding="utf-8"?>
<!-- Generator: Adobe Illustrator 16.0.0, SVG Export Plug-In . SVG Version: 6.00 Build 0)  -->
<!DOCTYPE svg PUBLIC "-//W3C//DTD SVG 1.1//EN" "http://www.w3.org/Graphics/SVG/1.1/DTD/svg11.dtd">
<svg version="1.1" id="Шар_1" xmlns="http://www.w3.org/2000/svg" xmlns:xlink="http://www.w3.org/1999/xlink" x="0px" y="0px"
	 width="82px" height="124.333px" viewBox="0 0 82 124.333" enable-background="new 0 0 82 124.333" xml:space="preserve">
<g>
	<g>
		<g>
			<path d="M39.133,124.333c-17.221,0-31.094-6.298-39.066-17.734L0,106.502l0.077-0.088l11.624-13.186l0.107,0.165
				c5.927,9.073,14.752,13.484,26.98,13.484c7.468,0,13.273-1.619,17.255-4.813c4.046-3.246,6.099-8.041,6.099-14.25
				c0-6.625-2.29-11.832-6.807-15.475c-4.647-3.749-11.427-5.649-20.149-5.649h-4.781V51.638h5.297
				c14.396,0,23.696-7.416,23.696-18.893c0-5.152-1.849-9.16-5.495-11.911c-3.376-2.548-8.246-3.894-14.084-3.894
				c-11.361,0-20.576,5.152-25.946,14.507l-0.103,0.177l-0.138-0.15L1.721,18.525l0.057-0.096C8.322,7.406,24.369,0,41.706,0
				C64.473,0,79.77,12.332,79.77,30.687c0,13.996-8.576,25.306-20.957,27.794C72.927,61.366,82,73.264,82,89.016
				c0,10.489-4.046,19.368-11.699,25.676S51.871,124.333,39.133,124.333z M0.379,106.523c7.926,11.293,21.683,17.51,38.754,17.51
				c25.859,0,42.567-13.745,42.567-35.018c0-15.889-9.312-27.817-23.723-30.391l-0.847-0.151l0.849-0.144
				c12.653-2.136,21.491-13.504,21.491-27.644c0-18.176-15.177-30.387-37.765-30.387c-17.185,0-33.086,7.305-39.615,18.188
				l11.625,12.635c5.439-9.34,14.702-14.481,26.104-14.481c5.903,0,10.836,1.368,14.265,3.955c3.725,2.811,5.613,6.898,5.613,12.149
				c0,11.658-9.418,19.192-23.995,19.192h-4.998v14.454h4.482c8.793,0,15.636,1.924,20.337,5.717
				c4.59,3.703,6.918,8.987,6.918,15.707c0,12.486-8.4,19.363-23.652,19.363c-12.264,0-21.138-4.402-27.123-13.457L0.379,106.523z"
				/>
		</g>
	</g>
	<g>
		<path fill="#CC9107" d="M5.605,112.239l16.36-9.327c-0.594-0.341-1.172-0.701-1.731-1.081l-15.941,9.087
			C4.722,111.366,5.154,111.812,5.605,112.239z"/>
		<path fill="#CC9107" d="M8.938,115.036l17.581-10.021c-0.731-0.261-1.44-0.546-2.128-0.854L7.41,113.84
			C7.906,114.252,8.421,114.646,8.938,115.036z"/>
		<path fill="#CC9107" d="M29.557,105.917L11.008,116.49c0.567,0.371,1.146,0.731,1.735,1.078l19.465-11.096
			C31.294,106.32,30.416,106.129,29.557,105.917z"/>
		<path fill="#CC9107" d="M39.481,107.024c-0.07,0.001-0.138,0.003-0.208,0.003c-1.107,0-2.17-0.049-3.212-0.121l-20.955,11.946
			c0.647,0.326,1.303,0.644,1.976,0.94L39.481,107.024z"/>
		<path fill="#CC9107" d="M66.583,6.42L47.15,17.498c0.843,0.189,1.653,0.417,2.431,0.684L67.714,7.845
			c0.2-0.06,0.357-0.192,0.479-0.351C67.672,7.122,67.133,6.766,66.583,6.42z"/>
		<path fill="#CC9107" d="M68.066,11.551c-0.122-0.497-0.623-0.787-1.114-0.64l-14.727,8.393c0.62,0.322,1.207,0.677,1.763,1.062
			l13.404-7.64c0.492-0.146,0.795-0.674,0.674-1.174V11.551z"/>
		<path fill="#CC9107" d="M67.744,16.434c-0.121-0.5-0.621-0.787-1.113-0.641l-10.756,6.131c0.438,0.431,0.843,0.889,1.217,1.375
			l9.979-5.688C67.564,17.462,67.867,16.934,67.744,16.434z"/>
		<path fill="#CC9107" d="M67.423,21.318c-0.122-0.5-0.621-0.79-1.113-0.644l-7.984,4.551c0.275,0.525,0.519,1.076,0.729,1.651
			l7.695-4.387C67.242,22.347,67.544,21.817,67.423,21.318z"/>
	</g>
</g>
</svg>
