<?xml version="1.0" encoding="utf-8"?>
<!-- Generator: Adobe Illustrator 16.0.0, SVG Export Plug-In . SVG Version: 6.00 Build 0)  -->
<!DOCTYPE svg PUBLIC "-//W3C//DTD SVG 1.1//EN" "http://www.w3.org/Graphics/SVG/1.1/DTD/svg11.dtd">
<svg version="1.1" id="Шар_1" xmlns="http://www.w3.org/2000/svg" xmlns:xlink="http://www.w3.org/1999/xlink" x="0px" y="0px"
	 width="99px" height="99px" viewBox="0 0 99 99" enable-background="new 0 0 99 99" xml:space="preserve">
<g>
	<g>
		<path fill="#CC9107" d="M49.5,99C22.206,99,0,76.794,0,49.5S22.206,0,49.5,0S99,22.206,99,49.5S76.794,99,49.5,99z M49.5,0.805
			C22.649,0.805,0.805,22.649,0.805,49.5c0,26.851,21.845,48.695,48.695,48.695S98.195,76.351,98.195,49.5
			C98.195,22.649,76.351,0.805,49.5,0.805z"/>
	</g>
	<g>
		<path fill="#CC9107" d="M61.164,60.616c-0.939,0-1.854,0.281-2.641,0.813l-0.453,0.306l-0.156-0.523
			c-0.868-2.859-3.56-4.856-6.548-4.856c-1.719,0-3.358,0.637-4.617,1.793l-0.663,0.607l-0.013-0.898
			c-0.022-1.624,0.157-3.303,0.534-4.988c0.613-2.743,1.748-5.44,3.37-8.014l0.183-0.289l0.314,0.132
			c0.941,0.399,2.867,1.066,5.185,1.066c1.684,0,3.276-0.354,4.733-1.053c4.37-2.094,7.358-7.17,8.881-15.083
			c0.024-0.126-0.007-0.256-0.086-0.358c-0.078-0.102-0.196-0.167-0.325-0.174c-1.22-0.085-2.401-0.127-3.515-0.127
			c-7.076,0-11.939,1.701-14.455,5.056c-2.708,3.614-1.872,7.953-1.387,9.65l0.051,0.178l-0.101,0.152
			c-1.312,2.016-2.341,4.13-3.06,6.282l-0.367,1.104l-0.394-1.094c-0.55-1.527-1.457-2.844-2.697-3.915l-0.14-0.121v-0.186
			c0.003-1.039-0.211-3.658-2.263-5.53c-1.475-1.346-3.586-2.028-6.276-2.028c-1.262,0-2.667,0.151-4.178,0.448
			c-0.125,0.025-0.235,0.102-0.302,0.213c-0.064,0.11-0.078,0.244-0.039,0.365c1.686,5.167,3.988,8.173,6.848,8.933
			c0.469,0.124,0.951,0.187,1.436,0.187c1.828,0,3.345-0.884,4.087-1.409l0.27-0.19l0.24,0.225c1.83,1.723,2.759,4.065,2.759,6.963
			c0,0.029,0.003,0.061,0.011,0.099l0.018,0.072l-0.012,0.072c-0.191,1.341-0.262,2.653-0.21,3.9l0.031,0.737l-0.637-0.373
			c-0.782-0.455-1.677-0.697-2.586-0.697c-1.764,0-3.437,0.932-4.367,2.434l-0.143,0.228l-0.265-0.044
			c-0.251-0.039-0.508-0.062-0.764-0.062c-2.598,0-4.71,2.112-4.71,4.71c0,2.597,2.112,4.708,4.71,4.708h24.707
			c2.596,0,4.709-2.111,4.709-4.708C65.873,62.728,63.76,60.616,61.164,60.616z M51.611,34.561
			c2.615-3.488,8.083-5.048,16.212-4.631l0.472,0.025l-0.099,0.462c-1.511,7.057-4.261,11.591-8.175,13.476
			c-1.323,0.637-2.784,0.96-4.34,0.96c-1.885,0-3.503-0.465-4.529-0.857l-0.49-0.185l0.307-0.426c1.48-2.064,3.29-4.027,5.377-5.837
			c0.188-0.162,0.208-0.445,0.046-0.632c-0.085-0.099-0.209-0.156-0.339-0.156c-0.078,0-0.189,0.019-0.295,0.11
			c-1.894,1.642-3.569,3.413-4.984,5.268l-0.574,0.753l-0.145-0.935C49.745,39.944,49.763,37.027,51.611,34.561z M36.111,44.312
			c0.076,0.093,0.186,0.149,0.305,0.16c0.24,0.023,2.356,0.272,4.498,1.538c0.047,0.026,0.092,0.057,0.138,0.086l0.629,0.395
			l-0.564,0.338c-0.707,0.424-1.818,0.931-3.094,0.931c-0.408,0-0.814-0.052-1.202-0.156c-2.335-0.619-4.375-3.179-5.901-7.399
			l-0.167-0.459l0.482-0.076c3.947-0.625,6.881-0.11,8.683,1.523c1.21,1.099,1.679,2.528,1.858,3.536l0.15,0.842l-0.745-0.421
			c-2.372-1.341-4.661-1.569-4.683-1.572c-0.016-0.001-0.03-0.001-0.044-0.001c-0.229,0-0.423,0.179-0.445,0.409
			C35.998,44.105,36.034,44.221,36.111,44.312z M61.164,69.136H36.457c-2.102,0-3.812-1.711-3.812-3.811
			c0-2.102,1.711-3.811,3.812-3.811c0.387,0,0.769,0.057,1.135,0.172c0.214,0.065,0.451-0.041,0.543-0.242
			c0.687-1.512,2.202-2.486,3.86-2.486c1.304,0,2.516,0.587,3.325,1.611c0.094,0.119,0.245,0.188,0.395,0.168
			c0.073-0.006,0.145-0.031,0.205-0.072l0.073-0.039c0.161-0.062,0.271-0.219,0.281-0.393l0.005-0.105l0.055-0.09
			c1.093-1.743,2.975-2.783,5.032-2.783c3.128,0,5.731,2.441,5.93,5.56c0.011,0.187,0.14,0.349,0.32,0.401
			c0.178,0.053,0.378-0.015,0.487-0.162c0.729-0.979,1.843-1.539,3.061-1.539c2.101,0,3.811,1.709,3.811,3.811
			C64.975,67.425,63.265,69.136,61.164,69.136z"/>
	</g>
</g>
</svg>
