<?xml version="1.0" encoding="utf-8"?>
<!-- Generator: Adobe Illustrator 16.0.0, SVG Export Plug-In . SVG Version: 6.00 Build 0)  -->
<!DOCTYPE svg PUBLIC "-//W3C//DTD SVG 1.1//EN" "http://www.w3.org/Graphics/SVG/1.1/DTD/svg11.dtd">
<svg version="1.1" id="Шар_1" xmlns="http://www.w3.org/2000/svg" xmlns:xlink="http://www.w3.org/1999/xlink" x="0px" y="0px"
	 width="11px" height="8px" viewBox="0 0 11 8" enable-background="new 0 0 11 8" xml:space="preserve">
<path d="M10.79,0.158C10.675,0.056,10.528,0,10.375,0c-0.179,0-0.349,0.077-0.468,0.21L4.301,6.517L1.015,3.887
	C0.905,3.799,0.766,3.75,0.625,3.75c-0.191,0-0.369,0.085-0.488,0.235c-0.215,0.269-0.171,0.663,0.098,0.878l3.75,3
	C4.094,7.952,4.233,8,4.375,8c0.179,0,0.349-0.076,0.468-0.21l5.999-6.75c0.111-0.125,0.167-0.285,0.157-0.452
	S10.915,0.269,10.79,0.158z"/>
</svg>
