<?xml version="1.0" encoding="utf-8"?>
<!-- Generator: Adobe Illustrator 16.0.0, SVG Export Plug-In . SVG Version: 6.00 Build 0)  -->
<!DOCTYPE svg PUBLIC "-//W3C//DTD SVG 1.1//EN" "http://www.w3.org/Graphics/SVG/1.1/DTD/svg11.dtd">
<svg version="1.1" id="Шар_1" xmlns="http://www.w3.org/2000/svg" xmlns:xlink="http://www.w3.org/1999/xlink" x="0px" y="0px"
	 width="134px" height="37.451px" viewBox="0 0 134 37.451" enable-background="new 0 0 134 37.451" xml:space="preserve">
<g>
	<polygon points="43.694,20.677 50.543,16.773 44.303,16.773 37.453,20.677 	"/>
	<polygon points="32.552,20.677 39.402,16.773 33.162,16.773 26.312,20.677 	"/>
	<path d="M28.256,16.773H1.953C0.882,16.789,0,17.675,0,18.748c0,1.083,0.858,1.929,1.953,1.929h19.452L28.256,16.773z"/>
	<polygon points="55.449,16.773 48.599,20.677 54.836,20.677 61.686,16.773 	"/>
	<path d="M133.43,17.344L116.639,0.554c-0.738-0.738-2.004-0.738-2.742,0c-0.755,0.755-0.755,1.984,0,2.741l13.48,13.479h-60.79
		l-6.849,3.904h67.639l-13.48,13.48c-0.755,0.755-0.755,1.985,0,2.74c0.738,0.737,2.004,0.737,2.742,0l16.791-16.792
		c0.374-0.372,0.57-0.85,0.57-1.381C134,18.21,133.792,17.708,133.43,17.344z"/>
</g>
</svg>
