<?xml version="1.0" encoding="utf-8"?>
<!-- Generator: Adobe Illustrator 16.0.0, SVG Export Plug-In . SVG Version: 6.00 Build 0)  -->
<!DOCTYPE svg PUBLIC "-//W3C//DTD SVG 1.1//EN" "http://www.w3.org/Graphics/SVG/1.1/DTD/svg11.dtd">
<svg version="1.1" id="Шар_1" xmlns="http://www.w3.org/2000/svg" xmlns:xlink="http://www.w3.org/1999/xlink" x="0px" y="0px"
	 width="99px" height="99px" viewBox="0 0 99 99" enable-background="new 0 0 99 99" xml:space="preserve">
<g>
	<g>
		<g>
			<path fill="#CC9107" d="M66.478,47.185c0-0.137-0.053-0.264-0.148-0.362c-0.098-0.096-0.226-0.149-0.362-0.149
				s-0.266,0.054-0.361,0.149l-0.395,0.395c-0.098,0.098-0.151,0.225-0.151,0.362s0.054,0.266,0.151,0.361
				c0.193,0.193,0.529,0.193,0.723,0l0.396-0.395C66.425,47.45,66.478,47.321,66.478,47.185z"/>
		</g>
		<g>
			<path fill="#CC9107" d="M71.585,44.93c0-1.855-1.509-3.364-3.365-3.364h-1.521c-6.804,0-12.34,5.537-12.34,12.34v4.374
				c0,0.281,0.229,0.511,0.513,0.511h4.373c6.804,0,12.34-5.535,12.34-12.34V44.93z M70.562,46.45
				c0,6.241-5.077,11.319-11.316,11.319h-3.138l7.415-7.417c0.098-0.096,0.15-0.225,0.15-0.361c0-0.137-0.053-0.266-0.15-0.362
				c-0.191-0.192-0.531-0.193-0.725,0l-7.415,7.416v-3.139c0-6.239,5.077-11.316,11.316-11.316h1.521
				c1.292,0,2.342,1.05,2.342,2.341V46.45z"/>
		</g>
		<g>
			<path fill="#CC9107" d="M27.836,59.832h9.751c0.255,0,0.283-0.293,0.283-0.418c0-0.18-0.075-0.447-0.283-0.447h-9.168v-8.393
				h4.703c0.069,0,0.282,0,0.282-0.338c0-0.043-0.008-0.418-0.282-0.418h-4.703v-8.338l9.168-0.001c0.224,0,0.283-0.31,0.283-0.473
				c0-0.179-0.051-0.392-0.283-0.392h-9.751c-0.071,0-0.42,0.013-0.42,0.281v18.626C27.416,59.828,27.818,59.832,27.836,59.832z"/>
		</g>
		<g>
			<path fill="#CC9107" d="M50.846,55.049c-0.425,0-0.482,0.178-0.505,0.36c-0.15,1.207-0.464,3.721-4.125,3.721
				c-2.957,0-4.457-1.545-4.457-4.594v-8.492c0-2.987,1.504-4.566,4.348-4.566c3.669,0,4.186,2.587,4.238,3.699
				c0.006,0.099,0.02,0.302,0.501,0.302c0.396,0,0.501,0,0.501-0.693c0-2.457-2.154-4.172-5.24-4.172
				c-1.998,0-5.35,0.706-5.35,5.431v8.492c0,4.751,3.301,5.46,5.268,5.46c3.135,0,5.322-1.739,5.322-4.228
				C51.347,55.049,51.21,55.049,50.846,55.049z"/>
		</g>
	</g>
	<g>
		<path fill="#CC9107" d="M49.5,99C22.206,99,0,76.794,0,49.5S22.206,0,49.5,0S99,22.206,99,49.5S76.794,99,49.5,99z M49.5,0.805
			C22.649,0.805,0.805,22.649,0.805,49.5c0,26.851,21.845,48.695,48.695,48.695S98.195,76.351,98.195,49.5
			C98.195,22.649,76.351,0.805,49.5,0.805z"/>
	</g>
</g>
</svg>
