<?xml version="1.0" encoding="utf-8"?>
<!-- Generator: Adobe Illustrator 16.0.0, SVG Export Plug-In . SVG Version: 6.00 Build 0)  -->
<!DOCTYPE svg PUBLIC "-//W3C//DTD SVG 1.1//EN" "http://www.w3.org/Graphics/SVG/1.1/DTD/svg11.dtd">
<svg version="1.1" id="Шар_1" xmlns="http://www.w3.org/2000/svg" xmlns:xlink="http://www.w3.org/1999/xlink" x="0px" y="0px"
	 width="23px" height="23.294px" viewBox="0 0 23 23.294" enable-background="new 0 0 23 23.294" xml:space="preserve">
<g>
	<path d="M22.468,13.782l-0.016-0.038l0.007-0.039c0.114-0.643,0.172-1.298,0.172-1.947c0-6.077-4.943-11.021-11.021-11.021
		c-0.572,0-1.148,0.044-1.712,0.132C9.716,0.896,9.556,0.994,9.446,1.143C9.338,1.292,9.294,1.475,9.322,1.657
		c0.052,0.333,0.345,0.584,0.682,0.584c0.035,0,0.071-0.003,0.107-0.009c0.493-0.077,0.997-0.116,1.499-0.116
		c5.315,0,9.64,4.325,9.64,9.64c0,0.646-0.065,1.297-0.194,1.934c-0.028,0.144-0.011,0.296,0.052,0.428
		c0.339,0.729,0.511,1.506,0.511,2.312c0,3.023-2.459,5.481-5.481,5.481c-0.381,0-0.69,0.31-0.69,0.69s0.31,0.691,0.69,0.691
		c3.784,0,6.863-3.078,6.863-6.863C23,15.513,22.82,14.621,22.468,13.782z"/>
	<path d="M14.034,21.826c-0.057-0.334-0.343-0.576-0.68-0.576c-0.039,0-0.078,0.004-0.116,0.01
		c-0.537,0.092-1.085,0.139-1.628,0.139c-5.315,0-9.641-4.325-9.641-9.64c0-0.604,0.056-1.207,0.166-1.79
		C2.165,9.81,2.139,9.646,2.062,9.506C1.616,8.7,1.381,7.786,1.381,6.862c0-1.462,0.571-2.837,1.607-3.874
		C4.024,1.952,5.4,1.381,6.862,1.381c0.381,0,0.69-0.31,0.69-0.69S7.243,0,6.862,0C3.078,0,0,3.079,0,6.862
		c0,1.053,0.247,2.108,0.716,3.051l0.02,0.04L0.729,9.997c-0.093,0.578-0.14,1.17-0.14,1.761c0,6.077,4.944,11.021,11.021,11.021
		c0.62,0,1.246-0.053,1.859-0.157C13.845,22.558,14.099,22.201,14.034,21.826z"/>
	<path d="M15.7,13.641c0-0.471-0.092-0.871-0.271-1.19c-0.18-0.32-0.435-0.59-0.758-0.801c-0.334-0.216-0.743-0.402-1.217-0.553
		c-0.477-0.153-1.023-0.296-1.628-0.427c-0.498-0.115-0.84-0.199-1.049-0.257c-0.22-0.061-0.438-0.145-0.647-0.25
		C9.908,10.051,9.73,9.915,9.601,9.757C9.461,9.586,9.394,9.39,9.394,9.158c0-0.371,0.189-0.676,0.579-0.932
		c0.365-0.239,0.849-0.361,1.436-0.361c0.644,0,1.104,0.111,1.404,0.339c0.289,0.221,0.538,0.528,0.741,0.913
		c0.145,0.248,0.271,0.419,0.39,0.523c0.135,0.119,0.354,0.137,0.474,0.137c0.231,0,0.428-0.082,0.582-0.242
		c0.155-0.162,0.234-0.345,0.234-0.542c0-0.235-0.068-0.48-0.203-0.731c-0.136-0.253-0.357-0.501-0.658-0.736
		c-0.303-0.236-0.69-0.428-1.152-0.573c-0.467-0.144-1.027-0.217-1.667-0.217c-0.806,0-1.514,0.111-2.104,0.33
		C8.867,7.281,8.418,7.591,8.113,7.988c-0.302,0.394-0.454,0.85-0.454,1.355c0,0.532,0.144,0.982,0.427,1.337
		c0.289,0.361,0.688,0.651,1.185,0.863c0.511,0.217,1.154,0.41,1.911,0.572c0.571,0.12,1.041,0.236,1.394,0.345
		c0.362,0.112,0.664,0.279,0.896,0.497c0.246,0.231,0.371,0.532,0.371,0.897c0,0.465-0.218,0.84-0.666,1.146
		c-0.425,0.29-0.98,0.437-1.65,0.437c-0.487,0-0.89-0.074-1.195-0.219c-0.307-0.145-0.55-0.334-0.722-0.562
		c-0.165-0.218-0.319-0.491-0.46-0.813c-0.104-0.243-0.228-0.427-0.368-0.547c-0.133-0.111-0.299-0.168-0.493-0.168
		c-0.248,0-0.445,0.072-0.603,0.221c-0.155,0.146-0.23,0.314-0.23,0.518c0,0.385,0.145,0.79,0.432,1.204
		c0.291,0.419,0.676,0.761,1.142,1.012c0.663,0.353,1.522,0.53,2.553,0.53c0.859,0,1.612-0.131,2.237-0.391
		c0.616-0.256,1.089-0.613,1.406-1.062C15.54,14.713,15.7,14.203,15.7,13.641z"/>
</g>
</svg>
