<?xml version="1.0" encoding="utf-8"?>
<!-- Generator: Adobe Illustrator 16.0.0, SVG Export Plug-In . SVG Version: 6.00 Build 0)  -->
<!DOCTYPE svg PUBLIC "-//W3C//DTD SVG 1.1//EN" "http://www.w3.org/Graphics/SVG/1.1/DTD/svg11.dtd">
<svg version="1.1" id="Шар_1" xmlns="http://www.w3.org/2000/svg" xmlns:xlink="http://www.w3.org/1999/xlink" x="0px" y="0px"
	 width="19px" height="20.452px" viewBox="0 0 19 20.452" enable-background="new 0 0 19 20.452" xml:space="preserve">
<g>
	<g>
		<path fill-rule="evenodd" clip-rule="evenodd" d="M11.123,5.375c-0.279,0.083-0.451,0.383-0.381,0.666v0.001
			c0.068,0.282,0.352,0.447,0.629,0.363l7.233-5.354c0.279-0.083,0.451-0.383,0.381-0.666l0,0c-0.069-0.284-0.352-0.447-0.632-0.363
			L11.123,5.375L11.123,5.375z"/>
		<path fill-rule="evenodd" clip-rule="evenodd" d="M10.94,9.527c-0.277,0.083-0.451,0.382-0.382,0.666l0,0
			c0.068,0.283,0.353,0.446,0.632,0.364l7.231-5.355c0.279-0.083,0.451-0.382,0.382-0.666l0,0c-0.068-0.284-0.353-0.447-0.631-0.365
			L10.94,9.527z"/>
	</g>
	<g>
		<g>
			<path d="M14.448,13.49c-0.374-0.39-0.826-0.599-1.306-0.599c-0.475,0-0.931,0.205-1.32,0.595l-1.221,1.216
				c-0.101-0.055-0.2-0.104-0.297-0.154c-0.139-0.069-0.271-0.135-0.382-0.205c-1.144-0.726-2.183-1.672-3.179-2.896
				c-0.482-0.609-0.808-1.123-1.043-1.645c0.317-0.29,0.61-0.591,0.896-0.88c0.108-0.108,0.215-0.22,0.323-0.328
				c0.812-0.812,0.812-1.861,0-2.672L5.867,4.866c-0.12-0.12-0.244-0.243-0.359-0.367C5.277,4.26,5.032,4.013,4.782,3.781
				C4.407,3.41,3.958,3.213,3.488,3.213c-0.472,0-0.928,0.197-1.313,0.568C2.17,3.785,2.17,3.785,2.167,3.789L0.854,5.113
				C0.36,5.607,0.079,6.21,0.016,6.909C-0.077,8.037,0.255,9.087,0.51,9.774c0.625,1.688,1.56,3.251,2.954,4.927
				c1.691,2.02,3.728,3.615,6.052,4.738c0.889,0.422,2.074,0.92,3.398,1.004c0.08,0.004,0.166,0.008,0.243,0.008
				c0.892,0,1.642-0.32,2.229-0.957c0.004-0.008,0.012-0.012,0.016-0.02c0.201-0.244,0.432-0.463,0.675-0.699
				c0.167-0.158,0.336-0.324,0.503-0.498c0.382-0.397,0.583-0.861,0.583-1.336c0-0.479-0.205-0.938-0.595-1.324L14.448,13.49z
				 M15.83,17.555C15.826,17.555,15.826,17.559,15.83,17.555c-0.15,0.162-0.305,0.309-0.47,0.472
				c-0.252,0.239-0.507,0.49-0.746,0.772c-0.39,0.417-0.85,0.614-1.452,0.614c-0.059,0-0.12,0-0.178-0.005
				c-1.146-0.072-2.213-0.521-3.012-0.903c-2.186-1.058-4.105-2.56-5.7-4.464c-1.317-1.587-2.198-3.055-2.781-4.63
				C1.131,8.45,1,7.701,1.059,6.994c0.038-0.452,0.213-0.826,0.532-1.147L2.908,4.53c0.19-0.178,0.392-0.274,0.588-0.274
				c0.244,0,0.44,0.146,0.563,0.27C4.063,4.53,4.067,4.534,4.071,4.538c0.235,0.219,0.46,0.448,0.695,0.691
				c0.119,0.123,0.243,0.248,0.366,0.374l1.055,1.055c0.41,0.409,0.41,0.788,0,1.198c-0.112,0.111-0.22,0.223-0.332,0.332
				C5.53,8.519,5.222,8.828,4.885,9.129C4.878,9.137,4.871,9.141,4.867,9.148c-0.332,0.333-0.271,0.656-0.201,0.877
				c0.004,0.011,0.008,0.022,0.012,0.035c0.274,0.665,0.66,1.29,1.247,2.035l0.004,0.004c1.066,1.312,2.189,2.336,3.43,3.12
				c0.158,0.102,0.319,0.182,0.475,0.259c0.14,0.069,0.271,0.136,0.383,0.205c0.015,0.007,0.03,0.019,0.046,0.026
				c0.131,0.066,0.256,0.098,0.383,0.098c0.319,0,0.521-0.201,0.587-0.268l1.32-1.32c0.132-0.131,0.339-0.289,0.584-0.289
				c0.239,0,0.436,0.15,0.555,0.281c0.004,0.004,0.004,0.004,0.008,0.008l2.128,2.128C16.224,16.741,16.224,17.147,15.83,17.555z"/>
		</g>
	</g>
</g>
</svg>
