<?xml version="1.0" encoding="utf-8"?>
<!-- Generator: Adobe Illustrator 16.0.0, SVG Export Plug-In . SVG Version: 6.00 Build 0)  -->
<!DOCTYPE svg PUBLIC "-//W3C//DTD SVG 1.1//EN" "http://www.w3.org/Graphics/SVG/1.1/DTD/svg11.dtd">
<svg version="1.1" id="Шар_1" xmlns="http://www.w3.org/2000/svg" xmlns:xlink="http://www.w3.org/1999/xlink" x="0px" y="0px"
	 width="134px" height="37.45px" viewBox="0 0 134 37.45" enable-background="new 0 0 134 37.45" xml:space="preserve">
<g>
	<polygon points="90.306,20.677 83.457,16.772 89.697,16.772 96.547,20.677 	"/>
	<polygon points="101.448,20.677 94.598,16.772 100.838,16.772 107.688,20.677 	"/>
	<path d="M105.744,16.772h26.303c1.071,0.016,1.953,0.902,1.953,1.975c0,1.083-0.858,1.929-1.953,1.929h-19.452L105.744,16.772z"/>
	<polygon points="78.551,16.772 85.401,20.677 79.164,20.677 72.314,16.772 	"/>
	<path d="M0.57,17.344L17.361,0.553c0.738-0.738,2.004-0.738,2.742,0c0.755,0.755,0.755,1.984,0,2.741L6.623,16.772h60.79
		l6.849,3.904H6.623l13.48,13.48c0.755,0.755,0.755,1.985,0,2.74c-0.738,0.737-2.004,0.737-2.742,0L0.57,20.105
		C0.196,19.733,0,19.255,0,18.725C0,18.209,0.208,17.707,0.57,17.344z"/>
</g>
</svg>
