<?xml version="1.0" encoding="utf-8"?>
<!-- Generator: Adobe Illustrator 16.0.0, SVG Export Plug-In . SVG Version: 6.00 Build 0)  -->
<!DOCTYPE svg PUBLIC "-//W3C//DTD SVG 1.1//EN" "http://www.w3.org/Graphics/SVG/1.1/DTD/svg11.dtd">
<svg version="1.1" id="Шар_1" xmlns="http://www.w3.org/2000/svg" xmlns:xlink="http://www.w3.org/1999/xlink" x="0px" y="0px"
	 width="90px" height="126.332px" viewBox="0 0 90 126.332" enable-background="new 0 0 90 126.332" xml:space="preserve">
<g>
	<g>
		<path fill="#CC9107" d="M67.898,107.032c0.5-0.147,0.807-0.685,0.685-1.191c-0.126-0.506-0.632-0.798-1.129-0.649l-34.215,19.502
			c0.864,0.225,1.747,0.418,2.639,0.592L67.898,107.032z"/>
		<path fill="#CC9107" d="M68.256,110.789v-0.002c-0.123-0.503-0.628-0.797-1.127-0.648L39.57,125.846
			c1.053,0.119,2.115,0.218,3.199,0.271l24.804-14.139C68.071,111.831,68.38,111.296,68.256,110.789z"/>
		<path fill="#CC9107" d="M67.931,115.736c-0.123-0.508-0.63-0.799-1.128-0.65L47.426,126.13c1.471-0.061,2.917-0.191,4.341-0.379
			l15.48-8.825C67.746,116.777,68.054,116.242,67.931,115.736z"/>
		<path fill="#CC9107" d="M66.476,120.033l-7.16,4.081c2.912-0.892,5.678-2.058,8.272-3.468
			C67.448,120.165,66.961,119.888,66.476,120.033z"/>
		<path fill="#CC9107" d="M45.586,16.877c0.438-0.021,0.88-0.038,1.326-0.038c0.763,0,1.518,0.033,2.267,0.087L68.938,5.663
			c-0.631-0.351-1.272-0.683-1.922-1.001L45.586,16.877z"/>
		<path fill="#CC9107" d="M55.519,18.072l17.383-9.908c-0.552-0.391-1.11-0.773-1.679-1.138L52.956,17.438
			C53.824,17.611,54.677,17.827,55.519,18.072z"/>
		<path fill="#CC9107" d="M74.915,9.684l-16.493,9.401c0.698,0.284,1.386,0.589,2.058,0.923l15.924-9.076
			C75.916,10.504,75.42,10.088,74.915,9.684z"/>
		<path fill="#CC9107" d="M78.182,12.583l-15.336,8.742c0.578,0.356,1.144,0.733,1.695,1.128l14.955-8.525
			C79.067,13.468,78.628,13.022,78.182,12.583z"/>
	</g>
	<g>
		<g>
			<path d="M45.348,126.332c-13.553,0-24.946-5.046-32.948-14.592C4.288,102.064,0,88.123,0,71.422
				C0,48.42,4.338,30.458,12.891,18.035C21.014,6.236,32.898,0,47.26,0c15.678,0,29.41,7.565,37.676,20.757l0.062,0.1L73.474,32.913
				l-0.099-0.184c-5.199-9.708-15.34-15.738-26.463-15.738c-8.475,0-15.606,3.802-20.627,10.995
				c-5.028,7.206-7.813,17.659-8.066,30.265c5.263-10.107,16.258-16.357,28.868-16.357C71.15,41.894,90,60.133,90,83.417
				C90,107.481,70.387,126.332,45.348,126.332z M47.26,0.303c-14.257,0-26.055,6.191-34.12,17.904
				C4.622,30.579,0.303,48.482,0.303,71.422c0,16.628,4.263,30.503,12.329,40.123c7.942,9.475,19.255,14.482,32.716,14.482
				c24.868,0,44.35-18.717,44.35-42.61c0-23.115-18.717-41.221-42.61-41.221c-12.736,0-23.809,6.429-28.896,16.777l-0.296,0.603
				l0.009-0.671c0.17-12.961,2.982-23.712,8.133-31.093c5.079-7.277,12.298-11.125,20.875-11.125
				c11.165,0,21.35,6.015,26.631,15.714l11.073-11.584C76.4,7.779,62.791,0.303,47.26,0.303z M45.348,109.991
				c-14.311,0-26.399-12.169-26.399-26.573c0-6.943,2.755-13.51,7.758-18.49c5.012-4.989,11.632-7.737,18.642-7.737
				s13.63,2.748,18.642,7.737c5.003,4.98,7.759,11.547,7.759,18.49C71.748,97.822,59.658,109.991,45.348,109.991z M45.348,57.494
				c-6.93,0-13.473,2.716-18.428,7.648c-4.945,4.922-7.669,11.412-7.669,18.275c0,14.24,11.951,26.27,26.097,26.27
				c14.146,0,26.098-12.029,26.098-26.27c0-6.863-2.724-13.354-7.669-18.275C58.822,60.21,52.276,57.494,45.348,57.494z"/>
		</g>
	</g>
</g>
</svg>
