<?xml version="1.0" encoding="utf-8"?>
<!-- Generator: Adobe Illustrator 16.0.0, SVG Export Plug-In . SVG Version: 6.00 Build 0)  -->
<!DOCTYPE svg PUBLIC "-//W3C//DTD SVG 1.1//EN" "http://www.w3.org/Graphics/SVG/1.1/DTD/svg11.dtd">
<svg version="1.1" id="Шар_1" xmlns="http://www.w3.org/2000/svg" xmlns:xlink="http://www.w3.org/1999/xlink" x="0px" y="0px"
	 width="98px" height="122.883px" viewBox="0 0 98 122.883" enable-background="new 0 0 98 122.883" xml:space="preserve">
<g>
	<g>
		<g>
			<path d="M98,122.883H0v-0.185c0-13.181,2.073-22.695,6.719-30.852c5.232-9.183,13.915-16.918,27.326-24.346
				c3.729-2.085,7.31-3.958,10.771-5.769C59.564,54.02,70.22,48.447,70.22,38.14c0-11.369-11.258-17.317-22.38-17.317
				c-15.523,0-25.165,9.469-31.066,16.591l-0.14,0.167L1.623,20.211l0.112-0.121C8.223,13.142,27.087,0,52.058,0
				c26.092,0,43.623,14.056,43.623,34.977c0,20.563-17.87,31.726-31.312,38.332l-0.71,0.35
				c-11.578,5.678-30.908,15.158-35.384,27.98H98V122.883z M0.368,122.515h97.264v-20.509H27.764l0.081-0.242
				c4.362-13.09,23.949-22.697,35.652-28.436l0.71-0.35c13.354-6.562,31.105-17.644,31.105-38.002
				c0-20.701-17.383-34.609-43.255-34.609c-24.699,0-43.387,12.915-49.939,19.853l14.511,16.792
				c5.961-7.16,15.654-16.558,31.211-16.558c6.867,0,12.697,1.865,16.857,5.394c3.798,3.222,5.89,7.587,5.89,12.291
				c0,10.529-10.738,16.146-25.6,23.919c-3.461,1.809-7.039,3.681-10.764,5.764C20.873,75.216,12.235,82.908,7.038,92.029
				C2.447,100.088,0.387,109.498,0.368,122.515z"/>
		</g>
	</g>
	<g>
		<path fill="#CC9107" d="M45.687,104.364v0.002c0.149,0.613,0.767,0.968,1.37,0.785l5.84-3.328h-4.458l-1.925,1.098
			C45.909,103.102,45.538,103.749,45.687,104.364z"/>
		<path fill="#CC9107" d="M46.662,111.155l16.372-9.332h-4.458l-12.455,7.101c-0.608,0.179-0.979,0.827-0.829,1.44v0.003
			C45.44,110.979,46.057,111.336,46.662,111.155z"/>
		<path fill="#CC9107" d="M68.708,101.823l-22.981,13.102c-0.605,0.18-0.979,0.829-0.829,1.443c0.148,0.615,0.764,0.967,1.368,0.788
			l26.898-15.333H68.708z"/>
		<path fill="#CC9107" d="M65.427,20.903l17.905-10.207c0.604-0.179,0.978-0.83,0.829-1.445c-0.149-0.614-0.765-0.968-1.373-0.789
			l-21.367,12.18C62.822,20.647,64.147,20.749,65.427,20.903z"/>
		<path fill="#CC9107" d="M82.396,14.465l-12.739,7.261c0.98,0.271,1.916,0.584,2.799,0.946l10.482-5.975
			c0.604-0.179,0.978-0.828,0.828-1.443v-0.002C83.615,14.641,83,14.284,82.396,14.465z"/>
		<path fill="#CC9107" d="M83.37,21.254c-0.149-0.615-0.765-0.968-1.369-0.789l-6.526,3.72c0.718,0.434,1.392,0.897,2.02,1.392
			l5.049-2.877C83.149,22.518,83.521,21.868,83.37,21.254z"/>
		<path fill="#CC9107" d="M82.975,27.258c-0.15-0.615-0.764-0.971-1.368-0.791l-1.95,1.111c0.512,0.56,0.97,1.145,1.389,1.749
			l1.104-0.629C82.753,28.521,83.124,27.871,82.975,27.258z"/>
	</g>
</g>
</svg>
