<?xml version="1.0" encoding="utf-8"?>
<!-- Generator: Adobe Illustrator 16.0.0, SVG Export Plug-In . SVG Version: 6.00 Build 0)  -->
<!DOCTYPE svg PUBLIC "-//W3C//DTD SVG 1.1//EN" "http://www.w3.org/Graphics/SVG/1.1/DTD/svg11.dtd">
<svg version="1.1" id="Шар_1" xmlns="http://www.w3.org/2000/svg" xmlns:xlink="http://www.w3.org/1999/xlink" x="0px" y="0px"
	 width="17px" height="16.967px" viewBox="0 0 17 16.967" enable-background="new 0 0 17 16.967" xml:space="preserve">
<g>
	<path fill="#252525" d="M16.702,14.925C16.898,15.122,17,15.341,17,15.577s-0.102,0.454-0.298,0.651l-0.414,0.415
		c-0.198,0.197-0.414,0.296-0.65,0.296c-0.237,0-0.456-0.101-0.652-0.296l-6.457-6.459l-6.485,6.486
		c-0.198,0.197-0.417,0.296-0.652,0.296c-0.236,0-0.454-0.099-0.65-0.296l-0.442-0.442C0.1,16.03,0,15.813,0,15.577
		s0.1-0.455,0.298-0.652l6.485-6.485L0.357,2.013C0.158,1.816,0.06,1.599,0.06,1.362S0.158,0.909,0.357,0.71l0.414-0.414
		C0.968,0.099,1.186,0,1.422,0c0.237,0,0.453,0.098,0.652,0.296L8.5,6.723l6.308-6.309c0.198-0.197,0.414-0.296,0.652-0.296
		c0.235,0.001,0.453,0.099,0.649,0.296l0.443,0.443c0.198,0.197,0.297,0.414,0.297,0.651s-0.099,0.454-0.297,0.651l-6.308,6.308
		L16.702,14.925z"/>
</g>
</svg>
