<?xml version="1.0" encoding="utf-8"?>
<!-- Generator: Adobe Illustrator 16.0.0, SVG Export Plug-In . SVG Version: 6.00 Build 0)  -->
<!DOCTYPE svg PUBLIC "-//W3C//DTD SVG 1.1//EN" "http://www.w3.org/Graphics/SVG/1.1/DTD/svg11.dtd">
<svg version="1.1" id="Шар_1" xmlns="http://www.w3.org/2000/svg" xmlns:xlink="http://www.w3.org/1999/xlink" x="0px" y="0px"
	 width="88px" height="129.896px" viewBox="0 0 88 129.896" enable-background="new 0 0 88 129.896" xml:space="preserve">
<g>
	<g>
		<path fill="#CC9107" d="M8.037,116.938l16.709-9.525c-0.614-0.361-1.219-0.74-1.813-1.137l-16.28,9.28
			C7.103,116.025,7.563,116.486,8.037,116.938z"/>
		<path fill="#CC9107" d="M11.491,119.896l17.865-10.183c-0.717-0.297-1.426-0.615-2.124-0.957l-17.315,9.869
			C10.431,119.06,10.955,119.483,11.491,119.896z"/>
		<path fill="#CC9107" d="M32.331,110.779l-18.701,10.66c0.584,0.396,1.177,0.781,1.783,1.152l19.5-11.115
			C34.043,111.279,33.185,111.043,32.331,110.779z"/>
		<path fill="#CC9107" d="M42.155,112.277c-0.07,0-0.138,0.004-0.207,0.004c-1.097,0-2.187-0.077-3.271-0.191l-20.841,11.881
			c0.664,0.353,1.338,0.693,2.023,1.016L42.155,112.277z"/>
		<path fill="#CC9107" d="M38.67,16.936c-0.516,0.154-0.834,0.707-0.707,1.232h0.002c0.015,0.063,0.052,0.11,0.077,0.166h1.985
			L71.915,0.157h-3.809L38.67,16.936z"/>
		<polygon fill="#CC9107" points="48.671,18.334 80.283,0.316 80.283,0.157 76.758,0.157 44.865,18.334 		"/>
		<polygon fill="#CC9107" points="80.283,3.077 53.517,18.334 57.322,18.334 80.283,5.247 		"/>
		<polygon fill="#CC9107" points="62.166,18.334 65.97,18.334 80.283,10.175 80.283,8.007 		"/>
	</g>
	<g>
		<g>
			<path d="M41.77,129.896c-18.051,0-34.035-8.858-41.713-23.119L0,106.671l0.086-0.082L12.1,95.121l0.104,0.156
				c6.867,10.392,18.265,16.848,29.745,16.848c14.955,0,25.4-10.223,25.4-24.859c0-13.885-10.152-23.961-24.141-23.961
				c-9.151,0-17.512,4.348-22.366,11.629l-0.046,0.07H3.061l0.041-0.191c0.888-4.09,14.439-73.98,14.576-74.686L17.703,0H80.44
				v18.492H32.36l-6.358,34.265c4.436-4.546,11.478-7.043,19.905-7.043C70.297,45.713,88,63.037,88,86.905
				c0,12.259-4.725,23.31-13.303,31.116C66.283,125.679,54.59,129.896,41.77,129.896z M0.389,106.732
				c7.646,14.098,23.49,22.85,41.381,22.85c12.741,0,24.36-4.188,32.717-11.793c8.512-7.746,13.199-18.715,13.199-30.884
				c0-23.687-17.57-40.878-41.778-40.878c-8.574,0-15.692,2.603-20.041,7.328l-0.369,0.401l6.604-35.579h48.026V0.313H17.962
				C17.313,3.653,4.617,69.122,3.448,74.689h17.181c4.918-7.326,13.354-11.698,22.579-11.698c14.17,0,24.454,10.208,24.454,24.274
				c0,14.82-10.574,25.173-25.714,25.173c-11.526,0-22.968-6.446-29.903-16.832L0.389,106.732z"/>
		</g>
	</g>
</g>
</svg>
