<?xml version="1.0" standalone="no"?>
<!DOCTYPE svg PUBLIC "-//W3C//DTD SVG 1.1//EN" "http://www.w3.org/Graphics/SVG/1.1/DTD/svg11.dtd" >
<svg xmlns="http://www.w3.org/2000/svg">
<metadata></metadata>
<defs>
<font id="bebas_neuebook" horiz-adv-x="770" vert-adv-y="2048" >
<font-face units-per-em="2048" ascent="1536" descent="-512" />
<missing-glyph horiz-adv-x="317" />
<glyph horiz-adv-x="0" vert-adv-y="0" />
<glyph horiz-adv-x="682" />
<glyph horiz-adv-x="0" />
<glyph horiz-adv-x="0" />
<glyph unicode="&#xd;" horiz-adv-x="317" />
<glyph unicode=" "  horiz-adv-x="317" />
<glyph unicode="&#x09;" horiz-adv-x="317" />
<glyph unicode="&#xa0;" horiz-adv-x="317" />
<glyph unicode="!" horiz-adv-x="258" d="M82 686v750h94v-750l-12 -369h-70zM84 0v178h90v-178h-90z" />
<glyph unicode="&#x22;" horiz-adv-x="421" d="M82 1436h92l-12 -357h-70zM248 1436h92l-12 -357h-68z" />
<glyph unicode="#" horiz-adv-x="847" d="M63 455l7 69h135l49 465h-137l6 70h137l39 377h80l-39 -377h240l38 377h80l-39 -377h125l-6 -70h-125l-49 -465h125l-6 -69h-125l-49 -455h-80l49 455h-242l-47 -455h-79l49 455h-136zM285 524h239l49 465h-241z" />
<glyph unicode="$" horiz-adv-x="772" d="M78 352v80h90v-84q0 -266 217 -266t217 266q0 69 -28.5 127t-74.5 99.5t-101 80t-110 79.5t-101 87t-74.5 113t-28.5 147q0 329 264 355v123h80v-123q92 -8 153 -58t87 -124.5t26 -172.5v-32h-90v36q0 124 -51 195.5t-162 71.5q-213 0 -213 -265q0 -70 28.5 -129 t74.5 -101t101 -81t110 -80t101 -87t74.5 -111.5t28.5 -145.5q0 -150 -66 -246t-202 -106v-115h-80v115q-137 10 -203.5 104.5t-66.5 247.5z" />
<glyph unicode="%" horiz-adv-x="1239" d="M78 770v436q0 104 47 168t145 64q99 0 147 -63.5t48 -168.5v-436q0 -105 -48 -168t-147 -63q-98 0 -145 63.5t-47 167.5zM141 766q0 -75 30 -121.5t99 -46.5q67 0 98 47t31 121v442q0 76 -30.5 123t-98.5 47q-129 0 -129 -170v-442zM303 0l565 1436h62l-565 -1436h-62z M774 229v430q0 104 48 169t147 65t145.5 -64.5t46.5 -169.5v-430q0 -104 -46.5 -167.5t-145.5 -63.5t-147 63.5t-48 167.5zM840 225q0 -75 31 -122.5t98 -47.5q68 0 98.5 47.5t30.5 122.5v439q0 167 -129 167q-68 0 -98.5 -46t-30.5 -121v-439z" />
<glyph unicode="&#x26;" horiz-adv-x="825" d="M82 319v136q0 108 47 187t141 110q-95 28 -141.5 104.5t-46.5 185.5v35q0 175 86 266t258 91h203v-86h-203q-250 0 -250 -267v-57q0 -101 53 -167t144 -66h221v159h94v-159h78v-86h-78v-517q0 -50 1 -70.5t9.5 -55t26.5 -62.5h-98q-31 55 -31 137q-31 -73 -94.5 -110 t-147.5 -37q-137 0 -204.5 87.5t-67.5 241.5zM176 326q0 -117 52.5 -184.5t158.5 -67.5q93 0 150 52.5t57 147.5v431h-209q-100 0 -154.5 -68t-54.5 -180v-131z" />
<glyph unicode="'" horiz-adv-x="249" d="M80 1436h90l-10 -357h-70z" />
<glyph unicode="(" horiz-adv-x="473" d="M88 317v801q0 160 62 239t215 79h45v-80h-41q-106 0 -146.5 -59.5t-40.5 -178.5v-801q0 -120 40 -178.5t147 -58.5h41v-80h-45q-153 0 -215 79t-62 238z" />
<glyph unicode=")" horiz-adv-x="473" d="M63 0v80h41q107 0 148 59t41 178v801q0 118 -41.5 178t-147.5 60h-41v80h46q153 0 215.5 -79t62.5 -239v-801q0 -160 -62 -238.5t-216 -78.5h-46z" />
<glyph unicode="*" horiz-adv-x="806" d="M68 1143l24 76l291 -109l-21 313h80l-18 -313l291 104l24 -75l-303 -68l195 -242l-64 -47l-164 265l-163 -263l-66 45l197 242z" />
<glyph unicode="+" horiz-adv-x="794" d="M72 682v70h290v295h70v-295h293v-70h-293v-299h-70v299h-290z" />
<glyph unicode="," horiz-adv-x="274" d="M92 -154l41 154h-31v180h91v-172l-60 -162h-41z" />
<glyph unicode="-" horiz-adv-x="532" d="M78 674v86h377v-86h-377z" />
<glyph unicode="." horiz-adv-x="256" d="M82 0v180h92v-180h-92z" />
<glyph unicode="/" horiz-adv-x="759" d="M55 0l566 1434h84l-566 -1434h-84z" />
<glyph unicode="0" horiz-adv-x="780" d="M76 350v733q0 167 78.5 265t236.5 98t237 -98t79 -265v-733q0 -163 -79 -261.5t-237 -98.5t-236.5 98t-78.5 262zM170 346q0 -126 54 -199t167 -73t167 73t54 199v744q0 124 -54 197t-167 73t-167 -73t-54 -197v-744z" />
<glyph unicode="1" horiz-adv-x="575" d="M131 1153v82q98 7 154.5 59.5t89.5 141.5h74v-1436h-95v1274q-82 -109 -223 -121z" />
<glyph unicode="2" horiz-adv-x="772" d="M82 0v70q0 103 29 194t75 159t102 131t112 121.5t102 117.5t75 132t29 152q0 283 -219 283q-112 0 -163.5 -76t-51.5 -201v-98h-90v92q0 166 76 267.5t233 101.5q107 0 177.5 -49t101 -128.5t30.5 -187.5q0 -83 -29 -161t-75 -140.5t-102 -123.5t-112 -122.5t-102 -125 t-75 -142.5t-29 -164v-16h512v-86h-606z" />
<glyph unicode="3" horiz-adv-x="774" d="M78 350v82h90v-86q0 -125 52 -198.5t165 -73.5q217 0 217 278v111q0 114 -55 178t-158 64h-96v86h100q97 0 153 66.5t56 172.5v51q0 279 -217 279q-113 0 -165 -72.5t-52 -197.5v-58h-90v51q0 165 76 264t233 99t233 -99t76 -264v-34q0 -107 -49.5 -186t-140.5 -111 q95 -28 142.5 -104.5t47.5 -186.5v-111q0 -165 -76 -262.5t-233 -97.5t-233 97.5t-76 262.5z" />
<glyph unicode="4" horiz-adv-x="825" d="M63 317v89l476 1030h106v-1033h121v-86h-121v-317h-92v317h-490zM150 403h403v857z" />
<glyph unicode="5" horiz-adv-x="774" d="M78 350v78h90v-82q0 -123 53 -196.5t164 -73.5q113 0 166 73.5t53 196.5v242q0 123 -53 196.5t-166 73.5q-158 0 -205 -164v-24h-88l37 766h539v-88h-453l-27 -512q67 110 232 110q142 0 210 -95.5t68 -254.5v-246q0 -165 -76.5 -262.5t-234.5 -97.5q-157 0 -233 97.5 t-76 262.5z" />
<glyph unicode="6" horiz-adv-x="782" d="M76 350v729q0 170 78 268.5t239 98.5q157 0 233 -96t76 -260v-17h-90v23q0 123 -52 193.5t-165 70.5q-225 0 -225 -283v-332q78 132 256 132q144 0 213.5 -95.5t69.5 -255.5v-176q0 -163 -79 -261.5t-237 -98.5q-159 0 -238 98t-79 262zM170 346q0 -126 53.5 -198 t169.5 -72q113 0 167 72.5t54 197.5v174q0 123 -54 195.5t-167 72.5q-116 0 -169.5 -72.5t-53.5 -195.5v-174z" />
<glyph unicode="7" horiz-adv-x="774" d="M76 1348v88h622v-86l-403 -1350h-96l403 1348h-526z" />
<glyph unicode="8" horiz-adv-x="794" d="M72 342v102q0 123 44 200t148 108q-192 54 -192 301v45q0 164 82 256t243 92q158 0 242 -92.5t84 -255.5v-45q0 -247 -191 -301q191 -56 191 -308v-102q0 -163 -83 -257.5t-243 -94.5q-161 0 -243 93.5t-82 258.5zM166 344q0 -128 58.5 -199t172.5 -71q115 0 173.5 71.5 t58.5 198.5v109q0 252 -232 252q-231 0 -231 -252v-109zM166 1036q0 -245 231 -245q232 0 232 245v60q0 128 -58.5 196t-173.5 68q-231 0 -231 -264v-60z" />
<glyph unicode="9" horiz-adv-x="782" d="M74 909v174q0 166 78.5 265.5t236.5 99.5q159 0 237.5 -99t78.5 -266v-729q0 -168 -77.5 -266t-238.5 -98q-158 0 -235.5 96t-77.5 260v19h90v-23q0 -124 54 -196t167 -72q223 0 223 284v353q-35 -79 -96 -115.5t-158 -36.5q-144 0 -213 94.5t-69 255.5zM168 915 q0 -124 54 -197t167 -73t167 73t54 197v175q0 124 -54 197t-167 73t-167 -73t-54 -197v-175z" />
<glyph unicode=":" horiz-adv-x="256" d="M82 0v180h92v-180h-92zM82 780v181h92v-181h-92z" />
<glyph unicode=";" horiz-adv-x="274" d="M92 -154l41 154h-31v180h91v-172l-60 -162h-41zM102 780v181h91v-181h-91z" />
<glyph unicode="&#x3c;" horiz-adv-x="757" d="M74 682v70l602 274v-74l-510 -235l510 -236v-73z" />
<glyph unicode="=" horiz-adv-x="624" d="M78 586v69h469v-69h-469zM78 836v69h469v-69h-469z" />
<glyph unicode="&#x3e;" horiz-adv-x="757" d="M82 408v73l512 236l-512 235v74l602 -274v-70z" />
<glyph unicode="?" horiz-adv-x="743" d="M68 983v94q0 167 74 268t231 101q81 0 141 -27.5t95.5 -78t52 -115t16.5 -144.5q0 -89 -31 -166t-75 -133.5t-87.5 -112t-74.5 -125.5t-31 -149q0 -31 10 -76h-86q-10 45 -10 80q0 63 16 119.5t41.5 99.5t57 84.5t62.5 82.5t56.5 84t41.5 98.5t16 117.5q0 275 -213 275 q-76 0 -125 -38t-68.5 -98t-19.5 -141v-100h-90zM299 0v178h90v-178h-90z" />
<glyph unicode="@" horiz-adv-x="1409" d="M70 586q0 144 26 275.5t83.5 248t141 201.5t206.5 134.5t272 49.5q142 0 247.5 -42t170 -119.5t95.5 -182t31 -236.5q0 -158 -40 -298t-121.5 -232t-188.5 -92q-66 0 -101 38.5t-40 104.5q-65 -155 -221 -155q-60 1 -102.5 26t-63.5 69.5t-28 98.5t-1 119l21 203 q13 135 79 215.5t179 79.5q147 0 186 -146l14 135h84l-61 -585q-5 -50 13 -86.5t65 -36.5q72 0 124.5 55.5t79 143t38.5 173t12 168.5q0 241 -117 373.5t-358 132.5q-132 0 -240 -44t-182 -121t-124.5 -183.5t-73.5 -228.5t-23 -260q0 -600 559 -600q231 0 383 116l-7 -86 q-159 -106 -380 -106q-322 0 -479.5 177t-157.5 503zM520 594q-10 -102 23.5 -167t124.5 -65q88 0 136 64.5t60 167.5l23 199q10 94 -26 154.5t-124 60.5q-89 0 -138.5 -61t-59.5 -161z" />
<glyph unicode="A" horiz-adv-x="892" d="M61 0l314 1436h137l319 -1436h-94l-71 317h-447l-72 -317h-86zM233 399h418l-211 928z" />
<glyph unicode="B" horiz-adv-x="774" d="M82 0v1434h301q157 0 225 -76t68 -230v-81q0 -123 -42.5 -192t-146.5 -91q215 -43 215 -307v-125q0 -332 -313 -332h-307zM176 86h213q116 0 167.5 61.5t51.5 186.5v129q0 136 -61.5 194t-192.5 58h-178v-629zM176 801h160q133 0 189.5 48t56.5 179v92q0 118 -45 173 t-156 55h-205v-547z" />
<glyph unicode="C" horiz-adv-x="765" d="M76 350v733q0 165 76 264t233 99t233 -99t76 -264v-118h-90v125q0 124 -52 197t-165 73t-165 -73t-52 -197v-746q0 -124 52 -196t165 -72t165 72t52 196v170h90v-164q0 -165 -76 -262.5t-233 -97.5t-233 97.5t-76 262.5z" />
<glyph unicode="D" horiz-adv-x="788" d="M82 0v1434h315q160 0 239 -95.5t79 -261.5v-721q0 -166 -79 -261t-239 -95h-315zM176 86h219q117 0 171.5 70.5t54.5 195.5v729q0 124 -56 195.5t-170 71.5h-219v-1262z" />
<glyph unicode="E" horiz-adv-x="718" d="M82 0v1434h565v-86h-471v-578h391v-86h-391v-598h471v-86h-565z" />
<glyph unicode="F" horiz-adv-x="688" d="M82 0v1434h545v-86h-451v-613h371v-86h-371v-649h-94z" />
<glyph unicode="G" d="M76 350v733q0 165 76 264t233 99t233 -99t76 -264v-106h-90v113q0 124 -52 197t-165 73t-165 -73t-52 -197v-746q0 -124 52 -196t165 -72t165 72t52 196v309h-190v86h280v-389q0 -165 -76 -262.5t-233 -97.5t-233 97.5t-76 262.5z" />
<glyph unicode="H" horiz-adv-x="800" d="M82 0v1434h94v-674h447v674h96v-1434h-96v674h-447v-674h-94z" />
<glyph unicode="I" horiz-adv-x="258" d="M82 0v1434h94v-1434h-94z" />
<glyph unicode="J" horiz-adv-x="518" d="M59 0v86q10 -1 23 -1q25 0 61 3q105 8 154 67.5t49 190.5v1088h94v-1082q0 -181 -74 -263.5t-212 -88.5h-95z" />
<glyph unicode="K" horiz-adv-x="827" d="M82 0v1434h94v-758l467 758h98l-409 -668l436 -766h-98l-396 674l-98 -156v-518h-94z" />
<glyph unicode="L" horiz-adv-x="686" d="M82 0v1434h94v-1348h451v-86h-545z" />
<glyph unicode="M" horiz-adv-x="1034" d="M82 0v1434h135l301 -1268l299 1268h135v-1434h-90v1274l-299 -1272h-94l-303 1268v-1270h-84z" />
<glyph unicode="N" horiz-adv-x="800" d="M82 0v1434h123l430 -1211v1211h86v-1434h-105l-448 1278v-1278h-86z" />
<glyph unicode="O" horiz-adv-x="780" d="M76 350v733q0 164 78 263.5t235 99.5q159 0 238.5 -99.5t79.5 -263.5v-733q0 -164 -79.5 -262t-238.5 -98q-157 0 -235 98t-78 262zM170 344q0 -125 53 -197.5t166 -72.5t168 73t55 197v746q0 124 -55 197t-168 73t-166 -72.5t-53 -197.5v-746z" />
<glyph unicode="P" horiz-adv-x="749" d="M82 0v1434h297q307 0 307 -349v-155q0 -173 -80.5 -256.5t-251.5 -83.5h-178v-590h-94zM176 676h178q125 0 181.5 59t56.5 189v168q0 125 -48.5 190.5t-164.5 65.5h-203v-672z" />
<glyph unicode="Q" horiz-adv-x="835" d="M76 350v733q0 164 79 263.5t236 99.5t236.5 -99.5t79.5 -263.5v-733q0 -157 -68 -248q33 -57 113 -57h22v-82h-24q-116 0 -170 82q-74 -55 -189 -55q-158 0 -236.5 98t-78.5 262zM170 344q0 -124 54 -197t167 -73t167 73t54 197v746q0 124 -54 197t-167 73t-167 -73 t-54 -197v-746z" />
<glyph unicode="R" horiz-adv-x="790" d="M82 0v1434h299q307 0 307 -324v-125q0 -250 -207 -297q207 -46 207 -293v-223q0 -119 35 -172h-98q-31 53 -31 172v225q0 135 -68 189.5t-200 54.5h-150v-641h-94zM176 727h152q136 0 201 51.5t65 188.5v135q0 121 -51 183.5t-164 62.5h-203v-621z" />
<glyph unicode="S" horiz-adv-x="757" d="M70 346v74h90v-80q0 -123 52 -193.5t165 -70.5t165 70.5t52 193.5q0 70 -28.5 129t-74.5 101.5t-101 83t-110 82.5t-101 89.5t-74.5 115.5t-28.5 149q0 168 75 262t230 94h3q153 0 227 -96q75 -98 75 -263v-30h-90v37q0 122 -51 194t-162 72q-213 0 -213 -264 q0 -70 28.5 -129.5t74.5 -103t101 -84.5t110 -83t101 -89.5t74.5 -114t28.5 -146.5q0 -164 -76 -260t-233 -96t-233 96t-76 260z" />
<glyph unicode="T" horiz-adv-x="755" d="M37 1348v86h678v-86h-291v-1348h-94v1348h-293z" />
<glyph unicode="U" d="M78 350v1084h94v-1088q0 -126 51.5 -199t163.5 -73t163.5 73t51.5 199v1088h88v-1084q0 -165 -74 -262.5t-231 -97.5q-80 0 -140 27t-96 76.5t-53.5 113.5t-17.5 143z" />
<glyph unicode="V" horiz-adv-x="888" d="M61 1434h97l291 -1325l290 1325h88l-311 -1434h-139z" />
<glyph unicode="W" horiz-adv-x="1234" d="M63 1434h93l215 -1307l209 1300h100l201 -1296l206 1303h84l-229 -1434h-123l-192 1174l-201 -1174h-131z" />
<glyph unicode="X" horiz-adv-x="901" d="M63 0l324 743l-301 691h98l271 -617l272 617h90l-301 -691l322 -743h-101l-291 668l-290 -668h-93z" />
<glyph unicode="Y" horiz-adv-x="849" d="M55 1434h99l274 -754l274 754h93l-324 -883v-551h-94v551z" />
<glyph unicode="Z" horiz-adv-x="794" d="M70 0v86l555 1262h-529v86h627v-88l-555 -1260h547v-86h-645z" />
<glyph unicode="[" horiz-adv-x="475" d="M88 0v1436h320v-80h-226v-1276h226v-80h-320z" />
<glyph unicode="\" horiz-adv-x="759" d="M55 1434h84l566 -1434h-84z" />
<glyph unicode="]" horiz-adv-x="475" d="M70 0v80h225v1276h-225v80h319v-1436h-319z" />
<glyph unicode="^" horiz-adv-x="837" d="M68 801l315 633h72l315 -633h-80l-272 545l-271 -545h-79z" />
<glyph unicode="_" horiz-adv-x="1050" d="M53 -18h932v-72h-932v72z" />
<glyph unicode="`" horiz-adv-x="403" d="M84 1737h102l146 -195h-74z" />
<glyph unicode="a" horiz-adv-x="892" d="M61 0l314 1436h137l319 -1436h-94l-71 317h-447l-72 -317h-86zM233 399h418l-211 928z" />
<glyph unicode="b" horiz-adv-x="774" d="M82 0v1434h301q157 0 225 -76t68 -230v-81q0 -123 -42.5 -192t-146.5 -91q215 -43 215 -307v-125q0 -332 -313 -332h-307zM176 86h213q116 0 167.5 61.5t51.5 186.5v129q0 136 -61.5 194t-192.5 58h-178v-629zM176 801h160q133 0 189.5 48t56.5 179v92q0 118 -45 173 t-156 55h-205v-547z" />
<glyph unicode="c" horiz-adv-x="765" d="M76 350v733q0 165 76 264t233 99t233 -99t76 -264v-118h-90v125q0 124 -52 197t-165 73t-165 -73t-52 -197v-746q0 -124 52 -196t165 -72t165 72t52 196v170h90v-164q0 -165 -76 -262.5t-233 -97.5t-233 97.5t-76 262.5z" />
<glyph unicode="d" horiz-adv-x="788" d="M82 0v1434h315q160 0 239 -95.5t79 -261.5v-721q0 -166 -79 -261t-239 -95h-315zM176 86h219q117 0 171.5 70.5t54.5 195.5v729q0 124 -56 195.5t-170 71.5h-219v-1262z" />
<glyph unicode="e" horiz-adv-x="718" d="M82 0v1434h565v-86h-471v-578h391v-86h-391v-598h471v-86h-565z" />
<glyph unicode="f" horiz-adv-x="688" d="M82 0v1434h545v-86h-451v-613h371v-86h-371v-649h-94z" />
<glyph unicode="g" d="M76 350v733q0 165 76 264t233 99t233 -99t76 -264v-106h-90v113q0 124 -52 197t-165 73t-165 -73t-52 -197v-746q0 -124 52 -196t165 -72t165 72t52 196v309h-190v86h280v-389q0 -165 -76 -262.5t-233 -97.5t-233 97.5t-76 262.5z" />
<glyph unicode="h" horiz-adv-x="800" d="M82 0v1434h94v-674h447v674h96v-1434h-96v674h-447v-674h-94z" />
<glyph unicode="i" horiz-adv-x="258" d="M82 0v1434h94v-1434h-94z" />
<glyph unicode="j" horiz-adv-x="518" d="M59 0v86q10 -1 23 -1q25 0 61 3q105 8 154 67.5t49 190.5v1088h94v-1082q0 -181 -74 -263.5t-212 -88.5h-95z" />
<glyph unicode="k" horiz-adv-x="827" d="M82 0v1434h94v-758l467 758h98l-409 -668l436 -766h-98l-396 674l-98 -156v-518h-94z" />
<glyph unicode="l" horiz-adv-x="686" d="M82 0v1434h94v-1348h451v-86h-545z" />
<glyph unicode="m" horiz-adv-x="1034" d="M82 0v1434h135l301 -1268l299 1268h135v-1434h-90v1274l-299 -1272h-94l-303 1268v-1270h-84z" />
<glyph unicode="n" horiz-adv-x="800" d="M82 0v1434h123l430 -1211v1211h86v-1434h-105l-448 1278v-1278h-86z" />
<glyph unicode="o" horiz-adv-x="780" d="M76 350v733q0 164 78 263.5t235 99.5q159 0 238.5 -99.5t79.5 -263.5v-733q0 -164 -79.5 -262t-238.5 -98q-157 0 -235 98t-78 262zM170 344q0 -125 53 -197.5t166 -72.5t168 73t55 197v746q0 124 -55 197t-168 73t-166 -72.5t-53 -197.5v-746z" />
<glyph unicode="p" horiz-adv-x="745" d="M82 0v1434h297q307 0 307 -349v-155q0 -173 -80.5 -256.5t-251.5 -83.5h-178v-590h-94zM176 676h178q125 0 181.5 59t56.5 189v168q0 125 -48.5 190.5t-164.5 65.5h-203v-672z" />
<glyph unicode="q" horiz-adv-x="796" d="M76 350v733q0 164 79 263.5t236 99.5t236.5 -99.5t79.5 -263.5v-733q0 -157 -68 -248q33 -57 113 -57h22v-82h-24q-116 0 -170 82q-74 -55 -189 -55q-158 0 -236.5 98t-78.5 262zM170 344q0 -124 54 -197t167 -73t167 73t54 197v746q0 124 -54 197t-167 73t-167 -73 t-54 -197v-746z" />
<glyph unicode="r" horiz-adv-x="790" d="M82 0v1434h299q307 0 307 -324v-125q0 -250 -207 -297q207 -46 207 -293v-223q0 -119 35 -172h-98q-31 53 -31 172v225q0 135 -68 189.5t-200 54.5h-150v-641h-94zM176 727h152q136 0 201 51.5t65 188.5v135q0 121 -51 183.5t-164 62.5h-203v-621z" />
<glyph unicode="s" horiz-adv-x="757" d="M70 346v74h90v-80q0 -123 52 -193.5t165 -70.5t165 70.5t52 193.5q0 70 -28.5 129t-74.5 101.5t-101 83t-110 82.5t-101 89.5t-74.5 115.5t-28.5 149q0 168 75 262t230 94h3q153 0 227 -96q75 -98 75 -263v-30h-90v37q0 122 -51 194t-162 72q-213 0 -213 -264 q0 -70 28.5 -129.5t74.5 -103t101 -84.5t110 -83t101 -89.5t74.5 -114t28.5 -146.5q0 -164 -76 -260t-233 -96t-233 96t-76 260z" />
<glyph unicode="t" horiz-adv-x="745" d="M33 1348v86h678v-86h-293v-1348h-94v1348h-291z" />
<glyph unicode="u" d="M78 350v1084h94v-1088q0 -126 51.5 -199t163.5 -73t163.5 73t51.5 199v1088h88v-1084q0 -165 -74 -262.5t-231 -97.5q-80 0 -140 27t-96 76.5t-53.5 113.5t-17.5 143z" />
<glyph unicode="v" horiz-adv-x="888" d="M61 1434h97l291 -1325l290 1325h88l-311 -1434h-139z" />
<glyph unicode="w" horiz-adv-x="1234" d="M63 1434h93l215 -1307l209 1300h100l201 -1296l206 1303h84l-229 -1434h-123l-192 1174l-201 -1174h-131z" />
<glyph unicode="x" horiz-adv-x="901" d="M63 0l324 743l-301 691h98l271 -617l272 617h90l-301 -691l322 -743h-101l-291 668l-290 -668h-93z" />
<glyph unicode="y" horiz-adv-x="849" d="M55 1434h99l274 -754l274 754h93l-324 -883v-551h-94v551z" />
<glyph unicode="z" horiz-adv-x="794" d="M70 0v86l555 1262h-529v86h627v-88l-555 -1260h547v-86h-645z" />
<glyph unicode="{" horiz-adv-x="524" d="M61 674v86q42 6 67.5 19t38 39t16.5 50.5t7 71.5l15 283q10 213 180 213h76v-80h-45q-70 0 -96 -43t-29 -127l-12 -258q-1 -33 -4 -56.5t-11.5 -50t-22.5 -44.5t-38 -34t-58 -26q79 -23 104.5 -73.5t29.5 -137.5l12 -256q3 -87 29 -128.5t96 -41.5h45v-80h-76 q-92 0 -133.5 55t-46.5 158l-15 281q-3 48 -7 73t-16.5 50.5t-38 38t-67.5 18.5z" />
<glyph unicode="|" horiz-adv-x="512" d="M221 -45v1528h78v-1528h-78z" />
<glyph unicode="}" horiz-adv-x="524" d="M63 0v80h48q68 0 92.5 41t29.5 129l15 256q2 36 5 57.5t11 49t21.5 45t37.5 33.5t58 26q-34 10 -58 26t-37.5 33.5t-21.5 45t-11 49t-5 57.5l-15 258q-5 88 -29.5 129t-92.5 41h-48v80h76q170 0 180 -213l15 -283q3 -46 7.5 -72t17.5 -51t39 -38t67 -19v-86 q-79 -11 -102.5 -50t-28.5 -130l-15 -281q-5 -103 -46.5 -158t-133.5 -55h-76z" />
<glyph unicode="~" horiz-adv-x="813" d="M57 674q45 73 91 106.5t106 34.5q41 1 87.5 -19t81 -44.5t76.5 -44t74 -17.5q39 1 67 28t65 83l49 -47q-43 -69 -85 -103t-94 -37q-41 -3 -86.5 16.5t-79.5 44t-77.5 45.5t-79.5 21q-45 0 -78.5 -26.5t-67.5 -83.5z" />
<glyph unicode="&#xa1;" horiz-adv-x="258" d="M82 0v668l12 450h70l12 -450v-668h-94zM84 1255v181h90v-181h-90z" />
<glyph unicode="&#xa2;" horiz-adv-x="772" d="M80 446v543q0 99 26 174.5t87 126t153 58.5v96h80v-96q137 -12 203.5 -104.5t66.5 -244.5v-65h-90v70q0 260 -217 260q-111 0 -163 -72.5t-52 -196.5v-553q0 -124 52 -197t163 -73q113 0 165 71.5t52 194.5v113h90v-107q0 -155 -66.5 -249.5t-203.5 -106.5v-96h-80v96 q-92 8 -153 58.5t-87 125.5t-26 174z" />
<glyph unicode="&#xa3;" horiz-adv-x="790" d="M74 0v84q99 75 158.5 180.5t43.5 227.5h-176v75h162q-17 52 -48.5 118t-55 113t-42 122.5t-18.5 160.5q0 166 74.5 265.5t233.5 99.5q155 0 228 -101.5t73 -267.5v-88h-89v92q0 125 -50 202t-160 77q-215 0 -215 -275q0 -85 19 -160.5t43 -122.5t54 -113t45 -122h301v-75 h-293q12 -94 -25 -188.5t-144 -217.5h518v-86h-637z" />
<glyph unicode="&#xa4;" horiz-adv-x="714" d="M76 477l96 94q-49 64 -49 146t49 143l-96 96l41 41l98 -96q61 49 141 49q82 0 146 -49l96 96l41 -41l-98 -96q51 -60 51 -143q0 -84 -51 -144l98 -96l-41 -41l-96 94q-59 -47 -146 -47q-78 0 -143 47l-96 -94zM184 717q0 -72 50.5 -122t121.5 -50q72 0 123 50t51 122 t-51 122t-123 50q-71 0 -121.5 -50t-50.5 -122z" />
<glyph unicode="&#xa5;" horiz-adv-x="882" d="M57 1434h101l286 -766l289 766h90l-329 -873h217v-53h-224v-150h224v-53h-224v-305h-94v305h-221v53h221v150h-221v53h213z" />
<glyph unicode="&#xa6;" horiz-adv-x="514" d="M221 -45v641h80v-641h-80zM221 838v643h80v-643h-80z" />
<glyph unicode="&#xa7;" horiz-adv-x="774" d="M80 125v68h88v-58q0 -90 63 -140t156 -50q86 0 149 44.5t66 125.5q2 52 -25.5 91.5t-73.5 66.5t-101.5 51t-112 52t-103 62.5t-75.5 90t-29 126.5q0 95 61.5 164.5t155.5 102.5q-105 49 -162.5 110t-56.5 160q3 119 90 186.5t221 67.5q133 -2 216 -72.5t83 -189.5v-39 h-90v26q0 90 -59 142.5t-148 52.5q-92 2 -154 -43.5t-65 -134.5q-2 -44 19.5 -79.5t57.5 -59.5t83 -48t96.5 -44.5t96.5 -49.5t84.5 -62t60 -84t22.5 -114q0 -94 -53.5 -163t-144.5 -109q99 -49 150 -107t50 -157q-3 -111 -91 -178.5t-216 -67.5q-137 0 -223 69t-86 191z M172 659q0 -29 9 -55t19 -44.5t34.5 -39.5t37.5 -31t47.5 -28t45.5 -23t49 -22q84 25 137 83t53 144q0 45 -17.5 82.5t-51 66t-67.5 48.5t-81 41q-87 -13 -151 -74t-64 -148z" />
<glyph unicode="&#xa8;" horiz-adv-x="389" d="M139 1526v174h111v-174h-111z" />
<glyph unicode="&#xa9;" horiz-adv-x="1531" d="M68 717q0 152 53 285t144.5 228t221.5 149.5t279 54.5t279 -54.5t221.5 -149.5t144.5 -228t53 -285t-53 -285t-144.5 -228t-221.5 -149.5t-279 -54.5t-279 54.5t-221.5 149.5t-144.5 228t-53 285zM133 717q0 -184 80.5 -333t226 -235t326.5 -86t326 86t225 235t80 333 t-80 333t-225 234.5t-326 85.5t-326.5 -85.5t-226 -234.5t-80.5 -333zM541 518v395q0 115 53.5 183.5t163.5 68.5q108 0 160.5 -68t52.5 -184v-49h-66v54q0 184 -147 184q-76 0 -112 -50.5t-36 -133.5v-402q0 -83 36 -133.5t112 -50.5q147 0 147 184v76h66v-74 q0 -115 -52.5 -183.5t-160.5 -68.5q-110 0 -163.5 68.5t-53.5 183.5z" />
<glyph unicode="&#xaa;" horiz-adv-x="559" d="M74 874v7q0 56 20.5 99t53.5 68.5t79 42t91.5 22t97.5 5.5v111q0 74 -26 114.5t-93 40.5q-131 0 -131 -161v-25h-62v23q0 105 47.5 164t147.5 59q180 0 180 -223v-533h-55l-4 127q-45 -137 -174 -137q-85 0 -128.5 51t-43.5 145zM78 485v64h401v-64h-401zM139 879 q0 -142 127 -142q67 0 104.5 48.5t45.5 121.5v160q-75 0 -134.5 -15.5t-101 -57t-41.5 -105.5v-10z" />
<glyph unicode="&#xab;" horiz-adv-x="583" d="M63 719l136 502h86l-133 -502l133 -512h-86zM301 719l133 502h86l-133 -502l133 -512h-86z" />
<glyph unicode="&#xac;" horiz-adv-x="778" d="M72 682v70h635v-344h-70v274h-565z" />
<glyph unicode="&#xad;" horiz-adv-x="532" d="M78 674v86h377v-86h-377z" />
<glyph unicode="&#xae;" horiz-adv-x="1531" d="M68 717q0 152 53 285t144.5 228t221.5 149.5t279 54.5t279 -54.5t221.5 -149.5t144.5 -228t53 -285t-53 -285t-144.5 -228t-221.5 -149.5t-279 -54.5t-279 54.5t-221.5 149.5t-144.5 228t-53 285zM133 717q0 -184 80.5 -333t226 -235t326.5 -86t326 86t225 235t80 333 t-80 333t-225 234.5t-326 85.5t-326.5 -85.5t-226 -234.5t-80.5 -333zM563 279v876h211q112 0 163.5 -57.5t51.5 -169.5v-27q0 -165 -131 -207q70 -23 100.5 -72t30.5 -130v-95q0 -84 25 -118h-72q-22 40 -22 120v95q0 94 -48 129.5t-141 35.5h-98v-380h-70zM633 725h117 q89 0 129.5 37t40.5 127v31q0 86 -34 128t-116 42h-137v-365z" />
<glyph unicode="&#xaf;" horiz-adv-x="518" d="M59 1530v69h398v-69h-398z" />
<glyph unicode="&#xb0;" horiz-adv-x="430" d="M63 1300q0 63 44.5 106.5t107.5 43.5t107.5 -43.5t44.5 -106.5t-44.5 -106t-107.5 -43t-107.5 43t-44.5 106zM113 1300q0 -43 29.5 -71.5t72.5 -28.5q42 0 72 29t30 71t-30 71.5t-72 29.5q-43 0 -72.5 -29t-29.5 -72z" />
<glyph unicode="&#xb1;" horiz-adv-x="794" d="M78 383v72h284v241h-284v72h284v279h70v-279h285v-72h-285v-241h285v-72h-639z" />
<glyph unicode="&#xb2;" horiz-adv-x="555" d="M84 719v47q0 65 18.5 122t47.5 100t64.5 82.5t71 76.5t64.5 74.5t47.5 84t18.5 97.5q0 176 -135 176q-71 0 -103.5 -47.5t-32.5 -126.5v-62h-61v60q0 105 49 170t150 65q103 0 150.5 -63t47.5 -170q0 -53 -18.5 -102.5t-48 -89t-65 -78l-71 -77t-65 -78.5t-48 -90 t-18.5 -104v-8h324v-59h-387z" />
<glyph unicode="&#xb3;" horiz-adv-x="555" d="M80 940v51h61v-55q0 -77 32.5 -122.5t102.5 -45.5q136 0 136 174v70q0 69 -34 109t-99 40h-62v60h64q58 0 94.5 44t36.5 107v33q0 174 -136 174q-70 0 -102.5 -45.5t-32.5 -122.5v-37h-61v33q0 106 49 168.5t150 62.5q100 0 148 -62.5t48 -168.5v-23q0 -143 -115 -188 q115 -45 115 -184v-72q0 -106 -48 -168.5t-148 -62.5q-101 0 -150 62.5t-49 168.5z" />
<glyph unicode="&#xb4;" horiz-adv-x="403" d="M72 1542l147 195h96l-172 -195h-71z" />
<glyph unicode="&#xb5;" horiz-adv-x="817" d="M98 -186v1210h95v-674q0 -125 51.5 -197.5t161.5 -72.5t162.5 73t52.5 197v674h94v-1024h-86v186q-27 -92 -87.5 -142t-150.5 -50q-81 0 -131 41t-70 112l3 -333h-95z" />
<glyph unicode="&#xb6;" horiz-adv-x="811" d="M49 932v162q0 166 64 253t221 87h373v-1559h-72v1487h-256v-1487h-72v717q-137 6 -197.5 90.5t-60.5 249.5z" />
<glyph unicode="&#xb7;" horiz-adv-x="256" d="M82 647v180h92v-180h-92z" />
<glyph unicode="&#xb8;" horiz-adv-x="505" d="M72 -172h67v-10q0 -41 35 -61.5t78 -20.5q46 -2 79.5 19t33.5 65q0 78 -117 78h-15v112h48v-88q74 -2 113.5 -24.5t39.5 -79.5q0 -123 -182 -123q-76 0 -128 29t-52 92v12z" />
<glyph unicode="&#xb9;" horiz-adv-x="364" d="M72 1454v51q62 4 96 35.5t55 87.5h51v-909h-65v805q-52 -61 -137 -70z" />
<glyph unicode="&#xba;" horiz-adv-x="561" d="M78 903v309q0 105 51 168.5t152 63.5t151.5 -63.5t50.5 -168.5v-309q0 -105 -50.5 -168t-151.5 -63q-102 0 -152.5 63t-50.5 168zM80 487v64h403v-64h-403zM141 899q0 -77 34.5 -122.5t105.5 -45.5q70 0 103.5 45.5t33.5 122.5v318q0 77 -33.5 122t-103.5 45 q-72 0 -106 -45t-34 -122v-318z" />
<glyph unicode="&#xbb;" horiz-adv-x="583" d="M63 207l134 512l-134 502h87l135 -502l-135 -512h-87zM301 207l131 512l-131 502h86l133 -502l-133 -512h-86z" />
<glyph unicode="&#xbc;" horiz-adv-x="1081" d="M100 1311q62 4 97.5 36t54.5 87h51v-910h-65v805q-50 -60 -136 -69zM231 0l566 1434h59l-565 -1434h-60zM565 197v59l301 653h74v-653h74v-59h-74v-197h-63v197h-312zM627 256h250v530z" />
<glyph unicode="&#xbd;" horiz-adv-x="1173" d="M100 1311q62 4 97.5 36t54.5 87h51v-910h-65v805q-50 -60 -136 -69zM209 0l565 1434h62l-566 -1434h-61zM700 0v47q0 65 18.5 122t48 100t65 82.5t71 76.5t65 74.5t48 84t18.5 97.5q0 176 -135 176q-71 0 -104 -47.5t-33 -126.5v-61h-62v59q0 106 49 171t150 65 q103 0 151 -63.5t48 -170.5q0 -53 -18.5 -101.5t-47.5 -88t-64.5 -77.5t-71 -76.5t-64.5 -78t-47.5 -90t-18.5 -104.5v-11h321v-59h-387z" />
<glyph unicode="&#xbe;" horiz-adv-x="1183" d="M80 745v52h61v-56q0 -77 32.5 -122.5t102.5 -45.5q136 0 136 175v69q0 69 -34 109.5t-99 40.5h-62v59h64q58 0 94.5 44.5t36.5 107.5v32q0 174 -136 174q-70 0 -102.5 -45t-32.5 -122v-37h-61v32q0 106 49 169t150 63q100 0 148 -63t48 -169v-22q0 -144 -115 -189 q115 -45 115 -184v-72q0 -106 -48 -168.5t-148 -62.5q-101 0 -150 62.5t-49 168.5zM340 0l565 1434h62l-566 -1434h-61zM668 197v59l301 653h73v-653h74v-59h-74v-197h-65v197h-309zM729 256h248v530z" />
<glyph unicode="&#xbf;" horiz-adv-x="743" d="M63 352q0 89 31 166t75 133.5t87.5 112t74.5 125.5t31 149q0 43 -8 76h84q13 -41 13 -80q0 -63 -16 -119t-42 -99.5t-57.5 -85t-62.5 -82.5t-57 -84t-42 -98.5t-16 -117.5q0 -274 215 -274q76 0 125 38t68.5 97.5t19.5 140.5v101h90v-95q0 -167 -74 -266.5t-231 -99.5 q-159 0 -233.5 98t-74.5 264zM352 1255v179h92v-179h-92z" />
<glyph unicode="&#xc0;" horiz-adv-x="892" d="M61 0l314 1436h137l319 -1436h-94l-71 317h-447l-72 -317h-86zM233 399h418l-211 928zM276 1704h103l145 -195h-73z" />
<glyph unicode="&#xc1;" horiz-adv-x="892" d="M61 0l314 1436h137l319 -1436h-94l-71 317h-447l-72 -317h-86zM233 399h418l-211 928zM350 1511l146 195h98l-172 -195h-72z" />
<glyph unicode="&#xc2;" horiz-adv-x="892" d="M61 0l314 1436h137l319 -1436h-94l-71 317h-447l-72 -317h-86zM229 1509l172 185h82l174 -185h-90l-125 129l-125 -129h-88zM233 399h418l-211 928z" />
<glyph unicode="&#xc3;" horiz-adv-x="892" d="M61 0l314 1436h137l319 -1436h-94l-71 317h-447l-72 -317h-86zM219 1569q45 98 129 98q40 1 102 -35t89 -35q45 0 75 64l52 -35q-43 -93 -119 -96q-39 -2 -99.5 32.5t-91.5 34.5q-52 0 -86 -61zM233 399h418l-211 928z" />
<glyph unicode="&#xc4;" horiz-adv-x="892" d="M61 0l314 1436h137l319 -1436h-94l-71 317h-447l-72 -317h-86zM233 399h418l-211 928zM301 1509v172h84v-172h-84zM500 1509v172h84v-172h-84z" />
<glyph unicode="&#xc5;" horiz-adv-x="892" d="M61 0l314 1436h137l319 -1436h-94l-71 317h-447l-72 -317h-86zM233 399h418l-211 928zM305 1651q0 57 38.5 96t98.5 39q57 0 97.5 -39t40.5 -96q0 -59 -40 -98.5t-98 -39.5q-60 0 -98.5 39t-38.5 99zM354 1651q0 -38 25.5 -62t62.5 -24q36 0 62 24.5t26 61.5q0 36 -26 60 t-62 24q-37 0 -62.5 -24t-25.5 -60z" />
<glyph unicode="&#xc6;" horiz-adv-x="1206" d="M55 0l510 1434h568v-86h-418v-578h346v-86h-346v-598h418v-86h-512v322h-359l-117 -322h-90zM287 406h334v911z" />
<glyph unicode="&#xc7;" horiz-adv-x="765" d="M76 350v733q0 165 76 264t233 99t233 -99t76 -264v-118h-90v125q0 124 -52 197t-165 73t-165 -73t-52 -197v-746q0 -124 52 -196t165 -72t165 72t52 196v170h90v-164q0 -158 -70 -255.5t-216 -104.5v-58q73 -2 113 -31t40 -83q0 -63 -48 -97.5t-134 -33.5 q-86 0 -133 33.5t-47 95.5v12h65v-10q0 -35 30.5 -57t84.5 -23q54 -3 85.5 20t31.5 62q0 36 -32 56t-91 20h-15v96q-144 6 -213 102.5t-69 255.5z" />
<glyph unicode="&#xc8;" horiz-adv-x="718" d="M82 0v1434h565v-86h-471v-578h391v-86h-391v-598h471v-86h-565zM211 1724h102l146 -194h-76z" />
<glyph unicode="&#xc9;" horiz-adv-x="718" d="M82 0v1434h565v-86h-471v-578h391v-86h-391v-598h471v-86h-565zM289 1516l145 194h98l-172 -194h-71z" />
<glyph unicode="&#xca;" horiz-adv-x="718" d="M82 0v1434h565v-86h-471v-578h391v-86h-391v-598h471v-86h-565zM150 1518l172 184h81l175 -184h-91l-125 131l-124 -131h-88z" />
<glyph unicode="&#xcb;" horiz-adv-x="718" d="M82 0v1434h565v-86h-471v-578h391v-86h-391v-598h471v-86h-565zM223 1516v174h82v-174h-82zM420 1516v174h84v-174h-84z" />
<glyph unicode="&#xcc;" horiz-adv-x="258" d="M-47 1710h98l146 -194h-74zM82 0v1434h94v-1434h-94z" />
<glyph unicode="&#xcd;" horiz-adv-x="258" d="M51 1518l146 194h98l-172 -194h-72zM82 0v1434h94v-1434h-94z" />
<glyph unicode="&#xce;" horiz-adv-x="258" d="M-82 1516l170 184h82l172 -184h-88l-125 131l-125 -131h-86zM82 0v1434h94v-1434h-94z" />
<glyph unicode="&#xcf;" horiz-adv-x="258" d="M-10 1518v172h82v-172h-82zM82 0v1434h94v-1434h-94zM186 1518v172h84v-172h-84z" />
<glyph unicode="&#xd0;" horiz-adv-x="788" d="M-10 678v78h92v678h315q160 0 239 -95.5t79 -261.5v-721q0 -166 -79 -261t-239 -95h-315v678h-92zM176 86h219q117 0 171.5 70.5t54.5 195.5v729q0 124 -56 195.5t-170 71.5h-219v-592h182v-78h-182v-592z" />
<glyph unicode="&#xd1;" horiz-adv-x="800" d="M82 0v1434h123l430 -1211v1211h86v-1434h-105l-448 1278v-1278h-86zM180 1585q42 98 127 98q38 1 101 -34.5t90 -32.5q46 0 77 61l50 -35q-42 -96 -119 -96q-40 -1 -100 33.5t-91 34.5q-51 0 -86 -62z" />
<glyph unicode="&#xd2;" horiz-adv-x="780" d="M76 350v733q0 164 78 263.5t235 99.5q159 0 238.5 -99.5t79.5 -263.5v-733q0 -164 -79.5 -262t-238.5 -98q-157 0 -235 98t-78 262zM170 344q0 -125 53 -197.5t166 -72.5t168 73t55 197v746q0 124 -55 197t-168 73t-166 -72.5t-53 -197.5v-746zM221 1724h103l145 -194 h-76z" />
<glyph unicode="&#xd3;" horiz-adv-x="780" d="M76 350v733q0 164 78 263.5t235 99.5q159 0 238.5 -99.5t79.5 -263.5v-733q0 -164 -79.5 -262t-238.5 -98q-157 0 -235 98t-78 262zM170 344q0 -125 53 -197.5t166 -72.5t168 73t55 197v746q0 124 -55 197t-168 73t-166 -72.5t-53 -197.5v-746zM311 1530l146 194h98 l-172 -194h-72z" />
<glyph unicode="&#xd4;" horiz-adv-x="780" d="M76 350v733q0 164 78 263.5t235 99.5q159 0 238.5 -99.5t79.5 -263.5v-733q0 -164 -79.5 -262t-238.5 -98q-157 0 -235 98t-78 262zM170 344q0 -125 53 -197.5t166 -72.5t168 73t55 197v746q0 124 -55 197t-168 73t-166 -72.5t-53 -197.5v-746zM176 1526l172 184h82 l172 -184h-88l-125 131l-125 -131h-88z" />
<glyph unicode="&#xd5;" horiz-adv-x="780" d="M76 350v733q0 164 78 263.5t235 99.5q159 0 238.5 -99.5t79.5 -263.5v-733q0 -164 -79.5 -262t-238.5 -98q-157 0 -235 98t-78 262zM170 344q0 -125 53 -197.5t166 -72.5t168 73t55 197v746q0 124 -55 197t-168 73t-166 -72.5t-53 -197.5v-746zM174 1581q47 96 129 96 q40 0 101.5 -34t89.5 -33q47 0 75 61l52 -33q-42 -98 -119 -98q-40 -1 -100 34.5t-91 35.5q-56 0 -86 -64z" />
<glyph unicode="&#xd6;" horiz-adv-x="780" d="M76 350v733q0 164 78 263.5t235 99.5q159 0 238.5 -99.5t79.5 -263.5v-733q0 -164 -79.5 -262t-238.5 -98q-157 0 -235 98t-78 262zM170 344q0 -125 53 -197.5t166 -72.5t168 73t55 197v746q0 124 -55 197t-168 73t-166 -72.5t-53 -197.5v-746zM248 1526v174h84v-174h-84 zM446 1526v174h84v-174h-84z" />
<glyph unicode="&#xd7;" horiz-adv-x="690" d="M80 500l217 215l-215 215l47 49l217 -215l215 215l47 -47l-215 -217l215 -215l-47 -49l-215 217l-217 -217z" />
<glyph unicode="&#xd8;" horiz-adv-x="780" d="M76 350v733q0 164 78 263.5t235 99.5q139 0 221 -82l39 100l45 -16l-47 -127q60 -92 60 -238v-733q0 -164 -79.5 -262t-238.5 -98q-142 0 -219 80l-41 -103l-47 17l51 133q-57 86 -57 233zM170 344q0 -49 10 -104l393 1026q-58 94 -184 94q-113 0 -166 -72.5t-53 -197.5 v-746zM207 170q57 -96 182 -96q113 0 168 73t55 197v746q0 58 -12 110z" />
<glyph unicode="&#xd9;" d="M78 350v1084h94v-1088q0 -126 51.5 -199t163.5 -73t163.5 73t51.5 199v1088h88v-1084q0 -165 -74 -262.5t-231 -97.5q-80 0 -140 27t-96 76.5t-53.5 113.5t-17.5 143zM215 1712h102l146 -194h-76z" />
<glyph unicode="&#xda;" d="M78 350v1084h94v-1088q0 -126 51.5 -199t163.5 -73t163.5 73t51.5 199v1088h88v-1084q0 -165 -74 -262.5t-231 -97.5q-80 0 -140 27t-96 76.5t-53.5 113.5t-17.5 143zM319 1530l146 194h98l-172 -194h-72z" />
<glyph unicode="&#xdb;" d="M78 350v1084h94v-1088q0 -126 51.5 -199t163.5 -73t163.5 73t51.5 199v1088h88v-1084q0 -165 -74 -262.5t-231 -97.5q-80 0 -140 27t-96 76.5t-53.5 113.5t-17.5 143zM174 1526l172 184h82l174 -184h-90l-125 131l-125 -131h-88z" />
<glyph unicode="&#xdc;" d="M78 350v1084h94v-1088q0 -126 51.5 -199t163.5 -73t163.5 73t51.5 199v1088h88v-1084q0 -165 -74 -262.5t-231 -97.5q-80 0 -140 27t-96 76.5t-53.5 113.5t-17.5 143zM244 1522v174h84v-174h-84zM442 1522v174h84v-174h-84z" />
<glyph unicode="&#xdd;" horiz-adv-x="849" d="M55 1434h99l274 -754l274 754h93l-324 -883v-551h-94v551zM358 1516l148 194h96l-172 -194h-72z" />
<glyph unicode="&#xde;" horiz-adv-x="772" d="M82 0v1434h94v-250h203q307 0 307 -348v-156q0 -173 -80.5 -256.5t-251.5 -83.5h-178v-340h-94zM176 426h178q125 0 181.5 59t56.5 189v166q0 126 -48.5 191t-164.5 65h-203v-670z" />
<glyph unicode="&#xdf;" horiz-adv-x="1458" d="M63 346v74h91v-80q0 -123 52 -193.5t165 -70.5q112 0 164.5 70t52.5 194q0 70 -28.5 129t-74.5 101.5t-101 83t-110 82.5t-101 89.5t-74.5 115.5t-28.5 149q0 168 75 262t230 94q155 1 230 -96.5t75 -262.5v-30h-90v37q0 122 -51 194t-162 72q-213 0 -213 -264 q0 -70 28.5 -129.5t74.5 -103t101 -84.5t110 -83t101 -89.5t74.5 -114t28.5 -146.5q0 -164 -76 -260t-233 -96t-233.5 96t-76.5 260zM774 346v74h90v-80q0 -123 52 -193.5t165 -70.5t165 70.5t52 193.5q0 70 -28.5 129t-74.5 101.5t-101 83t-110 82.5t-101 89.5t-74.5 115.5 t-28.5 149q0 168 75 262t230 94q155 1 230.5 -96.5t75.5 -262.5v-30h-91v37q0 122 -51 194t-162 72q-213 0 -213 -264q0 -70 28.5 -129.5t74.5 -103t101.5 -84.5t110.5 -83t101 -89.5t74.5 -114t28.5 -146.5q0 -164 -76.5 -260t-233.5 -96t-233 96t-76 260z" />
<glyph unicode="&#xe0;" horiz-adv-x="892" d="M61 0l314 1436h137l319 -1436h-94l-71 317h-447l-72 -317h-86zM233 399h418l-211 928zM276 1704h103l145 -195h-73z" />
<glyph unicode="&#xe1;" horiz-adv-x="892" d="M61 0l314 1436h137l319 -1436h-94l-71 317h-447l-72 -317h-86zM233 399h418l-211 928zM350 1511l146 195h98l-172 -195h-72z" />
<glyph unicode="&#xe2;" horiz-adv-x="892" d="M61 0l314 1436h137l319 -1436h-94l-71 317h-447l-72 -317h-86zM229 1509l172 185h82l174 -185h-90l-125 129l-125 -129h-88zM233 399h418l-211 928z" />
<glyph unicode="&#xe3;" horiz-adv-x="892" d="M61 0l314 1436h137l319 -1436h-94l-71 317h-447l-72 -317h-86zM219 1569q45 98 129 98q40 1 102 -35t89 -35q45 0 75 64l52 -35q-43 -93 -119 -96q-39 -2 -99.5 32.5t-91.5 34.5q-52 0 -86 -61zM233 399h418l-211 928z" />
<glyph unicode="&#xe4;" horiz-adv-x="892" d="M61 0l314 1436h137l319 -1436h-94l-71 317h-447l-72 -317h-86zM233 399h418l-211 928zM301 1509v172h84v-172h-84zM500 1509v172h84v-172h-84z" />
<glyph unicode="&#xe5;" horiz-adv-x="892" d="M61 0l314 1436h137l319 -1436h-94l-71 317h-447l-72 -317h-86zM233 399h418l-211 928zM305 1651q0 57 38.5 96t98.5 39q57 0 97.5 -39t40.5 -96q0 -59 -40 -98.5t-98 -39.5q-60 0 -98.5 39t-38.5 99zM354 1651q0 -38 25.5 -62t62.5 -24q36 0 62 24.5t26 61.5q0 36 -26 60 t-62 24q-37 0 -62.5 -24t-25.5 -60z" />
<glyph unicode="&#xe6;" horiz-adv-x="1206" d="M55 0l510 1434h568v-86h-418v-578h346v-86h-346v-598h418v-86h-512v322h-359l-117 -322h-90zM287 406h334v911z" />
<glyph unicode="&#xe7;" horiz-adv-x="765" d="M76 350v733q0 165 76 264t233 99t233 -99t76 -264v-118h-90v125q0 124 -52 197t-165 73t-165 -73t-52 -197v-746q0 -124 52 -196t165 -72t165 72t52 196v170h90v-164q0 -158 -70 -255.5t-216 -104.5v-58q73 -2 113 -31t40 -83q0 -63 -48 -97.5t-134 -33.5 q-86 0 -133 33.5t-47 95.5v12h65v-10q0 -35 30.5 -57t84.5 -23q54 -3 85.5 20t31.5 62q0 36 -32 56t-91 20h-15v96q-144 6 -213 102.5t-69 255.5z" />
<glyph unicode="&#xe8;" horiz-adv-x="718" d="M82 0v1434h565v-86h-471v-578h391v-86h-391v-598h471v-86h-565zM211 1724h102l146 -194h-76z" />
<glyph unicode="&#xe9;" horiz-adv-x="718" d="M82 0v1434h565v-86h-471v-578h391v-86h-391v-598h471v-86h-565zM289 1516l145 194h98l-172 -194h-71z" />
<glyph unicode="&#xea;" horiz-adv-x="718" d="M82 0v1434h565v-86h-471v-578h391v-86h-391v-598h471v-86h-565zM150 1518l172 184h81l175 -184h-91l-125 131l-124 -131h-88z" />
<glyph unicode="&#xeb;" horiz-adv-x="718" d="M82 0v1434h565v-86h-471v-578h391v-86h-391v-598h471v-86h-565zM223 1516v174h82v-174h-82zM420 1516v174h84v-174h-84z" />
<glyph unicode="&#xec;" horiz-adv-x="258" d="M-47 1710h98l146 -194h-74zM82 0v1434h94v-1434h-94z" />
<glyph unicode="&#xed;" horiz-adv-x="258" d="M51 1518l146 194h98l-172 -194h-72zM82 0v1434h94v-1434h-94z" />
<glyph unicode="&#xee;" horiz-adv-x="258" d="M-82 1516l170 184h82l172 -184h-88l-125 131l-125 -131h-86zM82 0v1434h94v-1434h-94z" />
<glyph unicode="&#xef;" horiz-adv-x="258" d="M-10 1518v172h82v-172h-82zM82 0v1434h94v-1434h-94zM186 1518v172h84v-172h-84z" />
<glyph unicode="&#xf0;" horiz-adv-x="788" d="M-2 676v78h84v680h315q160 0 239 -95.5t79 -261.5v-721q0 -166 -79 -261t-239 -95h-315v676h-84zM176 86h219q117 0 171.5 70.5t54.5 195.5v729q0 124 -56 195.5t-170 71.5h-219v-594h184v-78h-184v-590z" />
<glyph unicode="&#xf1;" horiz-adv-x="800" d="M82 0v1434h123l430 -1211v1211h86v-1434h-105l-448 1278v-1278h-86zM180 1585q42 98 127 98q38 1 101 -34.5t90 -32.5q46 0 77 61l50 -35q-42 -96 -119 -96q-40 -1 -100 33.5t-91 34.5q-51 0 -86 -62z" />
<glyph unicode="&#xf2;" horiz-adv-x="780" d="M76 350v733q0 164 78 263.5t235 99.5q159 0 238.5 -99.5t79.5 -263.5v-733q0 -164 -79.5 -262t-238.5 -98q-157 0 -235 98t-78 262zM170 344q0 -125 53 -197.5t166 -72.5t168 73t55 197v746q0 124 -55 197t-168 73t-166 -72.5t-53 -197.5v-746zM221 1724h103l145 -194 h-76z" />
<glyph unicode="&#xf3;" horiz-adv-x="780" d="M76 350v733q0 164 78 263.5t235 99.5q159 0 238.5 -99.5t79.5 -263.5v-733q0 -164 -79.5 -262t-238.5 -98q-157 0 -235 98t-78 262zM170 344q0 -125 53 -197.5t166 -72.5t168 73t55 197v746q0 124 -55 197t-168 73t-166 -72.5t-53 -197.5v-746zM311 1530l146 194h98 l-172 -194h-72z" />
<glyph unicode="&#xf4;" horiz-adv-x="780" d="M76 350v733q0 164 78 263.5t235 99.5q159 0 238.5 -99.5t79.5 -263.5v-733q0 -164 -79.5 -262t-238.5 -98q-157 0 -235 98t-78 262zM170 344q0 -125 53 -197.5t166 -72.5t168 73t55 197v746q0 124 -55 197t-168 73t-166 -72.5t-53 -197.5v-746zM176 1526l172 184h82 l172 -184h-88l-125 131l-125 -131h-88z" />
<glyph unicode="&#xf5;" horiz-adv-x="780" d="M76 350v733q0 164 78 263.5t235 99.5q159 0 238.5 -99.5t79.5 -263.5v-733q0 -164 -79.5 -262t-238.5 -98q-157 0 -235 98t-78 262zM170 344q0 -125 53 -197.5t166 -72.5t168 73t55 197v746q0 124 -55 197t-168 73t-166 -72.5t-53 -197.5v-746zM174 1581q47 96 129 96 q40 0 101.5 -34t89.5 -33q47 0 75 61l52 -33q-42 -98 -119 -98q-40 -1 -100 34.5t-91 35.5q-56 0 -86 -64z" />
<glyph unicode="&#xf6;" horiz-adv-x="780" d="M76 350v733q0 164 78 263.5t235 99.5q159 0 238.5 -99.5t79.5 -263.5v-733q0 -164 -79.5 -262t-238.5 -98q-157 0 -235 98t-78 262zM170 344q0 -125 53 -197.5t166 -72.5t168 73t55 197v746q0 124 -55 197t-168 73t-166 -72.5t-53 -197.5v-746zM248 1526v174h84v-174h-84 zM446 1526v174h84v-174h-84z" />
<glyph unicode="&#xf7;" horiz-adv-x="624" d="M72 682v70h483v-70h-483zM266 412v180h90v-180h-90zM266 842v180h90v-180h-90z" />
<glyph unicode="&#xf8;" horiz-adv-x="780" d="M76 350v733q0 164 78 263.5t235 99.5q139 0 221 -82l39 100l45 -16l-47 -127q60 -92 60 -238v-733q0 -164 -79.5 -262t-238.5 -98q-142 0 -219 80l-41 -103l-47 17l51 133q-57 86 -57 233zM170 344q0 -49 10 -104l393 1026q-58 94 -184 94q-113 0 -166 -72.5t-53 -197.5 v-746zM207 170q57 -96 182 -96q113 0 168 73t55 197v746q0 58 -12 110z" />
<glyph unicode="&#xf9;" d="M78 350v1084h94v-1088q0 -126 51.5 -199t163.5 -73t163.5 73t51.5 199v1088h88v-1084q0 -165 -74 -262.5t-231 -97.5q-80 0 -140 27t-96 76.5t-53.5 113.5t-17.5 143zM215 1712h102l146 -194h-76z" />
<glyph unicode="&#xfa;" d="M78 350v1084h94v-1088q0 -126 51.5 -199t163.5 -73t163.5 73t51.5 199v1088h88v-1084q0 -165 -74 -262.5t-231 -97.5q-80 0 -140 27t-96 76.5t-53.5 113.5t-17.5 143zM319 1530l146 194h98l-172 -194h-72z" />
<glyph unicode="&#xfb;" d="M78 350v1084h94v-1088q0 -126 51.5 -199t163.5 -73t163.5 73t51.5 199v1088h88v-1084q0 -165 -74 -262.5t-231 -97.5q-80 0 -140 27t-96 76.5t-53.5 113.5t-17.5 143zM174 1526l172 184h82l174 -184h-90l-125 131l-125 -131h-88z" />
<glyph unicode="&#xfc;" d="M78 350v1084h94v-1088q0 -126 51.5 -199t163.5 -73t163.5 73t51.5 199v1088h88v-1084q0 -165 -74 -262.5t-231 -97.5q-80 0 -140 27t-96 76.5t-53.5 113.5t-17.5 143zM244 1522v174h84v-174h-84zM442 1522v174h84v-174h-84z" />
<glyph unicode="&#xfd;" horiz-adv-x="849" d="M55 1434h99l274 -754l274 754h93l-324 -883v-551h-94v551zM358 1516l148 194h96l-172 -194h-72z" />
<glyph unicode="&#xfe;" horiz-adv-x="772" d="M82 0v1434h94v-250h203q307 0 307 -348v-156q0 -173 -80.5 -256.5t-251.5 -83.5h-178v-340h-94zM176 426h178q125 0 181.5 59t56.5 189v166q0 126 -48.5 191t-164.5 65h-203v-670z" />
<glyph unicode="&#xff;" horiz-adv-x="849" d="M55 1434h99l274 -754l274 754h93l-324 -883v-551h-94v551zM285 1518v172h84v-172h-84zM483 1518v172h84v-172h-84z" />
<glyph unicode="&#x100;" horiz-adv-x="892" d="M61 0l314 1436h137l319 -1436h-94l-71 317h-447l-72 -317h-86zM233 399h418l-211 928zM244 1556v68h399v-68h-399z" />
<glyph unicode="&#x101;" horiz-adv-x="892" d="M61 0l314 1436h137l319 -1436h-94l-71 317h-447l-72 -317h-86zM233 399h418l-211 928zM244 1556v68h399v-68h-399z" />
<glyph unicode="&#x102;" horiz-adv-x="892" d="M61 0l314 1436h137l319 -1436h-94l-71 317h-447l-72 -317h-86zM233 399h418l-211 928zM246 1681h61q1 -58 39 -87t96 -29t97 29t43 87h61q-4 -85 -58.5 -132.5t-142.5 -47.5t-141.5 47.5t-54.5 132.5z" />
<glyph unicode="&#x103;" horiz-adv-x="892" d="M61 0l314 1436h137l319 -1436h-94l-71 317h-447l-72 -317h-86zM233 399h418l-211 928zM246 1681h61q1 -58 39 -87t96 -29t97 29t43 87h61q-4 -85 -58.5 -132.5t-142.5 -47.5t-141.5 47.5t-54.5 132.5z" />
<glyph unicode="&#x104;" horiz-adv-x="892" d="M61 0l314 1436h137l319 -1436h-18q-47 -35 -75 -80.5t-25 -83.5q5 -59 82 -59q49 0 90 26v-61q-53 -27 -115 -27q-59 2 -94.5 27.5t-36.5 77.5q-1 46 25.5 93t72.5 85l-71 319h-447l-72 -317h-86zM233 399h418l-211 928z" />
<glyph unicode="&#x105;" horiz-adv-x="892" d="M61 0l314 1436h137l319 -1436h-30q-38 -29 -63.5 -76.5t-22.5 -85.5q6 -65 80 -65q49 0 90 26v-57q-53 -27 -115 -27q-59 2 -94.5 27.5t-36.5 77.5q-1 46 25.5 93t72.5 85l-71 319h-447l-72 -317h-86zM233 399h418l-211 928z" />
<glyph unicode="&#x106;" horiz-adv-x="765" d="M76 350v733q0 165 76 264t233 99t233 -99t76 -264v-118h-90v125q0 124 -52 197t-165 73t-165 -73t-52 -197v-746q0 -124 52 -196t165 -72t165 72t52 196v170h90v-164q0 -165 -76 -262.5t-233 -97.5t-233 97.5t-76 262.5zM315 1530l146 194h98l-172 -194h-72z" />
<glyph unicode="&#x107;" horiz-adv-x="765" d="M76 350v733q0 165 76 264t233 99t233 -99t76 -264v-118h-90v125q0 124 -52 197t-165 73t-165 -73t-52 -197v-746q0 -124 52 -196t165 -72t165 72t52 196v170h90v-164q0 -165 -76 -262.5t-233 -97.5t-233 97.5t-76 262.5zM315 1530l146 194h98l-172 -194h-72z" />
<glyph unicode="&#x108;" horiz-adv-x="765" d="M76 350v733q0 165 76 264t233 99t233 -99t76 -264v-118h-90v125q0 124 -52 197t-165 73t-165 -73t-52 -197v-746q0 -124 52 -196t165 -72t165 72t52 196v170h90v-164q0 -165 -76 -262.5t-233 -97.5t-233 97.5t-76 262.5zM178 1522l172 184h82l174 -184h-90l-125 131 l-125 -131h-88z" />
<glyph unicode="&#x109;" horiz-adv-x="765" d="M76 350v733q0 165 76 264t233 99t233 -99t76 -264v-118h-90v125q0 124 -52 197t-165 73t-165 -73t-52 -197v-746q0 -124 52 -196t165 -72t165 72t52 196v170h90v-164q0 -165 -76 -262.5t-233 -97.5t-233 97.5t-76 262.5zM178 1522l172 184h82l174 -184h-90l-125 131 l-125 -131h-88z" />
<glyph unicode="&#x10a;" horiz-adv-x="765" d="M76 350v733q0 165 76 264t233 99t233 -99t76 -264v-118h-90v125q0 124 -52 197t-165 73t-165 -73t-52 -197v-746q0 -124 52 -196t165 -72t165 72t52 196v170h90v-164q0 -165 -76 -262.5t-233 -97.5t-233 97.5t-76 262.5zM342 1516v172h84v-172h-84z" />
<glyph unicode="&#x10b;" horiz-adv-x="765" d="M76 350v733q0 165 76 264t233 99t233 -99t76 -264v-118h-90v125q0 124 -52 197t-165 73t-165 -73t-52 -197v-746q0 -124 52 -196t165 -72t165 72t52 196v170h90v-164q0 -165 -76 -262.5t-233 -97.5t-233 97.5t-76 262.5zM342 1516v172h84v-172h-84z" />
<glyph unicode="&#x10c;" horiz-adv-x="765" d="M76 350v733q0 165 76 264t233 99t233 -99t76 -264v-118h-90v125q0 124 -52 197t-165 73t-165 -73t-52 -197v-746q0 -124 52 -196t165 -72t165 72t52 196v170h90v-164q0 -165 -76 -262.5t-233 -97.5t-233 97.5t-76 262.5zM182 1708h86l127 -131l125 131h88l-172 -184h-82z " />
<glyph unicode="&#x10d;" horiz-adv-x="765" d="M76 350v733q0 165 76 264t233 99t233 -99t76 -264v-118h-90v125q0 124 -52 197t-165 73t-165 -73t-52 -197v-746q0 -124 52 -196t165 -72t165 72t52 196v170h90v-164q0 -165 -76 -262.5t-233 -97.5t-233 97.5t-76 262.5zM182 1708h86l127 -131l125 131h88l-172 -184h-82z " />
<glyph unicode="&#x10e;" horiz-adv-x="788" d="M82 0v1434h315q160 0 239 -95.5t79 -261.5v-721q0 -166 -79 -261t-239 -95h-315zM160 1700h88l125 -131l125 131h90l-174 -184h-82zM176 86h219q117 0 171.5 70.5t54.5 195.5v729q0 124 -56 195.5t-170 71.5h-219v-1262z" />
<glyph unicode="&#x10f;" horiz-adv-x="788" d="M82 0v1434h315q160 0 239 -95.5t79 -261.5v-721q0 -166 -79 -261t-239 -95h-315zM160 1700h88l125 -131l125 131h90l-174 -184h-82zM176 86h219q117 0 171.5 70.5t54.5 195.5v729q0 124 -56 195.5t-170 71.5h-219v-1262z" />
<glyph unicode="&#x110;" horiz-adv-x="788" d="M-2 676v78h84v680h315q160 0 239 -95.5t79 -261.5v-721q0 -166 -79 -261t-239 -95h-315v676h-84zM176 86h219q117 0 171.5 70.5t54.5 195.5v729q0 124 -56 195.5t-170 71.5h-219v-594h184v-78h-184v-590z" />
<glyph unicode="&#x111;" horiz-adv-x="788" d="M-2 676v78h84v680h315q160 0 239 -95.5t79 -261.5v-721q0 -166 -79 -261t-239 -95h-315v676h-84zM176 86h219q117 0 171.5 70.5t54.5 195.5v729q0 124 -56 195.5t-170 71.5h-219v-594h184v-78h-184v-590z" />
<glyph unicode="&#x112;" horiz-adv-x="718" d="M82 0v1434h565v-86h-471v-578h391v-86h-391v-598h471v-86h-565zM166 1561v69h385v-69h-385z" />
<glyph unicode="&#x113;" horiz-adv-x="718" d="M82 0v1434h565v-86h-471v-578h391v-86h-391v-598h471v-86h-565zM166 1561v69h385v-69h-385z" />
<glyph unicode="&#x114;" horiz-adv-x="718" d="M82 0v1434h565v-86h-471v-578h391v-86h-391v-598h471v-86h-565zM164 1704h61q1 -60 39 -88.5t96 -28.5q60 0 98 28.5t42 88.5h61q-4 -85 -58.5 -132.5t-142.5 -47.5t-141.5 47.5t-54.5 132.5z" />
<glyph unicode="&#x115;" horiz-adv-x="718" d="M82 0v1434h565v-86h-471v-578h391v-86h-391v-598h471v-86h-565zM164 1704h61q1 -60 39 -88.5t96 -28.5q60 0 98 28.5t42 88.5h61q-4 -85 -58.5 -132.5t-142.5 -47.5t-141.5 47.5t-54.5 132.5z" />
<glyph unicode="&#x116;" horiz-adv-x="718" d="M82 0v1434h565v-86h-471v-578h391v-86h-391v-598h471v-86h-565zM326 1520v174h84v-174h-84z" />
<glyph unicode="&#x117;" horiz-adv-x="718" d="M82 0v1434h565v-86h-471v-578h391v-86h-391v-598h471v-86h-565zM326 1520v174h84v-174h-84z" />
<glyph unicode="&#x118;" horiz-adv-x="718" d="M82 0v1434h565v-86h-471v-578h391v-86h-391v-598h471v-86h-45q-39 -30 -67 -77.5t-27 -84.5q1 -33 23.5 -49t56.5 -16q49 0 90 26v-61q-52 -27 -117 -27q-57 2 -91.5 29.5t-37.5 79.5q-3 47 28 95.5t81 84.5h-459z" />
<glyph unicode="&#x119;" horiz-adv-x="718" d="M82 0v1434h565v-86h-471v-578h391v-86h-391v-598h471v-86h-47q-39 -30 -66 -77t-26 -85q1 -33 23.5 -49t56.5 -16q49 0 90 26v-57q-52 -27 -115 -27q-125 3 -131 105q-3 47 28 95.5t81 84.5h-459z" />
<glyph unicode="&#x11a;" horiz-adv-x="718" d="M82 0v1434h565v-86h-471v-578h391v-86h-391v-598h471v-86h-565zM156 1702h88l125 -131l125 131h88l-172 -184h-82z" />
<glyph unicode="&#x11b;" horiz-adv-x="718" d="M82 0v1434h565v-86h-471v-578h391v-86h-391v-598h471v-86h-565zM156 1702h88l125 -131l125 131h88l-172 -184h-82z" />
<glyph unicode="&#x11c;" d="M76 350v733q0 165 76 264t233 99t233 -99t76 -264v-106h-90v113q0 124 -52 197t-165 73t-165 -73t-52 -197v-746q0 -124 52 -196t165 -72t165 72t52 196v309h-190v86h280v-389q0 -165 -76 -262.5t-233 -97.5t-233 97.5t-76 262.5zM174 1530l172 184h82l172 -184h-88 l-125 131l-125 -131h-88z" />
<glyph unicode="&#x11d;" d="M76 350v733q0 165 76 264t233 99t233 -99t76 -264v-106h-90v113q0 124 -52 197t-165 73t-165 -73t-52 -197v-746q0 -124 52 -196t165 -72t165 72t52 196v309h-190v86h280v-389q0 -165 -76 -262.5t-233 -97.5t-233 97.5t-76 262.5zM174 1530l172 184h82l172 -184h-88 l-125 131l-125 -131h-88z" />
<glyph unicode="&#x11e;" d="M76 350v733q0 165 76 264t233 99t233 -99t76 -264v-106h-90v113q0 124 -52 197t-165 73t-165 -73t-52 -197v-746q0 -124 52 -196t165 -72t165 72t52 196v309h-190v86h280v-389q0 -165 -76 -262.5t-233 -97.5t-233 97.5t-76 262.5zM188 1708h62q4 -60 41 -88.5t96 -28.5 q58 0 95.5 28.5t41.5 88.5h62q-1 -85 -56 -132.5t-143 -47.5t-143 47.5t-56 132.5z" />
<glyph unicode="&#x11f;" d="M76 350v733q0 165 76 264t233 99t233 -99t76 -264v-106h-90v113q0 124 -52 197t-165 73t-165 -73t-52 -197v-746q0 -124 52 -196t165 -72t165 72t52 196v309h-190v86h280v-389q0 -165 -76 -262.5t-233 -97.5t-233 97.5t-76 262.5zM188 1708h62q4 -60 41 -88.5t96 -28.5 q58 0 95.5 28.5t41.5 88.5h62q-1 -85 -56 -132.5t-143 -47.5t-143 47.5t-56 132.5z" />
<glyph unicode="&#x120;" d="M76 350v733q0 165 76 264t233 99t233 -99t76 -264v-106h-90v113q0 124 -52 197t-165 73t-165 -73t-52 -197v-746q0 -124 52 -196t165 -72t165 72t52 196v309h-190v86h280v-389q0 -165 -76 -262.5t-233 -97.5t-233 97.5t-76 262.5zM356 1522v174h82v-174h-82z" />
<glyph unicode="&#x121;" d="M76 350v733q0 165 76 264t233 99t233 -99t76 -264v-106h-90v113q0 124 -52 197t-165 73t-165 -73t-52 -197v-746q0 -124 52 -196t165 -72t165 72t52 196v309h-190v86h280v-389q0 -165 -76 -262.5t-233 -97.5t-233 97.5t-76 262.5zM356 1522v174h82v-174h-82z" />
<glyph unicode="&#x122;" d="M76 350v733q0 165 76 264t233 99t233 -99t76 -264v-106h-90v113q0 124 -52 197t-165 73t-165 -73t-52 -197v-746q0 -124 52 -196t165 -72t165 72t52 196v309h-190v86h280v-389q0 -165 -76 -262.5t-233 -97.5t-233 97.5t-76 262.5zM332 -358l39 120h-27v170h80v-161 l-55 -129h-37z" />
<glyph unicode="&#x123;" d="M76 350v733q0 165 76 264t233 99t233 -99t76 -264v-106h-90v113q0 124 -52 197t-165 73t-165 -73t-52 -197v-746q0 -124 52 -196t165 -72t165 72t52 196v309h-190v86h280v-389q0 -165 -76 -262.5t-233 -97.5t-233 97.5t-76 262.5zM332 -358l41 120h-29v170h82v-161 l-55 -129h-39z" />
<glyph unicode="&#x124;" horiz-adv-x="800" d="M82 0v1434h94v-674h447v674h96v-1434h-96v674h-447v-674h-94zM186 1526l172 184h82l174 -184h-90l-125 131l-125 -131h-88z" />
<glyph unicode="&#x125;" horiz-adv-x="800" d="M82 0v1434h94v-674h447v674h96v-1434h-96v674h-447v-674h-94zM186 1526l172 184h82l174 -184h-90l-125 131l-125 -131h-88z" />
<glyph unicode="&#x126;" horiz-adv-x="806" d="M8 1075v72h78v287h94v-287h447v287h94v-287h76v-72h-76v-1075h-94v674h-447v-674h-94v1075h-78zM180 760h447v315h-447v-315z" />
<glyph unicode="&#x127;" horiz-adv-x="806" d="M8 1075v72h78v287h94v-287h447v287h94v-287h76v-72h-76v-1075h-94v674h-447v-674h-94v1075h-78zM180 760h447v315h-447v-315z" />
<glyph unicode="&#x128;" horiz-adv-x="258" d="M-90 1579q47 96 125 96q43 0 104 -33.5t88 -33.5q45 0 76 61l51 -33q-42 -98 -118 -98q-41 -1 -101.5 33.5t-91.5 34.5q-47 0 -82 -62zM82 0v1434h94v-1434h-94z" />
<glyph unicode="&#x129;" horiz-adv-x="258" d="M-90 1579q47 96 125 96q43 0 104 -33.5t88 -33.5q45 0 76 61l51 -33q-42 -98 -118 -98q-41 -1 -101.5 33.5t-91.5 34.5q-47 0 -82 -62zM82 0v1434h94v-1434h-94z" />
<glyph unicode="&#x12a;" horiz-adv-x="258" d="M-41 1556v68h342v-68h-342zM82 0v1434h94v-1434h-94z" />
<glyph unicode="&#x12b;" horiz-adv-x="258" d="M-41 1556v68h342v-68h-342zM82 0v1434h94v-1434h-94z" />
<glyph unicode="&#x12c;" horiz-adv-x="258" d="M-68 1696h62q4 -60 41 -89.5t94 -29.5q58 0 95.5 29.5t41.5 89.5h62q-1 -85 -56 -134t-143 -49q-87 0 -141.5 49t-55.5 134zM82 0v1434h94v-1434h-94z" />
<glyph unicode="&#x12d;" horiz-adv-x="258" d="M-68 1696h62q4 -60 41 -89.5t94 -29.5q58 0 95.5 29.5t41.5 89.5h62q-1 -85 -56 -134t-143 -49q-87 0 -141.5 49t-55.5 134zM82 0v1434h94v-1434h-94z" />
<glyph unicode="&#x12e;" horiz-adv-x="258" d="M0 -180q-3 48 22 96t74 84h-16l2 1434h94v-1434h-12q-41 -34 -66 -79t-24 -83q1 -33 23.5 -49t56.5 -16q54 0 90 26v-61q-52 -27 -115 -27q-57 2 -92.5 29.5t-36.5 79.5z" />
<glyph unicode="&#x12f;" horiz-adv-x="258" d="M0 -180q-3 48 25 96t81 84h-26l2 1434h94v-1434h-14q-37 -30 -63 -77t-25 -85q1 -33 23.5 -49t56.5 -16q54 0 90 26v-57q-52 -27 -115 -27q-57 2 -92.5 27.5t-36.5 77.5z" />
<glyph unicode="&#x130;" horiz-adv-x="258" d="M82 0v1434h94v-1434h-94zM88 1518v172h82v-172h-82z" />
<glyph unicode="&#x131;" horiz-adv-x="258" d="M82 0v1434h94v-1434h-94z" />
<glyph unicode="&#x132;" horiz-adv-x="776" d="M82 0v1434h94v-1434h-94zM317 0v86h76q110 0 160.5 63t50.5 197v1088h94v-1082q0 -184 -76 -265.5t-219 -86.5h-86z" />
<glyph unicode="&#x133;" horiz-adv-x="776" d="M82 0v1434h94v-1434h-94zM317 0v86h76q110 0 160.5 63t50.5 197v1088h94v-1082q0 -184 -76 -265.5t-219 -86.5h-86z" />
<glyph unicode="&#x134;" horiz-adv-x="518" d="M59 0v86q30 -2 84 2q105 8 154 67.5t49 190.5v1088h94v-1082q0 -181 -74 -263.5t-212 -88.5h-95zM166 1518l172 184h82l174 -184h-90l-125 131l-125 -131h-88z" />
<glyph unicode="&#x135;" horiz-adv-x="518" d="M59 0v86q30 -2 84 2q105 8 154 67.5t49 190.5v1088h94v-1082q0 -181 -74 -263.5t-212 -88.5h-95zM166 1518l172 184h82l174 -184h-90l-125 131l-125 -131h-88z" />
<glyph unicode="&#x136;" horiz-adv-x="827" d="M82 0v1434h94v-758l467 758h98l-409 -668l436 -766h-98l-396 674l-98 -156v-518h-94zM346 -358l41 120h-29v170h82v-161l-55 -129h-39z" />
<glyph unicode="&#x137;" horiz-adv-x="827" d="M82 0v1434h94v-758l467 758h98l-409 -668l436 -766h-98l-396 674l-98 -156v-518h-94zM346 -358l41 120h-29v170h82v-161l-55 -129h-39z" />
<glyph unicode="&#x138;" horiz-adv-x="827" d="M82 0v1434h94v-758l467 758h98l-409 -668l436 -766h-98l-396 674l-98 -156v-518h-94z" />
<glyph unicode="&#x139;" horiz-adv-x="686" d="M82 0v1434h94v-1348h451v-86h-545zM94 1516l148 194h96l-172 -194h-72z" />
<glyph unicode="&#x13a;" horiz-adv-x="686" d="M82 0v1434h94v-1348h451v-86h-545zM82 1518l145 194h99l-172 -194h-72z" />
<glyph unicode="&#x13b;" horiz-adv-x="686" d="M82 0v1434h94v-1348h451v-86h-545zM313 -365l39 121h-26v170h80v-162l-56 -129h-37z" />
<glyph unicode="&#x13c;" horiz-adv-x="686" d="M82 0v1434h94v-1348h451v-86h-545zM326 -358l41 120h-29v170h80v-161l-56 -129h-36z" />
<glyph unicode="&#x13d;" horiz-adv-x="686" d="M82 0v1434h94v-1348h451v-86h-545zM432 1098l41 155h-33v181h92v-172l-59 -164h-41z" />
<glyph unicode="&#x13e;" horiz-adv-x="686" d="M82 0v1434h94v-1348h451v-86h-545zM432 1098l41 155h-33v181h92v-172l-59 -164h-41z" />
<glyph unicode="&#x13f;" horiz-adv-x="686" d="M82 0v1434h94v-1348h451v-86h-545zM379 633v180h92v-180h-92z" />
<glyph unicode="&#x140;" horiz-adv-x="686" d="M82 0v1434h94v-1348h451v-86h-545zM379 633v180h92v-180h-92z" />
<glyph unicode="&#x141;" horiz-adv-x="710" d="M0 449v90l109 100v795h94v-695l196 197v-92l-196 -195v-563h450v-86h-544v549z" />
<glyph unicode="&#x142;" horiz-adv-x="710" d="M0 449v90l109 100v795h94v-695l196 197v-92l-196 -195v-563h450v-86h-544v549z" />
<glyph unicode="&#x143;" horiz-adv-x="800" d="M82 2v1434h123l430 -1211v1211h86v-1434h-105l-448 1278v-1278h-86zM334 1520l147 194h97l-172 -194h-72z" />
<glyph unicode="&#x144;" horiz-adv-x="800" d="M82 2v1434h123l430 -1211v1211h86v-1434h-105l-448 1278v-1278h-86zM334 1520l147 194h97l-172 -194h-72z" />
<glyph unicode="&#x145;" horiz-adv-x="800" d="M82 0v1434h123l430 -1211v1211h86v-1434h-105l-448 1278v-1278h-86zM346 -358l39 120h-27v170h80v-161l-55 -129h-37z" />
<glyph unicode="&#x146;" horiz-adv-x="800" d="M82 0v1434h123l430 -1211v1211h86v-1434h-105l-448 1278v-1278h-86zM346 -358l39 120h-27v170h80v-161l-55 -129h-37z" />
<glyph unicode="&#x147;" horiz-adv-x="800" d="M82 0v1434h123l430 -1211v1211h86v-1434h-105l-448 1278v-1278h-86zM190 1710h89l124 -129l125 129h88l-172 -184h-82z" />
<glyph unicode="&#x148;" horiz-adv-x="800" d="M82 0v1434h123l430 -1211v1211h86v-1434h-105l-448 1278v-1278h-86zM190 1710h89l124 -129l125 129h88l-172 -184h-82z" />
<glyph unicode="&#x149;" horiz-adv-x="952" d="M27 1098l43 155h-33v181h90v-172l-57 -164h-43zM231 0v1434h125l430 -1211v1211h84v-1434h-102l-451 1278v-1278h-86z" />
<glyph unicode="&#x14c;" horiz-adv-x="780" d="M76 350v733q0 164 78 263.5t235 99.5q159 0 238.5 -99.5t79.5 -263.5v-733q0 -164 -79.5 -262t-238.5 -98q-157 0 -235 98t-78 262zM170 344q0 -125 53 -197.5t166 -72.5t168 73t55 197v746q0 124 -55 197t-168 73t-166 -72.5t-53 -197.5v-746zM201 1556v70h383v-70h-383 z" />
<glyph unicode="&#x14d;" horiz-adv-x="780" d="M76 350v733q0 164 78 263.5t235 99.5q159 0 238.5 -99.5t79.5 -263.5v-733q0 -164 -79.5 -262t-238.5 -98q-157 0 -235 98t-78 262zM170 344q0 -125 53 -197.5t166 -72.5t168 73t55 197v746q0 124 -55 197t-168 73t-166 -72.5t-53 -197.5v-746zM201 1556v70h383v-70h-383 z" />
<glyph unicode="&#x14e;" horiz-adv-x="780" d="M76 350v733q0 164 78 263.5t235 99.5q159 0 238.5 -99.5t79.5 -263.5v-733q0 -164 -79.5 -262t-238.5 -98q-157 0 -235 98t-78 262zM170 344q0 -125 53 -197.5t166 -72.5t168 73t55 197v746q0 124 -55 197t-168 73t-166 -72.5t-53 -197.5v-746zM193 1708h59 q4 -60 41.5 -88.5t95.5 -28.5t96.5 28.5t42.5 88.5h62q-4 -85 -58.5 -132.5t-142.5 -47.5t-141.5 47.5t-54.5 132.5z" />
<glyph unicode="&#x14f;" horiz-adv-x="780" d="M76 350v733q0 164 78 263.5t235 99.5q159 0 238.5 -99.5t79.5 -263.5v-733q0 -164 -79.5 -262t-238.5 -98q-157 0 -235 98t-78 262zM170 344q0 -125 53 -197.5t166 -72.5t168 73t55 197v746q0 124 -55 197t-168 73t-166 -72.5t-53 -197.5v-746zM193 1708h59 q4 -60 41.5 -88.5t95.5 -28.5t96.5 28.5t42.5 88.5h62q-4 -85 -58.5 -132.5t-142.5 -47.5t-141.5 47.5t-54.5 132.5z" />
<glyph unicode="&#x150;" horiz-adv-x="780" d="M76 350v733q0 164 78 263.5t235 99.5q159 0 238.5 -99.5t79.5 -263.5v-733q0 -164 -79.5 -262t-238.5 -98q-157 0 -235 98t-78 262zM170 344q0 -125 53 -197.5t166 -72.5t168 73t55 197v746q0 124 -55 197t-168 73t-166 -72.5t-53 -197.5v-746zM242 1530l133 194h92 l-158 -194h-67zM416 1530l133 194h92l-160 -194h-65z" />
<glyph unicode="&#x151;" horiz-adv-x="780" d="M76 350v733q0 164 78 263.5t235 99.5q159 0 238.5 -99.5t79.5 -263.5v-733q0 -164 -79.5 -262t-238.5 -98q-157 0 -235 98t-78 262zM170 344q0 -125 53 -197.5t166 -72.5t168 73t55 197v746q0 124 -55 197t-168 73t-166 -72.5t-53 -197.5v-746zM242 1530l133 194h92 l-158 -194h-67zM416 1530l133 194h92l-160 -194h-65z" />
<glyph unicode="&#x152;" horiz-adv-x="1163" d="M74 356v721q0 77 17 140t51.5 112.5t93.5 77t137 27.5h717v-86h-420v-578h348v-86h-348v-598h420v-86h-717q-153 0 -226 98t-73 258zM168 352q0 -119 50 -192.5t157 -73.5h200v1262h-200q-107 0 -157 -74t-50 -193v-729z" />
<glyph unicode="&#x153;" horiz-adv-x="1163" d="M74 356v721q0 77 17 140t51.5 112.5t93.5 77t137 27.5h717v-86h-420v-578h348v-86h-348v-598h420v-86h-717q-153 0 -226 98t-73 258zM168 352q0 -119 50 -192.5t157 -73.5h200v1262h-200q-107 0 -157 -74t-50 -193v-729z" />
<glyph unicode="&#x154;" horiz-adv-x="790" d="M82 0v1434h299q307 0 307 -324v-125q0 -250 -207 -297q207 -46 207 -293v-223q0 -119 35 -172h-98q-31 53 -31 172v225q0 135 -68 189.5t-200 54.5h-150v-641h-94zM176 727h152q136 0 201 51.5t65 188.5v135q0 121 -51 183.5t-164 62.5h-203v-621zM291 1530l145 194h99 l-173 -194h-71z" />
<glyph unicode="&#x155;" horiz-adv-x="790" d="M82 0v1434h299q307 0 307 -324v-125q0 -250 -207 -297q207 -46 207 -293v-223q0 -119 35 -172h-98q-31 53 -31 172v225q0 135 -68 189.5t-200 54.5h-150v-641h-94zM176 727h152q136 0 201 51.5t65 188.5v135q0 121 -51 183.5t-164 62.5h-203v-621zM291 1530l145 194h99 l-173 -194h-71z" />
<glyph unicode="&#x156;" horiz-adv-x="790" d="M82 0v1434h299q307 0 307 -324v-125q0 -250 -207 -297q207 -46 207 -293v-223q0 -119 35 -172h-98q-31 53 -31 172v225q0 135 -68 189.5t-200 54.5h-150v-641h-94zM176 727h152q136 0 201 51.5t65 188.5v135q0 121 -51 183.5t-164 62.5h-203v-621zM336 -356l39 120h-27 v170h80v-161l-55 -129h-37z" />
<glyph unicode="&#x157;" horiz-adv-x="790" d="M82 0v1434h299q307 0 307 -324v-125q0 -250 -207 -297q207 -46 207 -293v-223q0 -119 35 -172h-98q-31 53 -31 172v225q0 135 -68 189.5t-200 54.5h-150v-641h-94zM176 727h152q136 0 201 51.5t65 188.5v135q0 121 -51 183.5t-164 62.5h-203v-621zM338 -358l41 120h-29 v170h82v-161l-55 -129h-39z" />
<glyph unicode="&#x158;" horiz-adv-x="790" d="M82 0v1434h299q307 0 307 -324v-125q0 -250 -207 -297q207 -46 207 -293v-223q0 -119 35 -172h-98q-31 53 -31 172v225q0 135 -68 189.5t-200 54.5h-150v-641h-94zM150 1712h88l124 -131l125 131h91l-175 -184h-81zM176 727h152q136 0 201 51.5t65 188.5v135 q0 121 -51 183.5t-164 62.5h-203v-621z" />
<glyph unicode="&#x159;" horiz-adv-x="790" d="M82 0v1434h299q307 0 307 -324v-125q0 -250 -207 -297q207 -46 207 -293v-223q0 -119 35 -172h-98q-31 53 -31 172v225q0 135 -68 189.5t-200 54.5h-150v-641h-94zM150 1712h88l124 -131l125 131h91l-175 -184h-81zM176 727h152q136 0 201 51.5t65 188.5v135 q0 121 -51 183.5t-164 62.5h-203v-621z" />
<glyph unicode="&#x15a;" horiz-adv-x="757" d="M70 346v74h90v-80q0 -123 52 -193.5t165 -70.5t165 70.5t52 193.5q0 70 -28.5 129t-74.5 101.5t-101 83t-110 82.5t-101 89.5t-74.5 115.5t-28.5 149q0 168 75 262t230 94q155 1 230 -96.5t75 -262.5v-30h-90v37q0 122 -51 194t-162 72q-213 0 -213 -264 q0 -70 28.5 -129.5t74.5 -103t101 -84.5t110 -83t101 -89.5t74.5 -114t28.5 -146.5q0 -164 -76 -260t-233 -96t-233 96t-76 260zM315 1530l146 194h98l-172 -194h-72z" />
<glyph unicode="&#x15b;" horiz-adv-x="757" d="M70 346v74h90v-80q0 -123 52 -193.5t165 -70.5t165 70.5t52 193.5q0 70 -28.5 129t-74.5 101.5t-101 83t-110 82.5t-101 89.5t-74.5 115.5t-28.5 149q0 168 75 262t230 94q155 1 230 -96.5t75 -262.5v-30h-90v37q0 122 -51 194t-162 72q-213 0 -213 -264 q0 -70 28.5 -129.5t74.5 -103t101 -84.5t110 -83t101 -89.5t74.5 -114t28.5 -146.5q0 -164 -76 -260t-233 -96t-233 96t-76 260zM315 1530l146 194h98l-172 -194h-72z" />
<glyph unicode="&#x15c;" horiz-adv-x="757" d="M70 346v74h90v-80q0 -123 52 -193.5t165 -70.5t165 70.5t52 193.5q0 70 -28.5 129t-74.5 101.5t-101 83t-110 82.5t-101 89.5t-74.5 115.5t-28.5 149q0 168 75 262t230 94q155 1 230 -96.5t75 -262.5v-30h-90v37q0 122 -51 194t-162 72q-213 0 -213 -264 q0 -70 28.5 -129.5t74.5 -103t101 -84.5t110 -83t101 -89.5t74.5 -114t28.5 -146.5q0 -164 -76 -260t-233 -96t-233 96t-76 260zM176 1526l172 184h82l172 -184h-88l-125 131l-125 -131h-88z" />
<glyph unicode="&#x15d;" horiz-adv-x="757" d="M70 346v74h90v-80q0 -123 52 -193.5t165 -70.5t165 70.5t52 193.5q0 70 -28.5 129t-74.5 101.5t-101 83t-110 82.5t-101 89.5t-74.5 115.5t-28.5 149q0 168 75 262t230 94q155 1 230 -96.5t75 -262.5v-30h-90v37q0 122 -51 194t-162 72q-213 0 -213 -264 q0 -70 28.5 -129.5t74.5 -103t101 -84.5t110 -83t101 -89.5t74.5 -114t28.5 -146.5q0 -164 -76 -260t-233 -96t-233 96t-76 260zM176 1526l172 184h82l172 -184h-88l-125 131l-125 -131h-88z" />
<glyph unicode="&#x15e;" horiz-adv-x="757" d="M70 346v74h90v-80q0 -123 52 -193.5t165 -70.5t165 70.5t52 193.5q0 70 -28.5 129t-74.5 101.5t-101 83t-110 82.5t-101 89.5t-74.5 115.5t-28.5 149q0 168 75 262t230 94q155 1 230 -96.5t75 -262.5v-30h-90v37q0 122 -51 194t-162 72q-213 0 -213 -264 q0 -70 28.5 -129.5t74.5 -103t101 -84.5t110 -83t101 -89.5t74.5 -114t28.5 -146.5q0 -159 -70.5 -254t-214.5 -102v-58q73 -2 113.5 -31.5t40.5 -82.5q0 -63 -48 -97.5t-134 -33.5q-86 0 -133 33.5t-47 95.5v12h65v-10q0 -35 30.5 -57t84.5 -23q54 -3 85.5 20t31.5 62 q0 36 -32 56t-91 20h-15v96q-145 4 -214.5 100.5t-69.5 253.5z" />
<glyph unicode="&#x15f;" horiz-adv-x="757" d="M70 346v74h90v-80q0 -123 52 -193.5t165 -70.5t165 70.5t52 193.5q0 70 -28.5 129t-74.5 101.5t-101 83t-110 82.5t-101 89.5t-74.5 115.5t-28.5 149q0 168 75 262t230 94q155 1 230 -96.5t75 -262.5v-30h-90v37q0 122 -51 194t-162 72q-213 0 -213 -264 q0 -70 28.5 -129.5t74.5 -103t101 -84.5t110 -83t101 -89.5t74.5 -114t28.5 -146.5q0 -159 -70.5 -254t-214.5 -102v-58q73 -2 113.5 -31.5t40.5 -82.5q0 -63 -48 -97.5t-134 -33.5q-86 0 -133 33.5t-47 95.5v12h65v-10q0 -35 30.5 -57t84.5 -23q54 -3 85.5 20t31.5 62 q0 36 -32 56t-91 20h-15v96q-145 4 -214.5 100.5t-69.5 253.5z" />
<glyph unicode="&#x160;" horiz-adv-x="757" d="M70 346v74h90v-80q0 -123 52 -193.5t165 -70.5t165 70.5t52 193.5q0 70 -28.5 129t-74.5 101.5t-101 83t-110 82.5t-101 89.5t-74.5 115.5t-28.5 149q0 168 75 262t230 94q155 1 230 -96.5t75 -262.5v-30h-90v37q0 122 -51 194t-162 72q-213 0 -213 -264 q0 -70 28.5 -129.5t74.5 -103t101 -84.5t110 -83t101 -89.5t74.5 -114t28.5 -146.5q0 -164 -76 -260t-233 -96t-233 96t-76 260zM172 1712h86l127 -131l125 131h88l-172 -184h-84z" />
<glyph unicode="&#x161;" horiz-adv-x="757" d="M70 346v74h90v-80q0 -123 52 -193.5t165 -70.5t165 70.5t52 193.5q0 70 -28.5 129t-74.5 101.5t-101 83t-110 82.5t-101 89.5t-74.5 115.5t-28.5 149q0 168 75 262t230 94q155 1 230 -96.5t75 -262.5v-30h-90v37q0 122 -51 194t-162 72q-213 0 -213 -264 q0 -70 28.5 -129.5t74.5 -103t101 -84.5t110 -83t101 -89.5t74.5 -114t28.5 -146.5q0 -164 -76 -260t-233 -96t-233 96t-76 260zM170 1712h88l125 -131l125 131h90l-174 -184h-82z" />
<glyph unicode="&#x162;" horiz-adv-x="794" d="M57 1348v86h680v-86h-293v-1348h-18v-68q139 -3 139 -118q0 -70 -51.5 -105t-122.5 -35q-68 0 -120 34t-52 97v13h57v-13q0 -39 35.5 -58t79.5 -19q44 -2 79.5 19.5t35.5 64.5q0 79 -123 79h-14v109h-19v1348h-293z" />
<glyph unicode="&#x163;" horiz-adv-x="794" d="M57 1348v86h680v-86h-293v-1348h-18v-72q141 -4 141 -114q0 -69 -54 -104.5t-124 -35.5q-68 0 -119 34t-51 97v13h57v-13q0 -39 35.5 -58t79.5 -19q44 -2 79.5 19.5t35.5 64.5q0 79 -125 79h-14v109h-17v1348h-293z" />
<glyph unicode="&#x164;" horiz-adv-x="794" d="M57 1348v86h680v-86h-293v-1348h-94v1348h-293zM184 1702h86l127 -129l125 129h88l-172 -184h-84z" />
<glyph unicode="&#x165;" horiz-adv-x="794" d="M57 1348v86h680v-86h-293v-1348h-94v1348h-293zM184 1702h86l127 -129l125 129h88l-172 -184h-84z" />
<glyph unicode="&#x166;" horiz-adv-x="794" d="M57 1348v86h680v-86h-293v-396h156v-71h-156v-881h-94v881h-155v71h155v396h-293z" />
<glyph unicode="&#x167;" horiz-adv-x="794" d="M57 1348v86h680v-86h-293v-396h156v-71h-156v-881h-94v881h-155v71h155v396h-293z" />
<glyph unicode="&#x168;" d="M78 350v1084h94v-1088q0 -126 51.5 -199t163.5 -73t163.5 73t51.5 199v1088h88v-1084q0 -165 -74 -262.5t-231 -97.5q-80 0 -140 27t-96 76.5t-53.5 113.5t-17.5 143zM164 1581q47 96 129 96q40 0 101 -34t89 -33q48 0 76 61l51 -33q-42 -98 -118 -98q-40 -1 -100 34.5 t-91 35.5q-56 0 -86 -64z" />
<glyph unicode="&#x169;" d="M78 350v1084h94v-1088q0 -126 51.5 -199t163.5 -73t163.5 73t51.5 199v1088h88v-1084q0 -165 -74 -262.5t-231 -97.5q-80 0 -140 27t-96 76.5t-53.5 113.5t-17.5 143zM164 1581q47 96 129 96q40 0 101 -34t89 -33q48 0 76 61l51 -33q-42 -98 -118 -98q-40 -1 -100 34.5 t-91 35.5q-56 0 -86 -64z" />
<glyph unicode="&#x16a;" d="M78 350v1084h94v-1088q0 -126 51.5 -199t163.5 -73t163.5 73t51.5 199v1088h88v-1084q0 -165 -74 -262.5t-231 -97.5q-80 0 -140 27t-96 76.5t-53.5 113.5t-17.5 143zM205 1556v68h373v-68h-373z" />
<glyph unicode="&#x16b;" d="M78 350v1084h94v-1088q0 -126 51.5 -199t163.5 -73t163.5 73t51.5 199v1088h88v-1084q0 -165 -74 -262.5t-231 -97.5q-80 0 -140 27t-96 76.5t-53.5 113.5t-17.5 143zM205 1556v68h373v-68h-373z" />
<glyph unicode="&#x16c;" d="M78 350v1084h94v-1088q0 -126 51.5 -199t163.5 -73t163.5 73t51.5 199v1088h88v-1084q0 -165 -74 -262.5t-231 -97.5q-80 0 -140 27t-96 76.5t-53.5 113.5t-17.5 143zM188 1696h62q4 -60 41.5 -89.5t95.5 -29.5t96.5 29.5t42.5 89.5h60q-1 -85 -56 -134t-143 -49t-143 49 t-56 134z" />
<glyph unicode="&#x16d;" d="M78 350v1084h94v-1088q0 -126 51.5 -199t163.5 -73t163.5 73t51.5 199v1088h88v-1084q0 -165 -74 -262.5t-231 -97.5q-80 0 -140 27t-96 76.5t-53.5 113.5t-17.5 143zM188 1696h62q4 -60 41.5 -89.5t95.5 -29.5t96.5 29.5t42.5 89.5h60q-1 -85 -56 -134t-143 -49t-143 49 t-56 134z" />
<glyph unicode="&#x16e;" d="M78 350v1084h94v-1088q0 -126 51.5 -199t163.5 -73t163.5 73t51.5 199v1088h88v-1084q0 -165 -74 -262.5t-231 -97.5q-80 0 -140 27t-96 76.5t-53.5 113.5t-17.5 143zM256 1642q0 59 39.5 97.5t97.5 38.5q60 0 99.5 -38t39.5 -98q0 -57 -39.5 -96t-99.5 -39q-57 0 -97 39 t-40 96zM307 1642q0 -37 24.5 -61.5t61.5 -24.5t62.5 24.5t25.5 61.5q0 38 -25.5 62.5t-62.5 24.5t-61.5 -24.5t-24.5 -62.5z" />
<glyph unicode="&#x16f;" d="M78 350v1084h94v-1088q0 -126 51.5 -199t163.5 -73t163.5 73t51.5 199v1088h88v-1084q0 -165 -74 -262.5t-231 -97.5q-80 0 -140 27t-96 76.5t-53.5 113.5t-17.5 143zM256 1642q0 59 39.5 97.5t97.5 38.5q60 0 99.5 -38t39.5 -98q0 -57 -39.5 -96t-99.5 -39q-57 0 -97 39 t-40 96zM307 1642q0 -37 24.5 -61.5t61.5 -24.5t62.5 24.5t25.5 61.5q0 38 -25.5 62.5t-62.5 24.5t-61.5 -24.5t-24.5 -62.5z" />
<glyph unicode="&#x170;" d="M78 350v1084h94v-1088q0 -126 51.5 -199t163.5 -73t163.5 73t51.5 199v1088h88v-1084q0 -165 -74 -262.5t-231 -97.5q-80 0 -140 27t-96 76.5t-53.5 113.5t-17.5 143zM236 1526l133 194h92l-158 -194h-67zM410 1526l133 194h92l-160 -194h-65z" />
<glyph unicode="&#x171;" d="M78 350v1084h94v-1088q0 -126 51.5 -199t163.5 -73t163.5 73t51.5 199v1088h88v-1084q0 -165 -74 -262.5t-231 -97.5q-80 0 -140 27t-96 76.5t-53.5 113.5t-17.5 143zM236 1526l133 194h92l-158 -194h-67zM410 1526l133 194h92l-160 -194h-65z" />
<glyph unicode="&#x172;" d="M78 350v1084h94v-1088q0 -126 51.5 -199t163.5 -73t163.5 73t51.5 199v1088h88v-1084q0 -273 -176 -344q-40 -29 -67 -79t-25 -89q8 -65 82 -65q49 0 90 26v-57q-52 -27 -115 -27q-59 2 -94.5 27.5t-36.5 77.5q-1 45 26 91t72 83q-36 -4 -61 -4q-80 0 -140 27t-96 76.5 t-53.5 113.5t-17.5 143z" />
<glyph unicode="&#x173;" d="M78 350v1084h94v-1088q0 -126 51.5 -199t163.5 -73t163.5 73t51.5 199v1088h88v-1084q0 -273 -176 -344q-40 -29 -67 -79t-25 -89q8 -65 82 -65q49 0 90 26v-57q-52 -27 -115 -27q-59 2 -94.5 27.5t-36.5 77.5q-1 45 26 91t72 83q-36 -4 -61 -4q-80 0 -140 27t-96 76.5 t-53.5 113.5t-17.5 143z" />
<glyph unicode="&#x174;" horiz-adv-x="1234" d="M63 1434h93l215 -1307l209 1300h100l201 -1296l206 1303h84l-229 -1434h-123l-192 1174l-201 -1174h-131zM410 1522l172 184h82l172 -184h-88l-125 131l-125 -131h-88z" />
<glyph unicode="&#x175;" horiz-adv-x="1234" d="M63 1434h93l215 -1307l209 1300h100l201 -1296l206 1303h84l-229 -1434h-123l-192 1174l-201 -1174h-131zM410 1522l172 184h82l172 -184h-88l-125 131l-125 -131h-88z" />
<glyph unicode="&#x176;" horiz-adv-x="849" d="M55 1434h99l274 -754l274 754h93l-324 -883v-551h-94v551zM215 1522l172 184h82l172 -184h-88l-125 129l-125 -129h-88z" />
<glyph unicode="&#x177;" horiz-adv-x="849" d="M55 1434h99l274 -754l274 754h93l-324 -883v-551h-94v551zM215 1522l172 184h82l172 -184h-88l-125 129l-125 -129h-88z" />
<glyph unicode="&#x178;" horiz-adv-x="849" d="M55 1434h99l274 -754l274 754h93l-324 -883v-551h-94v551zM285 1518v172h84v-172h-84zM483 1518v172h84v-172h-84z" />
<glyph unicode="&#x179;" horiz-adv-x="794" d="M70 0v86l555 1262h-529v86h627v-88l-555 -1260h547v-86h-645zM350 1530l146 194h98l-172 -194h-72z" />
<glyph unicode="&#x17a;" horiz-adv-x="794" d="M70 0v86l555 1262h-529v86h627v-88l-555 -1260h547v-86h-645zM350 1530l146 194h98l-172 -194h-72z" />
<glyph unicode="&#x17b;" horiz-adv-x="794" d="M70 0v86l555 1262h-529v86h627v-88l-555 -1260h547v-86h-645zM383 1528v172h84v-172h-84z" />
<glyph unicode="&#x17c;" horiz-adv-x="794" d="M70 0v86l555 1262h-529v86h627v-88l-555 -1260h547v-86h-645zM383 1528v172h84v-172h-84z" />
<glyph unicode="&#x17d;" horiz-adv-x="794" d="M70 0v86l555 1262h-529v86h627v-88l-555 -1260h547v-86h-645zM199 1710h86l127 -129l125 129h88l-172 -184h-82z" />
<glyph unicode="&#x17e;" horiz-adv-x="794" d="M70 0v86l555 1262h-529v86h627v-88l-555 -1260h547v-86h-645zM199 1710h86l127 -129l125 129h88l-172 -184h-82z" />
<glyph unicode="&#x1fc;" horiz-adv-x="1206" d="M55 0l510 1434h568v-86h-418v-578h346v-86h-346v-598h418v-86h-512v322h-359l-117 -322h-90zM287 406h334v911zM600 1526l145 194h99l-172 -194h-72z" />
<glyph unicode="&#x1fd;" horiz-adv-x="1206" d="M55 0l510 1434h568v-86h-418v-578h346v-86h-346v-598h418v-86h-512v322h-359l-117 -322h-90zM287 406h334v911zM600 1526l145 194h99l-172 -194h-72z" />
<glyph unicode="&#x1fe;" horiz-adv-x="780" d="M76 350v733q0 164 78 263.5t235 99.5q139 0 221 -82l39 100l45 -16l-47 -127q60 -92 60 -238v-733q0 -164 -79.5 -262t-238.5 -98q-142 0 -219 80l-41 -103l-47 17l51 133q-57 86 -57 233zM170 344q0 -49 10 -104l393 1026q-58 94 -184 94q-113 0 -166 -72.5t-53 -197.5 v-746zM207 170q57 -96 182 -96q113 0 168 73t55 197v746q0 58 -12 110zM326 1530l145 194h98l-172 -194h-71z" />
<glyph unicode="&#x1ff;" horiz-adv-x="780" d="M76 350v733q0 164 78 263.5t235 99.5q139 0 221 -82l39 100l45 -16l-47 -127q60 -92 60 -238v-733q0 -164 -79.5 -262t-238.5 -98q-142 0 -219 80l-41 -103l-47 17l51 133q-57 86 -57 233zM170 344q0 -49 10 -104l393 1026q-58 94 -184 94q-113 0 -166 -72.5t-53 -197.5 v-746zM207 170q57 -96 182 -96q113 0 168 73t55 197v746q0 58 -12 110zM326 1530l145 194h98l-172 -194h-71z" />
<glyph unicode="&#x218;" horiz-adv-x="757" d="M70 346v74h90v-80q0 -123 52 -193.5t165 -70.5t165 70.5t52 193.5q0 70 -28.5 129t-74.5 101.5t-101 83t-110 82.5t-101 89.5t-74.5 115.5t-28.5 149q0 168 75 262t230 94q155 1 230 -96.5t75 -262.5v-30h-90v37q0 122 -51 194t-162 72q-213 0 -213 -264 q0 -70 28.5 -129.5t74.5 -103t101 -84.5t110 -83t101 -89.5t74.5 -114t28.5 -146.5q0 -164 -76 -260t-233 -96t-233 96t-76 260zM324 -358l41 120h-29v170h82v-161l-56 -129h-38z" />
<glyph unicode="&#x219;" horiz-adv-x="757" d="M70 346v74h90v-80q0 -123 52 -193.5t165 -70.5t165 70.5t52 193.5q0 70 -28.5 129t-74.5 101.5t-101 83t-110 82.5t-101 89.5t-74.5 115.5t-28.5 149q0 168 75 262t230 94q155 1 230 -96.5t75 -262.5v-30h-90v37q0 122 -51 194t-162 72q-213 0 -213 -264 q0 -70 28.5 -129.5t74.5 -103t101 -84.5t110 -83t101 -89.5t74.5 -114t28.5 -146.5q0 -164 -76 -260t-233 -96t-233 96t-76 260zM324 -358l41 120h-29v170h82v-161l-56 -129h-38z" />
<glyph unicode="&#x21a;" horiz-adv-x="794" d="M57 1348v86h680v-86h-293v-1348h-94v1348h-293zM344 -358l41 120h-29v170h82v-161l-55 -129h-39z" />
<glyph unicode="&#x21b;" horiz-adv-x="794" d="M57 1348v86h680v-86h-293v-1348h-94v1348h-293zM344 -358l41 120h-29v170h82v-161l-55 -129h-39z" />
<glyph unicode="&#x2c6;" horiz-adv-x="512" d="M43 1552l172 185h82l172 -185h-88l-125 129l-125 -129h-88z" />
<glyph unicode="&#x2da;" horiz-adv-x="446" d="M86 1667q0 57 40 96t97 39t97 -39t40 -96q0 -59 -39.5 -98t-97.5 -39t-97.5 39t-39.5 98zM135 1667q0 -38 25.5 -62t62.5 -24q36 0 62 24.5t26 61.5q0 36 -26 61t-62 25q-37 0 -62.5 -24.5t-25.5 -61.5z" />
<glyph unicode="&#x2dc;" horiz-adv-x="536" d="M45 1579q47 96 129 96q40 0 102 -33.5t89 -33.5q44 0 75 61l52 -33q-42 -98 -119 -98q-41 -1 -101.5 33.5t-89.5 34.5q-51 0 -86 -62z" />
<glyph unicode="&#x401;" horiz-adv-x="718" d="M82 0v1434h565v-86h-471v-578h391v-86h-391v-598h471v-86h-565zM223 1526v174h84v-174h-84zM422 1526v174h84v-174h-84z" />
<glyph unicode="&#x404;" horiz-adv-x="765" d="M72 350v733q0 165 76 264t233 99t232 -99t75 -264v-90h-88v97q0 124 -52 197t-163 73q-113 0 -166 -73.5t-53 -196.5v-306h293v-86h-293v-354q0 -123 53 -195.5t166 -72.5q111 0 163 72.5t52 195.5v145h90v-139q0 -165 -76 -262.5t-233 -97.5t-233 97.5t-76 262.5z" />
<glyph unicode="&#x405;" horiz-adv-x="757" d="M70 346v74h90v-80q0 -123 52 -193.5t165 -70.5t165 70.5t52 193.5q0 70 -28.5 129t-74.5 101.5t-101 83t-110 82.5t-101 89.5t-74.5 115.5t-28.5 149q0 168 75 262t230 94q155 1 230 -96.5t75 -262.5v-30h-90v37q0 122 -51 194t-162 72q-213 0 -213 -264 q0 -70 28.5 -129.5t74.5 -103t101 -84.5t110 -83t101 -89.5t74.5 -114t28.5 -146.5q0 -164 -76 -260t-233 -96t-233 96t-76 260z" />
<glyph unicode="&#x406;" horiz-adv-x="258" d="M82 0v1434h94v-1434h-94z" />
<glyph unicode="&#x407;" horiz-adv-x="258" d="M-10 1518v172h82v-172h-82zM82 0v1434h94v-1434h-94zM186 1518v172h84v-172h-84z" />
<glyph unicode="&#x408;" horiz-adv-x="518" d="M59 0v86q30 -2 84 2q105 8 154 67.5t49 190.5v1088h94v-1082q0 -181 -74 -263.5t-212 -88.5h-95z" />
<glyph unicode="&#x410;" horiz-adv-x="892" d="M61 0l314 1436h137l319 -1436h-94l-71 317h-447l-72 -317h-86zM233 399h418l-211 928z" />
<glyph unicode="&#x411;" horiz-adv-x="792" d="M82 0v1434h580v-86h-486v-525h205q169 0 251.5 -75.5t82.5 -243.5v-162q0 -342 -318 -342h-315zM176 86h221q119 0 171.5 62t52.5 188v174q0 126 -58 175.5t-182 49.5h-205v-649z" />
<glyph unicode="&#x412;" horiz-adv-x="774" d="M82 0v1434h301q157 0 225 -76t68 -230v-81q0 -123 -42.5 -192t-146.5 -91q215 -43 215 -307v-125q0 -332 -313 -332h-307zM176 86h213q116 0 167.5 61.5t51.5 186.5v129q0 136 -61.5 194t-192.5 58h-178v-629zM176 801h160q133 0 189.5 48t56.5 179v92q0 118 -45 173 t-156 55h-205v-547z" />
<glyph unicode="&#x413;" horiz-adv-x="708" d="M82 0v1434h551v-86h-457v-1348h-94z" />
<glyph unicode="&#x414;" horiz-adv-x="1001" d="M63 86h99q39 40 53 94t18 135l58 1119h524v-1348h119v-283h-94v197h-684v-197h-93v283zM258 86h461v1262h-340l-53 -1033q-3 -85 -16.5 -137.5t-51.5 -91.5z" />
<glyph unicode="&#x415;" horiz-adv-x="718" d="M82 0v1434h565v-86h-471v-578h391v-86h-391v-598h471v-86h-565z" />
<glyph unicode="&#x416;" horiz-adv-x="1275" d="M57 0l375 805l-358 629h96l420 -738v738h94v-738l420 738h98l-356 -627l371 -807h-97l-340 717l-96 -164v-553h-94v555l-94 162l-340 -717h-99z" />
<glyph unicode="&#x417;" horiz-adv-x="774" d="M78 350v119h90v-125q0 -124 52 -197t165 -73q217 0 217 278v111q0 111 -59 176.5t-162 65.5h-80v86h86q95 0 155 68t60 169v53q0 279 -217 279q-113 0 -166 -72.5t-53 -197.5v-78h-86v73q0 164 75.5 262.5t231.5 98.5q157 0 233 -99t76 -264v-36q0 -107 -50.5 -186 t-143.5 -109q96 -28 145 -105.5t49 -185.5v-111q0 -165 -76 -262.5t-233 -97.5t-233 97.5t-76 262.5z" />
<glyph unicode="&#x418;" horiz-adv-x="800" d="M82 0v1434h86v-1227l209 586l231 641h113v-1434h-86v1268l-215 -594l-236 -674h-102z" />
<glyph unicode="&#x419;" horiz-adv-x="802" d="M82 0v1434h86v-1227l186 522l254 705h113v-1434h-86v1268l-205 -570l-246 -698h-102zM207 1704h65q1 -57 40.5 -85t99.5 -28q61 0 100 28t43 85h63q-1 -81 -57.5 -127.5t-148.5 -46.5q-90 0 -147 45.5t-58 128.5z" />
<glyph unicode="&#x41a;" horiz-adv-x="827" d="M82 0v1434h94v-758l467 758h98l-409 -668l436 -766h-98l-396 674l-98 -156v-518h-94z" />
<glyph unicode="&#x41b;" horiz-adv-x="897" d="M59 0v84q47 0 80 15t50.5 36t28 60.5t13.5 69.5t5 83l43 1086h534v-1434h-96v1348h-350l-37 -998q-3 -67 -8.5 -113t-21.5 -94.5t-42.5 -77t-71.5 -47t-108 -18.5h-19z" />
<glyph unicode="&#x41c;" horiz-adv-x="1034" d="M82 0v1434h135l301 -1268l299 1268h135v-1434h-90v1274l-299 -1272h-94l-303 1268v-1270h-84z" />
<glyph unicode="&#x41d;" horiz-adv-x="800" d="M82 0v1434h94v-674h447v674h96v-1434h-96v674h-447v-674h-94z" />
<glyph unicode="&#x41e;" horiz-adv-x="780" d="M76 350v733q0 164 78 263.5t235 99.5q159 0 238.5 -99.5t79.5 -263.5v-733q0 -164 -79.5 -262t-238.5 -98q-157 0 -235 98t-78 262zM170 344q0 -125 53 -197.5t166 -72.5t168 73t55 197v746q0 124 -55 197t-168 73t-166 -72.5t-53 -197.5v-746z" />
<glyph unicode="&#x41f;" horiz-adv-x="800" d="M82 0v1434h637v-1434h-96v1348h-447v-1348h-94z" />
<glyph unicode="&#x420;" horiz-adv-x="745" d="M82 0v1434h297q307 0 307 -349v-155q0 -173 -80.5 -256.5t-251.5 -83.5h-178v-590h-94zM176 676h178q125 0 181.5 59t56.5 189v168q0 125 -48.5 190.5t-164.5 65.5h-203v-672z" />
<glyph unicode="&#x421;" horiz-adv-x="765" d="M76 350v733q0 165 76 264t233 99t233 -99t76 -264v-118h-90v125q0 124 -52 197t-165 73t-165 -73t-52 -197v-746q0 -124 52 -196t165 -72t165 72t52 196v170h90v-164q0 -165 -76 -262.5t-233 -97.5t-233 97.5t-76 262.5z" />
<glyph unicode="&#x422;" horiz-adv-x="794" d="M57 1348v86h680v-86h-293v-1348h-94v1348h-293z" />
<glyph unicode="&#x423;" horiz-adv-x="872" d="M57 1434h97l168 -506l124 -383l115 385l156 504h98l-371 -1168q-15 -47 -27.5 -79t-31 -66t-40.5 -54.5t-52.5 -38t-71.5 -24t-92 -4.5v84q93 -1 137 37.5t76 130.5l59 174z" />
<glyph unicode="&#x424;" horiz-adv-x="1138" d="M76 516v391q0 176 79 268.5t251 92.5h116v166h92v-166h117q172 0 251 -92t79 -269v-391q0 -177 -79 -268.5t-251 -91.5h-117v-156h-92v156h-116q-172 0 -251 92t-79 268zM168 510q0 -134 56.5 -202t181.5 -68h116v944h-116q-125 0 -181.5 -68.5t-56.5 -202.5v-403z M614 240h117q125 0 181.5 68t56.5 202v403q0 134 -56.5 202.5t-181.5 68.5h-117v-944z" />
<glyph unicode="&#x425;" horiz-adv-x="901" d="M63 0l324 743l-301 691h98l271 -617l272 617h90l-301 -691l322 -743h-101l-291 668l-290 -668h-93z" />
<glyph unicode="&#x426;" horiz-adv-x="931" d="M109 0v1434h92v-1348h446v1348h96v-1348h119v-276h-92v190h-661z" />
<glyph unicode="&#x427;" horiz-adv-x="792" d="M76 897v537h94v-531q0 -118 55.5 -194t165.5 -76q179 0 225 186v615h95v-1434h-95v688q-82 -141 -251 -141q-98 0 -164.5 48t-95.5 125t-29 177z" />
<glyph unicode="&#x428;" horiz-adv-x="1155" d="M82 0v1434h94v-1348h354v1348h95v-1348h354v1348h94v-1434h-991z" />
<glyph unicode="&#x429;" horiz-adv-x="1259" d="M82 0v1434h94v-1348h352v1348h95v-1348h356l-2 1348h94v-1348h121v-276h-92v190h-1018z" />
<glyph unicode="&#x42a;" horiz-adv-x="890" d="M20 1348v86h289v-590h178q171 0 251.5 -83.5t80.5 -256.5v-156q0 -348 -307 -348h-297v1348h-195zM309 86h203q116 0 164.5 65.5t48.5 190.5v168q0 130 -57 189t-181 59h-178v-672z" />
<glyph unicode="&#x42b;" horiz-adv-x="997" d="M82 0v1434h94v-590h176q172 0 253 -83.5t81 -256.5v-156q0 -165 -75 -256.5t-234 -91.5h-295zM176 86h201q116 0 165.5 66t49.5 190v168q0 130 -57.5 189t-182.5 59h-176v-672zM821 0v1434h94v-1434h-94z" />
<glyph unicode="&#x42c;" horiz-adv-x="757" d="M82 0v1434h94v-590h176q172 0 253 -83.5t81 -256.5v-156q0 -165 -75 -256.5t-234 -91.5h-295zM176 86h201q116 0 165.5 66t49.5 190v168q0 130 -57.5 189t-182.5 59h-176v-672z" />
<glyph unicode="&#x42d;" horiz-adv-x="765" d="M72 350v139h90v-145q0 -123 52 -195.5t163 -72.5q113 0 166 72.5t53 195.5v354h-293v86h293v306q0 123 -53 196.5t-166 73.5q-111 0 -163 -73t-52 -197v-97h-88v90q0 165 75 264t232 99t233 -99t76 -264v-733q0 -165 -76 -262.5t-233 -97.5t-233 97.5t-76 262.5z" />
<glyph unicode="&#x42e;" horiz-adv-x="1130" d="M82 0v1434h94v-674h248v323q0 164 78 263.5t237 99.5q157 0 236.5 -99.5t79.5 -263.5v-733q0 -163 -79 -261.5t-237 -98.5q-159 0 -237 98t-78 262v324h-248v-674h-94zM518 344q0 -124 54 -197t167 -73t167.5 73t54.5 197v746q0 124 -54.5 197t-167.5 73t-167 -73 t-54 -197v-746z" />
<glyph unicode="&#x42f;" horiz-adv-x="790" d="M68 0q34 52 34 172v223q0 247 207 293q-207 47 -207 297v125q0 324 308 324h299v-1434h-95v641h-149q-132 0 -200 -54.5t-68 -189.5v-225q0 -119 -31 -172h-98zM197 967q0 -137 65 -188.5t201 -51.5h151v621h-202q-113 0 -164 -62.5t-51 -183.5v-135z" />
<glyph unicode="&#x430;" horiz-adv-x="892" d="M61 0l314 1436h137l319 -1436h-94l-71 317h-447l-72 -317h-86zM233 399h418l-211 928z" />
<glyph unicode="&#x431;" horiz-adv-x="792" d="M82 0v1434h580v-86h-486v-525h205q169 0 251.5 -75.5t82.5 -243.5v-162q0 -342 -318 -342h-315zM176 86h221q119 0 171.5 62t52.5 188v174q0 126 -58 175.5t-182 49.5h-205v-649z" />
<glyph unicode="&#x432;" horiz-adv-x="774" d="M82 0v1434h301q157 0 225 -76t68 -230v-81q0 -123 -42.5 -192t-146.5 -91q215 -43 215 -307v-125q0 -332 -313 -332h-307zM176 86h213q116 0 167.5 61.5t51.5 186.5v129q0 136 -61.5 194t-192.5 58h-178v-629zM176 801h160q133 0 189.5 48t56.5 179v92q0 118 -45 173 t-156 55h-205v-547z" />
<glyph unicode="&#x433;" horiz-adv-x="708" d="M82 0v1434h551v-86h-457v-1348h-94z" />
<glyph unicode="&#x434;" horiz-adv-x="1001" d="M63 86h99q39 40 53 94t18 135l58 1119h524v-1348h119v-283h-94v197h-684v-197h-93v283zM258 86h461v1262h-340l-53 -1033q-3 -85 -16.5 -137.5t-51.5 -91.5z" />
<glyph unicode="&#x435;" horiz-adv-x="718" d="M82 0v1434h565v-86h-471v-578h391v-86h-391v-598h471v-86h-565z" />
<glyph unicode="&#x436;" horiz-adv-x="1275" d="M57 0l375 805l-358 629h96l420 -738v738h94v-738l420 738h98l-356 -627l371 -807h-97l-340 717l-96 -164v-553h-94v555l-94 162l-340 -717h-99z" />
<glyph unicode="&#x437;" horiz-adv-x="774" d="M78 350v119h90v-125q0 -124 52 -197t165 -73q217 0 217 278v111q0 111 -59 176.5t-162 65.5h-80v86h86q95 0 155 68t60 169v53q0 279 -217 279q-113 0 -166 -72.5t-53 -197.5v-78h-86v73q0 164 75.5 262.5t231.5 98.5q157 0 233 -99t76 -264v-36q0 -107 -50.5 -186 t-143.5 -109q96 -28 145 -105.5t49 -185.5v-111q0 -165 -76 -262.5t-233 -97.5t-233 97.5t-76 262.5z" />
<glyph unicode="&#x438;" horiz-adv-x="800" d="M82 0v1434h86v-1227l166 473l274 754h113v-1434h-86v1268l-217 -602l-234 -666h-102z" />
<glyph unicode="&#x439;" horiz-adv-x="802" d="M82 0v1434h86v-1227l180 510l260 717h113v-1434h-86v1268l-451 -1268h-102zM207 1700h65q1 -58 40.5 -86.5t99.5 -28.5q61 0 100 28t43 87h63q-1 -83 -57 -128.5t-149 -45.5q-90 0 -147 45.5t-58 128.5z" />
<glyph unicode="&#x43a;" horiz-adv-x="827" d="M82 0v1434h94v-758l467 758h98l-409 -668l436 -766h-98l-396 674l-98 -156v-518h-94z" />
<glyph unicode="&#x43b;" horiz-adv-x="897" d="M59 0v84q47 0 80 15t50.5 36t28 60.5t13.5 69.5t5 83l43 1086h534v-1434h-96v1348h-350l-37 -998q-3 -67 -8.5 -113t-21.5 -94.5t-42.5 -77t-71.5 -47t-108 -18.5h-19z" />
<glyph unicode="&#x43c;" horiz-adv-x="1034" d="M82 0v1434h135l301 -1268l299 1268h135v-1434h-90v1274l-299 -1272h-94l-303 1268v-1270h-84z" />
<glyph unicode="&#x43d;" horiz-adv-x="800" d="M82 0v1434h94v-674h447v674h96v-1434h-96v674h-447v-674h-94z" />
<glyph unicode="&#x43e;" horiz-adv-x="780" d="M76 350v733q0 164 78 263.5t235 99.5q159 0 238.5 -99.5t79.5 -263.5v-733q0 -164 -79.5 -262t-238.5 -98q-157 0 -235 98t-78 262zM170 344q0 -125 53 -197.5t166 -72.5t168 73t55 197v746q0 124 -55 197t-168 73t-166 -72.5t-53 -197.5v-746z" />
<glyph unicode="&#x43f;" horiz-adv-x="800" d="M82 0v1434h637v-1434h-96v1348h-447v-1348h-94z" />
<glyph unicode="&#x440;" horiz-adv-x="745" d="M82 0v1434h297q307 0 307 -349v-155q0 -173 -80.5 -256.5t-251.5 -83.5h-178v-590h-94zM176 676h178q125 0 181.5 59t56.5 189v168q0 125 -48.5 190.5t-164.5 65.5h-203v-672z" />
<glyph unicode="&#x441;" horiz-adv-x="765" d="M76 350v733q0 165 76 264t233 99t233 -99t76 -264v-118h-90v125q0 124 -52 197t-165 73t-165 -73t-52 -197v-746q0 -124 52 -196t165 -72t165 72t52 196v170h90v-164q0 -165 -76 -262.5t-233 -97.5t-233 97.5t-76 262.5z" />
<glyph unicode="&#x442;" horiz-adv-x="794" d="M57 1348v86h680v-86h-293v-1348h-94v1348h-293z" />
<glyph unicode="&#x443;" horiz-adv-x="872" d="M57 1434h97l168 -506l124 -383l115 385l156 504h98l-371 -1168q-15 -47 -27.5 -79t-31 -66t-40.5 -54.5t-52.5 -38t-71.5 -24t-92 -4.5v84q93 -1 137 37.5t76 130.5l59 174z" />
<glyph unicode="&#x444;" horiz-adv-x="1138" d="M76 516v391q0 176 79 268.5t251 92.5h116v166h92v-166h117q172 0 251 -92t79 -269v-391q0 -177 -79 -268.5t-251 -91.5h-117v-156h-92v156h-116q-172 0 -251 92t-79 268zM168 510q0 -134 56.5 -202t181.5 -68h116v944h-116q-125 0 -181.5 -68.5t-56.5 -202.5v-403z M614 240h117q125 0 181.5 68t56.5 202v403q0 134 -56.5 202.5t-181.5 68.5h-117v-944z" />
<glyph unicode="&#x445;" horiz-adv-x="901" d="M63 0l324 743l-301 691h98l271 -617l272 617h90l-301 -691l322 -743h-101l-291 668l-290 -668h-93z" />
<glyph unicode="&#x446;" horiz-adv-x="931" d="M109 0v1434h92v-1348h446v1348h96v-1348h119v-276h-92v190h-661z" />
<glyph unicode="&#x447;" horiz-adv-x="792" d="M76 897v537h94v-531q0 -118 55.5 -194t165.5 -76q179 0 225 186v615h95v-1434h-95v688q-82 -141 -251 -141q-98 0 -164.5 48t-95.5 125t-29 177z" />
<glyph unicode="&#x448;" horiz-adv-x="1155" d="M82 0v1434h94v-1348h354v1348h95v-1348h354v1348h94v-1434h-991z" />
<glyph unicode="&#x449;" horiz-adv-x="1259" d="M82 0v1434h94v-1348h352v1348h95v-1348h356l-2 1348h94v-1348h121v-276h-92v190h-1018z" />
<glyph unicode="&#x44a;" horiz-adv-x="890" d="M20 1348v86h289v-590h178q171 0 251.5 -83.5t80.5 -256.5v-156q0 -348 -307 -348h-297v1348h-195zM309 86h203q116 0 164.5 65.5t48.5 190.5v168q0 130 -57 189t-181 59h-178v-672z" />
<glyph unicode="&#x44b;" horiz-adv-x="997" d="M82 0v1434h94v-590h176q172 0 253 -83.5t81 -256.5v-156q0 -165 -75 -256.5t-234 -91.5h-295zM176 86h201q116 0 165.5 66t49.5 190v168q0 130 -57.5 189t-182.5 59h-176v-672zM821 0v1434h94v-1434h-94z" />
<glyph unicode="&#x44c;" horiz-adv-x="757" d="M82 0v1434h94v-590h176q172 0 253 -83.5t81 -256.5v-156q0 -165 -75 -256.5t-234 -91.5h-295zM176 86h201q116 0 165.5 66t49.5 190v168q0 130 -57.5 189t-182.5 59h-176v-672z" />
<glyph unicode="&#x44d;" horiz-adv-x="765" d="M72 350v139h90v-145q0 -123 52 -195.5t163 -72.5q113 0 166 72.5t53 195.5v354h-293v86h293v306q0 123 -53 196.5t-166 73.5q-111 0 -163 -73t-52 -197v-97h-88v90q0 165 75 264t232 99t233 -99t76 -264v-733q0 -165 -76 -262.5t-233 -97.5t-233 97.5t-76 262.5z" />
<glyph unicode="&#x44e;" horiz-adv-x="1130" d="M82 0v1434h94v-674h248v323q0 164 78 263.5t237 99.5q157 0 236.5 -99.5t79.5 -263.5v-733q0 -163 -79 -261.5t-237 -98.5q-159 0 -237 98t-78 262v324h-248v-674h-94zM518 344q0 -124 54 -197t167 -73t167.5 73t54.5 197v746q0 124 -54.5 197t-167.5 73t-167 -73 t-54 -197v-746z" />
<glyph unicode="&#x44f;" horiz-adv-x="790" d="M68 0q34 52 34 172v223q0 247 207 293q-207 47 -207 297v125q0 324 308 324h299v-1434h-95v641h-149q-132 0 -200 -54.5t-68 -189.5v-225q0 -119 -31 -172h-98zM197 967q0 -137 65 -188.5t201 -51.5h151v621h-202q-113 0 -164 -62.5t-51 -183.5v-135z" />
<glyph unicode="&#x451;" horiz-adv-x="718" d="M82 0v1434h565v-86h-471v-578h391v-86h-391v-598h471v-86h-565zM223 1526v174h84v-174h-84zM422 1526v174h84v-174h-84z" />
<glyph unicode="&#x454;" horiz-adv-x="765" d="M72 350v733q0 165 76 264t233 99t232 -99t75 -264v-90h-88v97q0 124 -52 197t-163 73q-113 0 -166 -73.5t-53 -196.5v-306h293v-86h-293v-354q0 -123 53 -195.5t166 -72.5q111 0 163 72.5t52 195.5v145h90v-139q0 -165 -76 -262.5t-233 -97.5t-233 97.5t-76 262.5z" />
<glyph unicode="&#x455;" horiz-adv-x="757" d="M70 346v74h90v-80q0 -123 52 -193.5t165 -70.5t165 70.5t52 193.5q0 70 -28.5 129t-74.5 101.5t-101 83t-110 82.5t-101 89.5t-74.5 115.5t-28.5 149q0 168 75 262t230 94q155 1 230 -96.5t75 -262.5v-30h-90v37q0 122 -51 194t-162 72q-213 0 -213 -264 q0 -70 28.5 -129.5t74.5 -103t101 -84.5t110 -83t101 -89.5t74.5 -114t28.5 -146.5q0 -164 -76 -260t-233 -96t-233 96t-76 260z" />
<glyph unicode="&#x456;" horiz-adv-x="258" d="M82 0v1434h94v-1434h-94z" />
<glyph unicode="&#x457;" horiz-adv-x="258" d="M-10 1518v172h82v-172h-82zM82 0v1434h94v-1434h-94zM186 1518v172h84v-172h-84z" />
<glyph unicode="&#x458;" horiz-adv-x="518" d="M59 0v86q30 -2 84 2q105 8 154 67.5t49 190.5v1088h94v-1082q0 -181 -74 -263.5t-212 -88.5h-95z" />
<glyph unicode="&#x1e02;" horiz-adv-x="774" d="M82 0v1434h301q157 0 225 -76t68 -230v-81q0 -123 -42.5 -192t-146.5 -91q215 -43 215 -307v-125q0 -332 -313 -332h-307zM176 86h213q116 0 167.5 61.5t51.5 186.5v129q0 136 -61.5 194t-192.5 58h-178v-629zM176 801h160q133 0 189.5 48t56.5 179v92q0 118 -45 173 t-156 55h-205v-547zM307 1520v174h82v-174h-82z" />
<glyph unicode="&#x1e03;" horiz-adv-x="774" d="M82 0v1434h301q157 0 225 -76t68 -230v-81q0 -123 -42.5 -192t-146.5 -91q215 -43 215 -307v-125q0 -332 -313 -332h-307zM176 86h213q116 0 167.5 61.5t51.5 186.5v129q0 136 -61.5 194t-192.5 58h-178v-629zM176 801h160q133 0 189.5 48t56.5 179v92q0 118 -45 173 t-156 55h-205v-547zM307 1520v174h82v-174h-82z" />
<glyph unicode="&#x1e0a;" horiz-adv-x="788" d="M82 0v1434h315q160 0 239 -95.5t79 -261.5v-721q0 -166 -79 -261t-239 -95h-315zM176 86h219q117 0 171.5 70.5t54.5 195.5v729q0 124 -56 195.5t-170 71.5h-219v-1262zM319 1520v174h84v-174h-84z" />
<glyph unicode="&#x1e0b;" horiz-adv-x="788" d="M82 0v1434h315q160 0 239 -95.5t79 -261.5v-721q0 -166 -79 -261t-239 -95h-315zM176 86h219q117 0 171.5 70.5t54.5 195.5v729q0 124 -56 195.5t-170 71.5h-219v-1262zM319 1520v174h84v-174h-84z" />
<glyph unicode="&#x1e1e;" horiz-adv-x="688" d="M82 0v1434h545v-86h-451v-613h371v-86h-371v-649h-94zM309 1518v174h84v-174h-84z" />
<glyph unicode="&#x1e1f;" horiz-adv-x="688" d="M82 0v1434h545v-86h-451v-613h371v-86h-371v-649h-94zM324 1520v174h84v-174h-84z" />
<glyph unicode="&#x1e40;" horiz-adv-x="1034" d="M82 0v1434h135l301 -1268l299 1268h135v-1434h-90v1274l-299 -1272h-94l-303 1268v-1270h-84zM475 1526v176h84v-176h-84z" />
<glyph unicode="&#x1e41;" horiz-adv-x="1034" d="M82 0v1434h135l301 -1268l299 1268h135v-1434h-90v1274l-299 -1272h-94l-303 1268v-1270h-84zM475 1530v174h84v-174h-84z" />
<glyph unicode="&#x1e56;" horiz-adv-x="745" d="M82 0v1434h297q307 0 307 -349v-155q0 -173 -80.5 -256.5t-251.5 -83.5h-178v-590h-94zM176 676h178q125 0 181.5 59t56.5 189v168q0 125 -48.5 190.5t-164.5 65.5h-203v-672zM307 1520v174h84v-174h-84z" />
<glyph unicode="&#x1e57;" horiz-adv-x="745" d="M82 0v1434h297q307 0 307 -349v-155q0 -173 -80.5 -256.5t-251.5 -83.5h-178v-590h-94zM176 676h178q125 0 181.5 59t56.5 189v168q0 125 -48.5 190.5t-164.5 65.5h-203v-672zM317 1520v174h84v-174h-84z" />
<glyph unicode="&#x1e60;" horiz-adv-x="757" d="M70 346v74h90v-80q0 -123 52 -193.5t165 -70.5t165 70.5t52 193.5q0 70 -28.5 129t-74.5 101.5t-101 83t-110 82.5t-101 89.5t-74.5 115.5t-28.5 149q0 168 75 262t230 94q155 1 230 -96.5t75 -262.5v-30h-90v37q0 122 -51 194t-162 72q-213 0 -213 -264 q0 -70 28.5 -129.5t74.5 -103t101 -84.5t110 -83t101 -89.5t74.5 -114t28.5 -146.5q0 -164 -76 -260t-233 -96t-233 96t-76 260zM338 1522v172h84v-172h-84z" />
<glyph unicode="&#x1e61;" horiz-adv-x="757" d="M70 346v74h90v-80q0 -123 52 -193.5t165 -70.5t165 70.5t52 193.5q0 70 -28.5 129t-74.5 101.5t-101 83t-110 82.5t-101 89.5t-74.5 115.5t-28.5 149q0 168 75 262t230 94q155 1 230 -96.5t75 -262.5v-30h-90v37q0 122 -51 194t-162 72q-213 0 -213 -264 q0 -70 28.5 -129.5t74.5 -103t101 -84.5t110 -83t101 -89.5t74.5 -114t28.5 -146.5q0 -164 -76 -260t-233 -96t-233 96t-76 260zM348 1534v172h84v-172h-84z" />
<glyph unicode="&#x1e6a;" horiz-adv-x="794" d="M57 1348v86h680v-86h-293v-1348h-94v1348h-293zM356 1522v174h82v-174h-82z" />
<glyph unicode="&#x1e6b;" horiz-adv-x="794" d="M53 1348v86h678v-86h-293v-1348h-94v1348h-291zM350 1520v174h84v-174h-84z" />
<glyph unicode="&#x1e80;" horiz-adv-x="1234" d="M63 1434h93l215 -1307l209 1300h100l201 -1296l206 1303h84l-229 -1434h-123l-192 1174l-201 -1174h-131zM469 1724h102l146 -194h-74z" />
<glyph unicode="&#x1e81;" horiz-adv-x="1234" d="M63 1434h93l215 -1307l209 1300h100l201 -1296l206 1303h84l-229 -1434h-123l-192 1174l-201 -1174h-131zM469 1724h102l146 -194h-74z" />
<glyph unicode="&#x1e82;" horiz-adv-x="1234" d="M63 1434h93l215 -1307l209 1300h100l201 -1296l206 1303h84l-229 -1434h-123l-192 1174l-201 -1174h-131zM539 1518l147 194h96l-172 -194h-71z" />
<glyph unicode="&#x1e83;" horiz-adv-x="1234" d="M63 1434h93l215 -1307l209 1300h100l201 -1296l206 1303h84l-229 -1434h-123l-192 1174l-201 -1174h-131zM539 1518l147 194h96l-172 -194h-71z" />
<glyph unicode="&#x1e84;" horiz-adv-x="1234" d="M63 1434h93l215 -1307l209 1300h100l201 -1296l206 1303h84l-229 -1434h-123l-192 1174l-201 -1174h-131zM483 1526v174h84v-174h-84zM682 1526v174h84v-174h-84z" />
<glyph unicode="&#x1e85;" horiz-adv-x="1234" d="M63 1434h93l215 -1307l209 1300h100l201 -1296l206 1303h84l-229 -1434h-123l-192 1174l-201 -1174h-131zM483 1526v174h84v-174h-84zM682 1526v174h84v-174h-84z" />
<glyph unicode="&#x1ef2;" horiz-adv-x="849" d="M55 1434h99l274 -754l274 754h93l-324 -883v-551h-94v551zM260 1724h100l148 -194h-76z" />
<glyph unicode="&#x1ef3;" horiz-adv-x="849" d="M55 1434h99l274 -754l274 754h93l-324 -883v-551h-94v551zM260 1724h100l148 -194h-76z" />
<glyph unicode="&#x2000;" horiz-adv-x="901" vert-adv-y="0" />
<glyph unicode="&#x2001;" horiz-adv-x="1802" vert-adv-y="0" />
<glyph unicode="&#x2002;" horiz-adv-x="901" vert-adv-y="0" />
<glyph unicode="&#x2003;" horiz-adv-x="1802" vert-adv-y="0" />
<glyph unicode="&#x2004;" horiz-adv-x="600" vert-adv-y="0" />
<glyph unicode="&#x2005;" horiz-adv-x="450" vert-adv-y="0" />
<glyph unicode="&#x2006;" horiz-adv-x="300" vert-adv-y="0" />
<glyph unicode="&#x2007;" horiz-adv-x="300" vert-adv-y="0" />
<glyph unicode="&#x2008;" horiz-adv-x="225" vert-adv-y="0" />
<glyph unicode="&#x2009;" horiz-adv-x="360" vert-adv-y="0" />
<glyph unicode="&#x200a;" horiz-adv-x="100" vert-adv-y="0" />
<glyph unicode="&#x2010;" horiz-adv-x="532" d="M78 674v86h377v-86h-377z" />
<glyph unicode="&#x2011;" horiz-adv-x="532" d="M78 674v86h377v-86h-377z" />
<glyph unicode="&#x2012;" horiz-adv-x="927" d="M53 678v78h821v-78h-821z" />
<glyph unicode="&#x2013;" horiz-adv-x="854" d="M53 678v78h750v-78h-750z" />
<glyph unicode="&#x2014;" horiz-adv-x="1372" d="M53 678v78h1268v-78h-1268z" />
<glyph unicode="&#x2018;" horiz-adv-x="274" d="M82 1098v172l59 164h41l-41 -156h33v-180h-92z" />
<glyph unicode="&#x2019;" horiz-adv-x="274" d="M92 1098l41 155h-31v181h91v-172l-60 -164h-41z" />
<glyph unicode="&#x201a;" horiz-adv-x="274" d="M92 -154l41 154h-31v180h91v-172l-60 -162h-41z" />
<glyph unicode="&#x201c;" horiz-adv-x="434" d="M82 1098v172l59 164h41l-41 -156h33v-180h-92zM242 1098v172l59 164h43l-43 -156h33v-180h-92z" />
<glyph unicode="&#x201d;" horiz-adv-x="434" d="M82 1098l43 155h-33v181h92v-172l-59 -164h-43zM244 1098l41 155h-33v181h92v-172l-59 -164h-41z" />
<glyph unicode="&#x201e;" horiz-adv-x="444" d="M92 -154l41 154h-31v180h91v-172l-60 -162h-41zM262 -154l43 154h-33v180h90v-172l-57 -162h-43z" />
<glyph unicode="&#x2020;" horiz-adv-x="804" d="M72 950v76h290v408h80v-408h291v-76h-291v-1081h-80v1081h-290z" />
<glyph unicode="&#x2021;" horiz-adv-x="804" d="M72 276v78h290v596h-290v76h290v408h80v-408h291v-76h-291v-596h291v-78h-291v-407h-80v407h-290z" />
<glyph unicode="&#x2022;" horiz-adv-x="538" d="M123 717q0 61 42.5 104t102.5 43q62 0 105 -43t43 -104t-43 -104.5t-105 -43.5q-60 0 -102.5 43.5t-42.5 104.5z" />
<glyph unicode="&#x2026;" horiz-adv-x="579" d="M82 0v180h92v-180h-92zM244 0v180h90v-180h-90zM408 0v180h90v-180h-90z" />
<glyph unicode="&#x202f;" horiz-adv-x="360" vert-adv-y="0" />
<glyph unicode="&#x2030;" horiz-adv-x="1744" d="M78 770v436q0 104 47 168t145 64q99 0 147 -63.5t48 -168.5v-436q0 -105 -48 -168t-147 -63q-98 0 -145 63.5t-47 167.5zM141 766q0 -75 30 -121.5t99 -46.5q67 0 98 47t31 121v442q0 76 -30.5 123t-98.5 47q-129 0 -129 -170v-442zM303 0l565 1436h62l-565 -1436h-62z M774 229v430q0 104 48 169t147 65t145.5 -64.5t46.5 -169.5v-430q0 -104 -46.5 -167.5t-145.5 -63.5t-147 63.5t-48 167.5zM840 225q0 -75 31 -122.5t98 -47.5q68 0 98.5 47.5t30.5 122.5v439q0 167 -129 167q-68 0 -98.5 -46t-30.5 -121v-439zM1280 229v430q0 104 48 169 t147 65t145.5 -64.5t46.5 -169.5v-430q0 -104 -46.5 -167.5t-145.5 -63.5t-147 63.5t-48 167.5zM1346 225q0 -75 31 -122.5t98 -47.5q68 0 98.5 47.5t30.5 122.5v439q0 167 -129 167q-68 0 -98.5 -46t-30.5 -121v-439z" />
<glyph unicode="&#x2039;" horiz-adv-x="350" d="M63 717l134 508h90l-131 -508l131 -518h-90z" />
<glyph unicode="&#x203a;" horiz-adv-x="350" d="M63 201l132 518l-132 508h91l133 -508l-133 -518h-91z" />
<glyph unicode="&#x2044;" horiz-adv-x="528" d="M-47 0l563 1434h62l-566 -1434h-59z" />
<glyph unicode="&#x205f;" horiz-adv-x="450" vert-adv-y="0" />
<glyph unicode="&#x20ac;" horiz-adv-x="813" d="M53 584v53h82v168h-82v55h82v223q0 107 29 186t98.5 128t175.5 49t175.5 -49t98.5 -128t29 -186v-77h-90v84q0 125 -50 197.5t-161 72.5q-110 0 -160.5 -73t-50.5 -197v-230h396v-55h-396v-168h396v-53h-396v-240q0 -268 211 -268t211 268v94h90v-88q0 -165 -73.5 -262.5 t-229.5 -97.5t-229.5 97.5t-73.5 262.5v234h-82z" />
<glyph unicode="&#x20b9;" horiz-adv-x="778" d="M72 682v74h143q260 0 270 243h-407v76h407q0 131 -69 207t-201 76h-137v76h629v-76h-287q80 -35 118 -111t40 -172h129v-76h-129q-8 -145 -95 -232t-247 -87h-60l512 -680h-102z" />
<glyph unicode="&#x2122;" horiz-adv-x="1187" d="M29 1374v60h432v-60h-182v-669h-66v669h-184zM557 705v729h90l191 -623l188 623h90v-729h-61v628l-187 -620h-63l-189 620v-628h-59z" />
<glyph unicode="&#x25fc;" horiz-adv-x="1433" vert-adv-y="2867" d="M0 0v1434h1434v-1434h-1434z" />
</font>
</defs>
</svg>
