<?xml version="1.0" encoding="utf-8"?>
<!-- Generator: Adobe Illustrator 16.0.0, SVG Export Plug-In . SVG Version: 6.00 Build 0)  -->
<!DOCTYPE svg PUBLIC "-//W3C//DTD SVG 1.1//EN" "http://www.w3.org/Graphics/SVG/1.1/DTD/svg11.dtd">
<svg version="1.1" id="Шар_1" xmlns="http://www.w3.org/2000/svg" xmlns:xlink="http://www.w3.org/1999/xlink" x="0px" y="0px"
	 width="237.949px" height="91px" viewBox="0 0 237.949 91" enable-background="new 0 0 237.949 91" xml:space="preserve">
<g>
	<g>
		<path fill-rule="evenodd" clip-rule="evenodd" fill="#FFFFFF" d="M119.624,43.699H99.251l-1.186,5.671h6.499l-2.781,13.546h7.378
			l2.78-13.546h6.498L119.624,43.699L119.624,43.699z M227.137,50.334h-4.93l1.378-6.635h-7.378l-3.965,19.217h7.378l1.433-6.91
			h4.928l-1.433,6.91h7.377l3.968-19.217h-7.381L227.137,50.334L227.137,50.334z M198.311,58.896l-5.562-15.198h8.013
			c0,0.004,0.032,0.129,0.098,0.372c0.058,0.243,0.146,0.569,0.252,0.981c0.104,0.414,0.226,0.878,0.354,1.39
			c0.131,0.515,0.27,1.047,0.406,1.598c0.145,0.547,0.275,1.079,0.409,1.592c0.129,0.52,0.247,0.982,0.354,1.396
			c0.1,0.412,0.181,0.742,0.241,0.99c0.061,0.244,0.089,0.372,0.089,0.381l5.119-8.7h7.378l-12.72,19.217h-7.488L198.311,58.896
			L198.311,58.896z M173.171,62.916h7.38l0.357-1.652h0.716c2.015,0,3.799-0.303,5.345-0.899c1.548-0.601,2.823-1.491,3.817-2.671
			c0.997-1.18,1.679-2.642,2.041-4.387c0.354-1.72,0.272-3.17-0.247-4.35c-0.514-1.184-1.422-2.078-2.726-2.688
			c-1.307-0.611-2.968-0.914-4.982-0.918h-0.716l0.359-1.652h-7.381l-0.356,1.652h-0.717c-2.018,0.004-3.804,0.307-5.359,0.918
			c-1.554,0.61-2.839,1.505-3.844,2.688c-1.005,1.18-1.69,2.63-2.058,4.35c-0.348,1.745-0.265,3.207,0.263,4.387
			c0.523,1.18,1.44,2.07,2.754,2.671c1.315,0.597,2.977,0.899,4.996,0.899h0.717L173.171,62.916L173.171,62.916z M176.117,49.48
			l-1.569,7.652h-0.963c-0.372-0.004-0.68-0.086-0.913-0.256c-0.238-0.164-0.422-0.385-0.546-0.66
			c-0.128-0.279-0.212-0.583-0.251-0.918c-0.043-0.34-0.053-0.68-0.029-1.023c0.019-0.344,0.061-0.666,0.115-0.969
			c0.063-0.303,0.16-0.623,0.278-0.968c0.121-0.344,0.271-0.684,0.451-1.023c0.179-0.335,0.386-0.643,0.624-0.919
			c0.242-0.275,0.512-0.494,0.821-0.664c0.302-0.166,0.641-0.248,1.019-0.252H176.117L176.117,49.48z M183.109,49.48h0.965
			c0.37,0.004,0.678,0.086,0.916,0.252c0.239,0.17,0.423,0.389,0.549,0.664c0.128,0.276,0.215,0.584,0.251,0.919
			c0.04,0.34,0.045,0.68,0.024,1.023c-0.029,0.345-0.074,0.665-0.145,0.968c-0.056,0.303-0.142,0.625-0.257,0.969
			c-0.113,0.344-0.26,0.684-0.436,1.023c-0.179,0.335-0.389,0.639-0.628,0.918c-0.243,0.275-0.514,0.496-0.823,0.66
			c-0.307,0.17-0.646,0.252-1.021,0.256h-0.966L183.109,49.48L183.109,49.48z M161.086,62.916h-6.415l2.862-13.932h-0.055
			l-6.525,13.932h-10.846l3.964-19.217h6.415l-2.781,13.545h0.056l6.249-13.545h11.041L161.086,62.916L161.086,62.916z
			 M115.521,62.916l10.71-19.217h10.159l2.891,19.217h-7.735l-0.413-4.157h-6.223l-2.037,4.157H115.521L115.521,62.916z
			 M130.305,47.828l-3.413,6.305h4.268l-0.799-6.305H130.305z"/>
		<path fill-rule="evenodd" clip-rule="evenodd" fill="#FFFFFF" d="M200.066,36.136v-0.029c0.411-0.187,0.842-0.393,1.28-0.614
			c0.44-0.22,0.871-0.468,1.293-0.736c0.423-0.27,0.813-0.568,1.176-0.895c0.359-0.327,0.666-0.686,0.918-1.08
			s0.431-0.827,0.532-1.297c0.105-0.533,0.108-0.993,0.011-1.381c-0.103-0.387-0.28-0.711-0.54-0.972
			c-0.258-0.263-0.575-0.467-0.947-0.621c-0.37-0.156-0.774-0.265-1.21-0.332c-0.438-0.067-0.884-0.1-1.341-0.097
			c-0.556,0.003-1.112,0.033-1.666,0.092c-0.553,0.059-1.112,0.136-1.676,0.234l-0.552,2.705c0.396-0.156,0.798-0.27,1.205-0.34
			c0.406-0.071,0.808-0.109,1.204-0.106c0.244-0.003,0.475,0.025,0.692,0.075c0.221,0.048,0.412,0.131,0.572,0.245
			c0.16,0.112,0.278,0.26,0.349,0.445c0.073,0.184,0.084,0.409,0.034,0.677c-0.05,0.218-0.134,0.421-0.26,0.604
			c-0.123,0.184-0.271,0.354-0.44,0.51c-0.174,0.156-0.354,0.301-0.549,0.432c-0.194,0.134-0.388,0.257-0.577,0.372
			c-0.291,0.163-0.593,0.329-0.91,0.495c-0.315,0.164-0.63,0.322-0.939,0.473c-0.31,0.154-0.599,0.29-0.863,0.416
			c-0.265,0.125-0.49,0.229-0.674,0.31l-0.596,2.912h8.201l0.52-2.496H200.066L200.066,36.136z M205.489,33.447
			c0.128-0.611,0.317-1.186,0.569-1.729c0.249-0.539,0.562-1.032,0.929-1.475c0.367-0.444,0.792-0.828,1.272-1.149
			c0.48-0.323,1.01-0.571,1.598-0.747c0.585-0.173,1.218-0.262,1.902-0.265c0.792,0.003,1.479,0.129,2.062,0.382
			c0.582,0.253,1.049,0.614,1.4,1.085c0.352,0.47,0.577,1.035,0.68,1.694c0.1,0.656,0.065,1.392-0.103,2.204
			c-0.162,0.806-0.422,1.536-0.776,2.192c-0.356,0.656-0.798,1.221-1.327,1.693c-0.533,0.474-1.145,0.837-1.837,1.093
			c-0.692,0.254-1.461,0.383-2.301,0.386c-0.837-0.003-1.546-0.134-2.136-0.394c-0.588-0.257-1.052-0.626-1.394-1.102
			c-0.338-0.475-0.554-1.04-0.646-1.693C205.295,34.965,205.329,34.242,205.489,33.447L205.489,33.447z M209.383,33.447
			c-0.09,0.396-0.157,0.778-0.215,1.14c-0.056,0.363-0.074,0.688-0.053,0.975c0.019,0.286,0.1,0.51,0.246,0.677
			c0.145,0.166,0.373,0.252,0.688,0.255c0.31-0.003,0.567-0.089,0.771-0.255c0.205-0.167,0.373-0.391,0.504-0.677
			c0.129-0.286,0.241-0.611,0.33-0.975c0.09-0.362,0.174-0.744,0.252-1.14c0.095-0.418,0.171-0.812,0.231-1.178
			c0.062-0.368,0.084-0.689,0.068-0.97c-0.019-0.279-0.095-0.497-0.236-0.656c-0.14-0.159-0.365-0.24-0.672-0.243
			c-0.317,0.002-0.58,0.084-0.787,0.243c-0.21,0.159-0.38,0.376-0.515,0.656c-0.136,0.281-0.251,0.602-0.346,0.97
			C209.559,32.635,209.469,33.028,209.383,33.447L209.383,33.447z M216.485,33.447c-0.16,0.795-0.194,1.518-0.105,2.175
			c0.092,0.653,0.307,1.219,0.646,1.693c0.341,0.476,0.806,0.845,1.394,1.102c0.587,0.26,1.298,0.391,2.136,0.394
			c0.839-0.003,1.607-0.131,2.301-0.386c0.689-0.256,1.304-0.619,1.834-1.093c0.529-0.472,0.971-1.038,1.327-1.693
			c0.354-0.656,0.616-1.387,0.779-2.192c0.168-0.812,0.202-1.548,0.1-2.204c-0.1-0.659-0.325-1.224-0.677-1.694
			c-0.352-0.471-0.821-0.832-1.401-1.085c-0.582-0.253-1.272-0.379-2.064-0.382c-0.683,0.003-1.317,0.092-1.902,0.265
			c-0.585,0.176-1.115,0.424-1.595,0.747c-0.48,0.321-0.905,0.705-1.272,1.149c-0.368,0.442-0.68,0.936-0.929,1.475
			C216.8,32.261,216.613,32.835,216.485,33.447L216.485,33.447z M220.376,33.447c0.087-0.418,0.176-0.812,0.271-1.178
			c0.094-0.368,0.207-0.689,0.344-0.97c0.134-0.279,0.304-0.497,0.517-0.656c0.207-0.159,0.47-0.24,0.787-0.243
			c0.307,0.002,0.532,0.084,0.672,0.243c0.142,0.159,0.218,0.376,0.233,0.656c0.018,0.281-0.006,0.602-0.066,0.97
			c-0.06,0.366-0.136,0.759-0.23,1.178c-0.078,0.396-0.162,0.778-0.252,1.14c-0.089,0.363-0.202,0.688-0.33,0.975
			c-0.132,0.286-0.3,0.51-0.504,0.677c-0.205,0.166-0.462,0.252-0.771,0.255c-0.314-0.003-0.543-0.089-0.688-0.255
			c-0.146-0.167-0.229-0.391-0.249-0.677c-0.019-0.286-0.003-0.611,0.055-0.975C220.221,34.225,220.289,33.843,220.376,33.447
			L220.376,33.447z M227.479,33.447c-0.158,0.795-0.192,1.518-0.103,2.175c0.092,0.653,0.307,1.219,0.646,1.693
			c0.338,0.476,0.806,0.845,1.393,1.102c0.588,0.26,1.299,0.391,2.136,0.394c0.84-0.003,1.608-0.131,2.301-0.386
			c0.69-0.256,1.302-0.619,1.834-1.093c0.53-0.472,0.972-1.038,1.328-1.693c0.354-0.656,0.614-1.387,0.779-2.192
			c0.168-0.812,0.202-1.548,0.1-2.204c-0.1-0.659-0.325-1.224-0.677-1.694c-0.352-0.471-0.821-0.832-1.404-1.085
			c-0.579-0.253-1.27-0.379-2.062-0.382c-0.683,0.003-1.317,0.092-1.902,0.265c-0.585,0.176-1.115,0.424-1.596,0.747
			c-0.482,0.321-0.905,0.705-1.274,1.149c-0.365,0.442-0.677,0.936-0.929,1.475C227.796,32.261,227.606,32.835,227.479,33.447
			L227.479,33.447z M231.372,33.447c0.086-0.418,0.176-0.812,0.27-1.178c0.095-0.368,0.208-0.689,0.344-0.97
			c0.134-0.279,0.305-0.497,0.515-0.656s0.472-0.24,0.79-0.243c0.307,0.002,0.529,0.084,0.669,0.243
			c0.142,0.159,0.218,0.376,0.235,0.656c0.019,0.281-0.005,0.602-0.065,0.97c-0.061,0.366-0.136,0.759-0.23,1.178
			c-0.079,0.396-0.163,0.778-0.252,1.14c-0.089,0.363-0.202,0.688-0.331,0.975c-0.131,0.286-0.299,0.51-0.503,0.677
			c-0.205,0.166-0.462,0.252-0.771,0.255c-0.315-0.003-0.546-0.089-0.69-0.255c-0.145-0.167-0.226-0.391-0.246-0.677
			c-0.019-0.286-0.003-0.611,0.055-0.975C231.217,34.225,231.285,33.843,231.372,33.447z"/>
	</g>
	<g>
		<g>
			<path fill-rule="evenodd" clip-rule="evenodd" fill="#FFFFFF" d="M38.504,79.686c-3.465-0.599-6.726-1.726-9.717-3.289
				l0.096-0.673l0.059-0.54l0.06-0.539l0.059-0.539l0.061-0.54l0.058-0.539l0.061-0.539l0.058-0.54l0.059-0.539l0.06-0.54
				l0.059-0.54l0.06-0.539l0.059-0.539l0.06-0.539l0.061-0.539l0.058-0.539l0.06-0.541l0.059-0.539l0.06-0.541l0.058-0.539
				l0.061-0.539l0.058-0.541l0.061-0.539l0.058-0.539l0.061-0.539l0.059-0.539l0.06-0.539l0.059-0.541l0.06-0.539l0.059-0.539
				l0.06-0.54l0.059-0.539l0.06-0.54l0.058-0.539l0.061-0.54l0.059-0.539l0.059-0.539l0.06-0.54l0.059-0.539l0.06-0.539l0.059-0.541
				l0.06-0.539l0.059-0.539l0.06-0.538l0.059-0.542l0.059-0.537l0.06-0.541l0.059-0.539l0.06-0.541l0.059-0.539l0.06-0.539
				l0.061-0.539l0.058-0.539l0.059-0.539l0.06-0.541l0.06-0.539l0.058-0.539l0.061-0.541l0.058-0.539l0.061-0.541l0.058-0.538
				l0.061-0.541l0.058-0.539l0.061-0.54l0.058-0.539c0.171-1.554,0.075-1.678-0.761-1.3l-0.917,0.341l-0.493,0.187l-0.81,0.302
				l-0.6,0.226l-2.538,0.95l-0.095,0.035l-1.208,0.453l-0.39,0.147l-0.913,0.341l-0.496,0.188l-0.808,0.302l-0.354,0.132
				l-0.95,0.355l-0.459,0.172l-1.373,0.514l-0.104,0.04l-1.201,0.449l-0.392,0.147l-0.91,0.341l-0.251,0.095l-1.052,0.395
				l-0.358,0.133l-1.07,0.401l-0.218,0.081l-1.49,0.56l-0.113,0.041l-1.19,0.446l-0.147,0.056l-0.524,0.196
				c-0.053,0.004-0.107,0.021-0.16,0.034c-0.071-0.913-0.107-1.834-0.107-2.76c0-2.311,0.551-6.127,1.221-9.608
				c0.015-0.009,0.092-0.102,0.256-0.119l0.021-0.006l0.021-0.007l0.021-0.008l0.021-0.008l0.022-0.007l0.021-0.006l0.021-0.006
				l0.021-0.008l0.021-0.006l0.021-0.008l0.021-0.007l0.021-0.008l0.021-0.006l0.021-0.007l0.021-0.008l0.021-0.008l0.021-0.006
				l0.021-0.008l0.022-0.007l0.02-0.006l0.021-0.007l0.022-0.008l0.021-0.006l0.021-0.007l0.021-0.006l0.021-0.008l0.021-0.008
				l0.021-0.007l0.021-0.006l0.021-0.008l0.021-0.007l0.021-0.008l0.021-0.006l0.021-0.007l0.021-0.008l0.022-0.008l0.021-0.006
				l0.021-0.007l0.021-0.008l0.022-0.006l0.02-0.008l0.021-0.006l0.022-0.006l0.021-0.007l0.021-0.008l0.021-0.006l0.021-0.007
				l0.021-0.008l0.021-0.006l0.021-0.008l0.021-0.008l0.021-0.006l0.021-0.006l0.022-0.008l0.021-0.006l0.02-0.008l0.023-0.007
				l0.02-0.006l0.021-0.006l0.022-0.008l0.021-0.008l0.021-0.006l0.021-0.007l0.021-0.006l0.313-0.1l0.312-0.099l0.313-0.098
				l0.313-0.1l0.312-0.099l0.313-0.098l0.312-0.099l0.314-0.098l0.312-0.1l0.312-0.098l0.313-0.099l0.313-0.1l0.313-0.098
				l0.313-0.099l0.312-0.1l0.313-0.098l0.313-0.099l0.312-0.1l0.312-0.097l0.315-0.1l0.312-0.099l0.313-0.1l0.313-0.098l0.312-0.1
				l0.313-0.097l0.313-0.1l0.312-0.099l0.313-0.098l0.313-0.099l0.312-0.1l0.313-0.099l0.313-0.098l0.312-0.1l0.313-0.099
				l0.313-0.098l0.312-0.1l0.313-0.099l0.314-0.098l0.312-0.1l0.313-0.097l0.313-0.1l0.313-0.098l0.312-0.1l0.313-0.097l0.312-0.1
				l0.314-0.099l0.312-0.098l0.312-0.1l0.313-0.098l0.313-0.098l0.312-0.1l0.313-0.098l0.313-0.099l0.312-0.1l0.315-0.098
				l0.312-0.099l0.312-0.098l0.315-0.1l0.312-0.097l0.312-0.1l0.313-0.098l0.313-0.1l0.313-0.099l0.313-0.098l0.1-0.022l0.098-0.022
				l0.094-0.023l0.088-0.023l0.086-0.026l0.082-0.026l0.078-0.027l0.076-0.03l0.07-0.03l0.068-0.031l0.062-0.032l0.063-0.033v-0.001
				l0.058-0.034l0.055-0.036l0,0l0.053-0.038l0.05-0.038l0,0l0.048-0.038l0.043-0.042l0.041-0.039l0.039-0.043l0.036-0.044
				l0.034-0.043h0.002l0.031-0.046l0,0l0.03-0.047l0.027-0.048l0,0l0.025-0.049l0,0l0.024-0.051l0,0l0.022-0.053l0,0l0.019-0.052
				l0,0l0.02-0.054l0,0l0.017-0.055l0,0l0.016-0.058l0,0l0.015-0.055v-0.001l0.012-0.059l0,0l0.012-0.059l0,0l0.011-0.062
				l0.01-0.062l0,0l0.008-0.063l0.008-0.066l0,0l0.006-0.067l0,0l0.007-0.065l0,0l0.005-0.068v-0.001l0.005-0.068l0,0l0.004-0.071
				l0,0l0.004-0.072v-0.001l0.004-0.071v-0.001l0.002-0.075l0,0l0.003-0.075l0,0l0.003-0.077l0,0l0.002-0.078h0.002l0.004-0.079l0,0
				l0.002-0.081l0,0l0.003-0.08v-0.001l0.004-0.083l0,0l0.004-0.084l0.006-0.085l0,0l0.005-0.085l0,0l0.007-0.089l0.006-0.089l0,0
				l0.008-0.09l0,0l0.01-0.089l0.009-0.094l0.012-0.095l0,0l0.012-0.096l0.007-0.054l0.007-0.051l0.005-0.051l0,0l0.006-0.05l0,0
				l0.005-0.048l0,0l0.005-0.046l0,0l0.003-0.044l0,0l0.004-0.045h0.001l0.003-0.042l0,0l0.003-0.042l0,0l0.004-0.039l0,0
				l0.002-0.04H35l0.002-0.037l0.003-0.037l0,0l0.003-0.036l0.003-0.033l0,0l0.004-0.034l0,0l0.004-0.03l0,0l0.002-0.03l0,0
				l0.006-0.03l0,0l0.004-0.028h0.001l0.003-0.027l0,0l0.005-0.026l0,0l0.007-0.025l0,0l0.007-0.023l0,0l0.006-0.024l0,0
				l0.007-0.021v-0.001L35.073,24h0.001l0.01-0.02l0,0l0.008-0.018h0.001l0.01-0.019l0.001-0.001l0.011-0.017l0,0l0.013-0.017l0,0
				l0.014-0.016l0,0l0.014-0.016l0,0l0.015-0.013l0,0l0.018-0.014l0.017-0.013l0,0l0.019-0.011l0,0l0.02-0.012l0,0l0.021-0.01l0,0
				l0.024-0.011l0.023-0.009l0,0l0.026-0.008l0,0l0.026-0.009l0.028-0.006l0,0l0.03-0.006l0,0l0.031-0.007h0.002l0.031-0.006l0,0
				l0.036-0.004l0,0l0.037-0.005l0.039-0.004l0.04-0.004l0.043-0.003l0.043-0.004l0.048-0.002l0,0l0.05-0.002h0.051l0.054-0.001
				l0.054-0.002l0.06-0.001h0.058h0.062h0.065c2.682,0,5.363,0,8.045,0h0.013h0.01h0.005h0.015h0.002h0.011h0.012l0.002,0.001
				c0.173,0.006,0.283,0.047,0.341,0.125c0.05,0.077,0.05,0.193,0.049,0.345v0.005v0.004l0,0v0.005v0.004v0.005v0.009v0.004v0.004
				l-0.002,0.004v0.001v0.005v0.004v0.005l0,0v0.002v0.007v0.004v0.004v0.001v0.004v0.005v0.004v0.004l0.305-0.1l0.303-0.102
				l0.306-0.101l0.303-0.101l0.304-0.103l0.304-0.101l0,0l0.305-0.1l0.303-0.102l0.305-0.101l0.303-0.101l0,0l0.305-0.101
				l0.303-0.102h0.002l0.303-0.101l0.303-0.1v-0.001l0.305-0.101l0.305-0.1l0.304-0.103l0,0l0.302-0.101l0,0l0.306-0.101
				l0.303-0.103l0,0l0.304-0.101l0,0l0.306-0.1v-0.001l0.302-0.101l0.304-0.101l0,0l0.305-0.1v-0.001l0.305-0.101l0,0l0.302-0.103
				l0,0l0.304-0.1l0,0l0.305-0.103l0,0l0.303-0.102h0.002l0.303-0.1v-0.001l0.303-0.1l0,0l0.305-0.101l0,0l0.608-0.204l0,0
				l0.303-0.101l0,0l0.304-0.101l0,0l0.607-0.202l0,0l0.304-0.101l0,0l0.304-0.101v-0.001l0.608-0.201l0,0l0.305-0.103l0,0
				l0.303-0.103l0,0l0.912-0.303l0,0l0.303-0.1l0,0l0.305-0.103l0,0l0.607-0.202l0,0l0.304-0.102l0,0l0.303-0.101l0,0l0.305-0.1l0,0
				l0.303-0.101v-0.001l0.305-0.101l0.305-0.1l0,0l0.302-0.102l0,0l0.306-0.103l0,0l0.303-0.1l0,0L63.562,18l0.303-0.103
				l0.303-0.101l0.05-0.016l0.048-0.016l0.044-0.015h0.002l0.043-0.013l0,0l0.042-0.015l0,0l0.041-0.01l0,0l0.039-0.012l0,0
				l0.038-0.01l0,0l0.035-0.008l0,0l0.034-0.009l0,0l0.033-0.009l0,0l0.031-0.006l0,0l0.031-0.005l0,0l0.027-0.005l0.002-0.001
				l0.026-0.004l0,0l0.025-0.004l0,0l0.026-0.004l0,0h0.023l0,0l0.022-0.002l0,0h0.022l0,0h0.02l0,0l0.02,0.001l0,0
				c0.025,0.001,0.048,0.005,0.066,0.01h0.002c0.015,0.007,0.028,0.011,0.041,0.019l0,0l0.012,0.006l0,0
				c0.016,0.011,0.029,0.022,0.042,0.037l0,0l0.008,0.011l0,0l0.008,0.013l0,0l0.008,0.013l0,0l0.014,0.026l0,0l0.005,0.015v0.001
				l0.013,0.031l0,0l0.006,0.017l0,0l0.004,0.017l0.005,0.019l0,0l0.004,0.018l0,0l0.008,0.041l0.003,0.022l0.005,0.022l0.003,0.022
				l0,0l0.004,0.022l0,0l0.004,0.025l0,0l0.004,0.025l0.004,0.026l0,0l0.003,0.026l0.004,0.026l0.005,0.028l0.004,0.027l0.006,0.03
				l0.005,0.03l0.005,0.03l0.006,0.03l0.005,0.033l-0.41,8.662l0.027-0.001l0.005-0.001l0,0l0.008-0.001l0.006-0.001l0.023-0.003
				l0.008-0.001l0,0l0.009-0.001l0.019-0.002l0.01-0.003l0.01-0.001l0.008-0.001h0.003l0.011-0.002l0.021-0.004l0.012-0.002
				l0.013-0.002l0.009-0.001h0.001l0.014-0.004l0.013-0.001l0.014-0.004l0.013-0.002l0.013-0.002l0.01-0.003l0.004-0.001
				l0.015-0.004l0.014-0.002l0.014-0.004l0.016-0.002l0.016-0.004l0.011-0.001l0.005-0.003l0.016-0.002l0.016-0.004l0.017-0.004
				l0.016-0.005l0.016-0.004l0.012-0.001l0.007-0.002l0.018-0.004l0.018-0.002l0.017-0.007l0.019-0.004l0.019-0.005l0.009-0.002
				l0.01-0.001l0.019-0.005l0.018-0.005l0.021-0.004l0.019-0.005l0.021-0.005l0.011-0.004l0.009-0.001l0.02-0.005l0.021-0.005
				l0.021-0.005l0.021-0.005l0.021-0.007l0.011-0.001l0.011-0.004l0.022-0.005l0.022-0.007l0.021-0.006l0.023-0.005l-23.553,7.061
				c-1.487,0.444-2.028,0.429-1.988,1.528l-0.467,10.277c-0.192,1.7,0.619,1.122,2.772,0.651l-0.008,0.07l-0.009,0.07l-0.01,0.072
				l-0.008,0.068l-0.01,0.071l-0.008,0.071l-0.01,0.07l-0.009,0.07l-0.008,0.071l-0.01,0.071l-0.009,0.07l-0.008,0.07l-0.011,0.07
				l-0.008,0.07l-0.008,0.071l-0.011,0.071l-0.008,0.07l-0.009,0.07l-0.01,0.071l-0.008,0.071l-0.01,0.07l-0.008,0.07l-0.009,0.068
				l-0.009,0.072l-0.009,0.071l-0.01,0.071l-0.009,0.07l-0.008,0.07l-0.01,0.072l-0.009,0.07l-0.008,0.07l-0.009,0.07l-0.01,0.07
				l-0.008,0.07l-0.011,0.071l-0.017,0.141l-0.01,0.072l-0.018,0.14l-0.008,0.072l-0.01,0.07l-0.009,0.07l-0.008,0.07l-0.01,0.071
				l-0.009,0.069l-0.008,0.071l-0.011,0.071l-0.016,0.143l-0.009,0.069l-0.019,0.142l-0.01,0.07l-0.008,0.07l-0.009,0.07
				l-0.01,0.072l-0.008,0.07l-0.009,0.072l-0.009,0.068l-0.01,0.071l-0.009,0.071l-0.008,0.07L41.9,50.838l-2.627,0.772
				c-1.44,0.446-1.248,0.347-1.385,2.186c-0.294,3.972-0.588,7.942-0.882,11.913c-0.108,1.471-0.168,1.608,0.792,1.236l2.397-0.783
				L38.504,79.686z"/>
		</g>
		<g>
			<path fill-rule="evenodd" clip-rule="evenodd" fill="#FFFFFF" d="M38.555,88.009c-9.873-1.75-18.911-6.739-25.544-14.159
				C6.384,65.91,2.924,55.946,3.133,45.012C3.579,21.583,23.229,2.682,46.678,3.127c7.816,0.151,14.562,1.843,20.743,5.611
				c6.707,3.773,11.819,9.077,15.866,15.405l-1.041-0.018c-3.538-5.798-8.65-11.105-14.836-14.867
				c-6.192-3.244-12.927-5.456-20.741-5.607C23.739,3.214,4.103,21.593,3.654,45.022C3.446,55.958,7.436,65.407,14.062,73.348
				c7.02,6.891,14.912,10.703,24.782,12.457L38.555,88.009z"/>
		</g>
		<g>
			<path fill-rule="evenodd" clip-rule="evenodd" fill="#FFFFFF" d="M38.226,91c-10.913-1.77-20.186-7.676-26.81-15.615
				C4.27,67.432-0.21,56.406,0.008,44.953C0.484,19.962,21.724-0.469,46.738,0.008c8.337,0.159,16.112,2.387,22.808,6.688
				c6.705,3.773,12.328,9.609,16.368,16.456l-1.053,0.5c-3.519-6.838-9.14-12.675-15.847-16.448
				C62.31,3.427,55.056,1.208,46.717,1.05C22.226,0.583,1.517,20.5,1.05,44.973C0.83,56.426,4.8,66.922,11.948,74.871
				c8.318,7.841,16.159,12.183,26.55,13.94L38.226,91z"/>
		</g>
		<g>
			<g>
				<path fill-rule="evenodd" clip-rule="evenodd" fill="#FFFFFF" d="M66.032,17.638l-3.02,0.311h0.171l0.107,0.049l0.062,0.096
					l0.037,0.144l0.029,0.191l0.039,0.235l-0.462,8.973l0.181-0.085l2.52-0.732l0.577-1.25l0.204-7.216l-0.039-0.235l-0.029-0.192
					l-0.036-0.144l-0.065-0.096l-0.108-0.05L66.032,17.638L66.032,17.638z M45.67,81.088l1.545-0.103l3.02-0.312l-1.544,0.102
					l-1.559,0.035l-0.417-0.004l-0.411-0.01l-0.402-0.02l-0.394-0.023l-0.389-0.028l-0.383-0.032l-0.375-0.036l-0.371-0.038
					l-0.366-0.041l-0.359-0.04l-0.358-0.041l-0.353-0.04l-0.35-0.039l-0.346-0.037l-0.344-0.033l-0.344-0.029l-0.172-0.028
					l-0.172-0.027l-0.173-0.026l-0.174-0.027l-0.173-0.026l-0.171-0.03l-0.172-0.03l-0.169-0.032l1.678-13.979l19.696-6.474
					l0.334-0.098l0.292-0.104l0.246-0.113l0.213-0.128l0.174-0.144l0.146-0.16l0.118-0.186l0.095-0.209l0.072-0.236l0.057-0.268
					l0.043-0.3l0.033-0.337l0.028-0.375l0.023-0.419l0.026-0.463l0.031-0.512l0.017-0.267l0.018-0.269l0.018-0.269l0.019-0.266
					l0.017-0.27l0.018-0.268l0.017-0.268l0.019-0.269l0.019-0.268l0.016-0.267l0.019-0.269l0.017-0.268l0.018-0.269l0.018-0.268
					l0.018-0.268l0.017-0.268l0.019-0.27l0.019-0.268l0.016-0.268l0.019-0.268l0.017-0.268l0.018-0.268l0.019-0.27l0.017-0.266
					l0.017-0.27l0.019-0.268l0.018-0.268l0.017-0.268l0.019-0.269l0.017-0.268l0.018-0.268l0.019-0.268l0.024-0.362l0.025-0.322
					l0.02-0.286l0.015-0.248l0.008-0.215L63.749,45.4l-0.018-0.149L63.7,45.13l-0.05-0.092l-0.071-0.062l-0.092-0.038l-0.117-0.013
					l-0.145,0.009l-1.152-0.114l-1.868,0.425l0.145-0.009l0.118,0.013l0.092,0.038l0.071,0.063l0.05,0.092l0.031,0.119l0.017,0.151
					l0.004,0.181l-0.006,0.214l-0.015,0.25l-0.021,0.285l-0.023,0.324l-0.026,0.361l-0.016,0.268l-0.019,0.268l-0.018,0.268
					l-0.018,0.268l-0.017,0.269l-0.019,0.268l-0.018,0.269l-0.017,0.268l-0.019,0.267l-0.016,0.269l-0.019,0.268l-0.019,0.27
					l-0.017,0.268l-0.017,0.268l-0.019,0.266l-0.018,0.27l-0.017,0.268l-0.019,0.268l-0.016,0.27l-0.019,0.268l-0.019,0.266
					l-0.017,0.27l-0.018,0.268l-0.018,0.268l-0.018,0.269l-0.017,0.268l-0.019,0.268l-0.016,0.268l-0.019,0.268l-0.019,0.268
					L60.1,55.633l-0.018,0.266l-0.03,0.511l-0.024,0.464l-0.026,0.418l-0.026,0.377l-0.035,0.336l-0.042,0.3l-0.058,0.268
					l-0.072,0.235l-0.095,0.209l-0.118,0.184l-0.145,0.163l-0.176,0.144l-0.21,0.128l-0.249,0.112l-0.29,0.105l-0.336,0.098
					l-19.694,6.473l-1.679,13.977l0.17,0.035l0.171,0.029l0.173,0.03l0.171,0.026l0.173,0.027l0.174,0.026L37.98,80.6l0.172,0.03
					l0.341,0.028l0.345,0.035l0.347,0.036l0.349,0.038l0.354,0.041l0.356,0.04l0.361,0.042l0.366,0.039l0.369,0.04l0.376,0.035
					l0.383,0.032l0.389,0.028l0.395,0.023l0.402,0.017l0.409,0.012l0.418,0.006L45.67,81.088L45.67,81.088z M10.366,34.394
					c-0.039,0.127-0.079,0.254-0.118,0.384c-0.176,0.628,0.247,1.062,1.173,0.846l2.06-1.464l-0.095-0.079l0.48-1.359l0.532-1.334
					l0.585-1.305l0.636-1.279l0.685-1.249l0.731-1.216l0.777-1.186l0.823-1.152l0.867-1.116l0.909-1.081l0.952-1.045l0.992-1.005
					l1.028-0.964l1.069-0.926l1.104-0.882l1.141-0.838l1.173-0.792l1.206-0.748l1.238-0.7l1.267-0.649l1.297-0.603l1.323-0.551
					l1.352-0.497l1.374-0.443l1.4-0.389l1.422-0.332l1.444-0.275l1.464-0.217l-3.02,0.311l-1.464,0.216l-1.443,0.275l-1.422,0.332
					l-1.399,0.388l-1.377,0.445l-1.35,0.496l-1.323,0.551l-1.297,0.601l-1.269,0.65l-1.236,0.701l-1.207,0.747l-1.173,0.795
					l-1.14,0.837l-1.105,0.881l-1.067,0.926l-1.029,0.965l-0.992,1.005l-0.951,1.043l-0.91,1.083l-0.867,1.116l-0.822,1.15
					l-0.778,1.186l-0.732,1.219l-0.683,1.248l-0.637,1.278l-0.585,1.308l-0.532,1.333C10.687,33.486,10.526,33.939,10.366,34.394
					L10.366,34.394z M66.069,27.015l0.206-3.142L66.069,27.015z"/>
			</g>
		</g>
		<g>
			<path fill="#FFFFFF" d="M45.859,81.108c-1.52,0-2.854-0.153-4.146-0.303c-0.627-0.072-1.237-0.144-1.839-0.191
				c-0.202-0.033-0.378-0.06-0.556-0.087c-0.287-0.045-0.575-0.089-0.856-0.146l-0.268-0.055l1.734-14.439l19.874-6.533
				c1.538-0.403,1.562-0.802,1.683-3.016l0.317-4.919l0.288-4.422c0.014-0.225,0.029-0.429,0.043-0.614
				c0.038-0.521,0.08-1.06,0.007-1.162c-0.031-0.009-0.181-0.013-0.722,0.155c-3.332,0.984-6.524,1.932-9.721,2.879
				c-3.192,0.948-6.387,1.896-9.715,2.878l-0.438,0.131l0.645-5.166l1.615-0.515c35.578-11.353,35.995-11.081,36.24-10.919
				l0.091,0.058l0.031,0.104c1.097,3.53,1.608,6.848,1.608,10.439c0,2.512-0.278,5.07-0.826,7.606
				C77.327,69.232,62.568,81.108,45.859,81.108z M38.852,79.848c0.187,0.033,0.372,0.062,0.559,0.091
				c0.181,0.027,0.36,0.056,0.541,0.087c0.579,0.045,1.196,0.115,1.831,0.188c1.274,0.147,2.592,0.3,4.077,0.3
				c16.432,0,30.946-11.68,34.509-27.772c0.539-2.492,0.812-5.009,0.812-7.478c0-3.457-0.481-6.657-1.516-10.048
				c-1.117,0.174-7.569,1.965-35.679,10.937l-1.249,0.396l-0.485,3.885c3.172-0.939,6.226-1.844,9.279-2.75
				c3.193-0.947,6.388-1.896,9.716-2.88c0.54-0.167,0.979-0.275,1.271-0.043c0.318,0.253,0.282,0.727,0.211,1.667
				c-0.013,0.182-0.029,0.385-0.045,0.608l-0.602,9.335c-0.125,2.216-0.17,3.047-2.111,3.554l-19.496,6.409L38.852,79.848z
				 M29.01,76.942l-0.378-0.204c-1.326-0.721-3.274-2.096-4.321-2.834l-0.006-0.006c-8.245-6.223-13.412-15.676-14.179-25.938
				l-0.017-0.223l21.687-8.123c0.37-0.167,0.711-0.294,0.98-0.1c0.311,0.226,0.294,0.695,0.183,1.712l-3.78,34.528L29.01,76.942z
				 M24.66,73.418c0.94,0.666,2.613,1.846,3.882,2.584l0.046-0.32l3.779-34.52c0.028-0.262,0.101-0.931,0.052-1.143
				c-0.058,0.011-0.171,0.047-0.395,0.146L10.738,48.14C11.55,58.141,16.615,67.345,24.66,73.418z M11.245,35.929l0.154-0.545
				C15.782,20.066,29.962,9.368,45.883,9.368c10.235,0,24.145,5.936,28.535,14.774l0.156,0.313l-0.333,0.102
				c-1.477,0.46-8.862,2.754-9.445,2.754h-0.312l0.424-8.939c-0.019-0.09-0.029-0.174-0.039-0.25
				c-0.011-0.067-0.022-0.144-0.034-0.194c-0.071,0.005-0.229,0.037-0.572,0.151l-19.834,6.607l0.002-0.515
				c0.001-0.054,0.001-0.108,0-0.162c-0.016,0.005-0.068-0.008-0.16-0.008h-8.045c-0.891,0-0.891,0-0.931,0.523
				c-0.014,0.148-0.026,0.324-0.054,0.53c-0.06,0.454-0.076,0.874-0.091,1.244c-0.049,1.283-0.087,2.296-2.013,2.684l-20.008,6.312
				L11.245,35.929z M45.883,9.964c-15.465,0-29.262,10.268-33.748,25.038l0.811-0.271l20.043-6.322
				c1.497-0.303,1.519-0.876,1.565-2.13c0.016-0.383,0.031-0.817,0.096-1.3c0.025-0.194,0.038-0.359,0.05-0.499
				c0.072-0.921,0.287-1.072,1.525-1.072h8.045c0.539,0,0.7,0.253,0.742,0.457l19.062-6.349c0.554-0.185,0.857-0.248,1.093-0.103
				c0.218,0.133,0.252,0.372,0.288,0.625c0.012,0.075,0.026,0.163,0.044,0.257l0.008,0.035l-0.396,8.325
				c1.252-0.303,5.631-1.632,8.614-2.56C69.263,15.627,55.818,9.964,45.883,9.964z"/>
		</g>
		<g>
			<path fill-rule="evenodd" clip-rule="evenodd" fill="#FFFFFF" d="M38.878,53.424l21.892-6.607c0.331-0.1,0.635,0.104,0.68,0.449
				v0.002c0.042,0.346-0.191,0.711-0.522,0.812l-21.892,6.606c-0.331,0.1-0.635-0.103-0.679-0.45h-0.001
				C38.313,53.889,38.547,53.521,38.878,53.424L38.878,53.424z M41.103,34.689l38.516-11.479c0.332-0.099,0.669,0.097,0.75,0.434
				l0,0c0.084,0.337-0.12,0.694-0.453,0.793L41.401,35.915c-0.333,0.098-0.672-0.096-0.753-0.433h-0.001
				C40.567,35.145,40.77,34.788,41.103,34.689L41.103,34.689z M40.886,37.983c-0.332,0.1-0.536,0.457-0.455,0.793l0,0
				c0.083,0.338,0.421,0.533,0.753,0.433l38.516-11.478c0.332-0.1,0.535-0.457,0.454-0.793l0,0c-0.081-0.337-0.42-0.534-0.753-0.433
				L40.886,37.983L40.886,37.983z M40.67,41.28c-0.334,0.099-0.537,0.455-0.454,0.792l0,0c0.081,0.337,0.42,0.534,0.752,0.434
				l38.514-11.479c0.333-0.1,0.538-0.457,0.455-0.792v-0.001c-0.082-0.339-0.421-0.533-0.753-0.433L40.67,41.28L40.67,41.28z
				 M38.712,56.691c-0.329,0.1-0.563,0.466-0.52,0.813l0,0c0.042,0.347,0.348,0.55,0.678,0.45l21.892-6.607
				c0.331-0.1,0.565-0.464,0.522-0.812l0,0c-0.044-0.348-0.35-0.549-0.68-0.45L38.712,56.691L38.712,56.691z M38.549,59.961
				c-0.33,0.1-0.565,0.465-0.521,0.812l0,0c0.044,0.347,0.35,0.55,0.679,0.45l21.892-6.606c0.329-0.1,0.564-0.467,0.521-0.812
				v-0.002c-0.043-0.346-0.349-0.549-0.679-0.449L38.549,59.961L38.549,59.961z M38.385,63.23l21.891-6.607
				c0.329-0.1,0.635,0.104,0.678,0.45l0,0c0.045,0.348-0.191,0.714-0.521,0.812l-21.891,6.607c-0.331,0.101-0.637-0.104-0.68-0.451
				l0,0C37.819,63.695,38.054,63.33,38.385,63.23L38.385,63.23z M40.453,44.575c-0.332,0.098-0.536,0.455-0.455,0.793l0,0
				c0.082,0.336,0.42,0.532,0.753,0.433l38.515-11.48c0.331-0.098,0.536-0.454,0.455-0.791l0,0
				c-0.083-0.338-0.422-0.534-0.753-0.434L40.453,44.575z"/>
		</g>
	</g>
</g>
</svg>
