<?xml version="1.0" encoding="utf-8"?>
<!-- Generator: Adobe Illustrator 16.0.0, SVG Export Plug-In . SVG Version: 6.00 Build 0)  -->
<!DOCTYPE svg PUBLIC "-//W3C//DTD SVG 1.1//EN" "http://www.w3.org/Graphics/SVG/1.1/DTD/svg11.dtd">
<svg version="1.1" id="Шар_1" xmlns="http://www.w3.org/2000/svg" xmlns:xlink="http://www.w3.org/1999/xlink" x="0px" y="0px"
	 width="27px" height="7.766px" viewBox="0 0 27 7.766" enable-background="new 0 0 27 7.766" xml:space="preserve">
<path d="M0,3.887c0,0.296,0.24,0.531,0.536,0.531h24.643l-2.436,2.436c-0.209,0.209-0.209,0.544,0,0.754
	c0.209,0.209,0.545,0.209,0.754,0l3.347-3.347C26.948,4.157,27,4.022,27,3.882c0-0.135-0.052-0.274-0.156-0.379l-3.347-3.346
	c-0.209-0.209-0.545-0.209-0.754,0c-0.209,0.209-0.209,0.544,0,0.753l2.436,2.436H0.536C0.24,3.351,0,3.591,0,3.887z"/>
</svg>
