<?xml version="1.0" standalone="no"?>
<!DOCTYPE svg PUBLIC "-//W3C//DTD SVG 1.1//EN" "http://www.w3.org/Graphics/SVG/1.1/DTD/svg11.dtd" >
<svg xmlns="http://www.w3.org/2000/svg">
<metadata>Generated by IcoMoon</metadata>
<defs>
<font id="icomoon" horiz-adv-x="512">
<font-face units-per-em="512" ascent="480" descent="-32" />
<missing-glyph horiz-adv-x="512" />
<glyph unicode="&#x20;" horiz-adv-x="256" d="" />
<glyph unicode="&#xe900;" horiz-adv-x="588" d="M0 480h587.742v-404.086h-587.742v404.086z" />
<glyph unicode="&#xe901;" horiz-adv-x="588" d="M36.721 443.279h514.274v-254.825h-514.274v254.825z" />
<glyph unicode="&#xe902;" horiz-adv-x="588" d="M36.721 151.682h514.274v-39.021h-514.274v39.021z" />
<glyph unicode="&#xe903;" horiz-adv-x="588" d="M394.196 60.327l-35.341-10.12 13.033-45.461h-156.007l13.007 45.461-35.341 10.12-15.869-55.58h-67.463v-36.747h358.139v36.746h-58.288l-15.869 55.58z" />
<glyph unicode="&#xe904;" horiz-adv-x="588" d="M155.599 236.47l-17.3 32.403 275.524 146.987 17.325-32.428-275.549-146.961z" />
<glyph unicode="&#xe905;" horiz-adv-x="588" d="M424.631 328.567l17.274-32.428-111.825-59.618-17.274 32.402 111.825 59.643z" />
<glyph unicode="&#xe906;" horiz-adv-x="300" d="M20.563 365.823h258.418v-286.042h-258.418v286.042z" />
<glyph unicode="&#xe907;" horiz-adv-x="300" d="M286.555 477.325h-273.567c-5.691 0-10.313-4.643-10.313-10.356v-485.959c0-5.692 4.644-10.313 10.313-10.313h273.546c5.735 0 10.356 4.644 10.356 10.313v485.981c0.022 5.713-4.622 10.335-10.335 10.335zM276.2 61.871v-70.505h-252.855v70.505h252.855zM276.2 363.063v-280.5h-252.855v280.5h252.855zM276.2 456.634v-72.901h-252.855v72.901h252.855z" />
<glyph unicode="&#xe908;" horiz-adv-x="300" d="M286.555-32h-273.567c-7.168 0-12.989 5.863-12.989 13.010v485.981c0 7.168 5.82 13.010 12.989 13.010h273.546c7.19 0 13.031-5.841 13.031-13.010v-485.981c0-7.147-5.841-13.010-13.010-13.010zM12.989 474.651c-4.216 0-7.66-3.445-7.66-7.682v-485.959c0-4.216 3.445-7.639 7.66-7.639h273.546c4.236 0 7.682 3.423 7.682 7.639v485.981c0 4.236-3.445 7.682-7.682 7.682h-273.546zM278.874-11.308h-258.204v75.854h258.204v-75.854zM26.020-5.959h247.526v65.156h-247.526v-65.156zM278.874 79.887h-258.204v285.828h258.204v-285.828zM26.020 85.237h247.526v275.151h-247.526v-275.151zM278.874 381.079h-258.204v78.229h258.204v-78.229zM26.020 386.407h247.526v67.552h-247.526v-67.552z" />
<glyph unicode="&#xe909;" horiz-adv-x="300" d="M190.352 426.57h-67.873c-4.194 0-7.596-3.381-7.596-7.575s3.402-7.596 7.596-7.596h67.873c4.194 0 7.618 3.424 7.618 7.596s-3.423 7.575-7.618 7.575z" />
<glyph unicode="&#xe90a;" horiz-adv-x="300" d="M170.881 25.837c0-7.988-6.476-14.464-14.464-14.464s-14.464 6.476-14.464 14.464c0 7.988 6.476 14.464 14.464 14.464s14.464-6.476 14.464-14.464z" />
<glyph unicode="&#xe90b;" horiz-adv-x="465" d="M407.825 259.31c-1.531 3.816-5.87 5.715-9.707 4.146l-176.964-70.774v190.622c0 4.146-3.351 7.459-7.459 7.459-55.894 0-108.398-21.796-147.882-61.261-39.504-39.504-61.242-92.027-61.242-147.864 0-55.817 21.738-108.34 61.242-147.844 39.484-39.465 91.988-61.222 147.882-61.222 55.856 0 108.359 21.757 147.863 61.222 39.465 39.504 61.241 92.027 61.241 147.844 0 26.755-5.038 52.911-14.976 77.671z" />
<glyph unicode="&#xe90c;" horiz-adv-x="465" d="M409.762 260.084c-1.453 3.642-4.94 6.026-8.854 6.026-1.221 0-2.441-0.252-3.584-0.717l-174.057-69.611v187.522c0 5.27-4.301 9.571-9.571 9.571-56.398 0-109.425-21.971-149.355-61.881-39.91-39.911-61.861-92.938-61.861-149.355 0-56.379 21.971-109.425 61.861-149.336 39.91-39.872 92.938-61.842 149.355-61.842 56.379 0 109.425 21.99 149.355 61.842 39.872 39.93 61.842 92.976 61.842 149.336 0.019 27.065-5.096 53.453-15.131 78.446zM105.085 340.002c29.391 20.207 63.528 31.754 99.040 33.478v-163.479l-99.040 130zM213.696-10.398c-105.918 0-192.055 86.156-192.055 192.036 0 56.708 24.837 110.065 68.236 146.739l116.4-152.784c0.136-0.175 0.252-0.31 0.407-0.445 0.116-0.155 0.271-0.31 0.426-0.445s0.31-0.271 0.484-0.407l0.833-0.93h0.484c0.097-0.058 0.194-0.116 0.31-0.155l0.077-0.038c0.252-0.155 0.484-0.271 0.852-0.407 0.058-0.019 0.116-0.058 0.174-0.077l0.116-0.038c0.232-0.058 0.426-0.116 0.659-0.175l0.387-0.175h0.252c0.232-0.077 0.446-0.116 0.756-0.155l0.504-0.019c0.872-0.135 1.375-0.019 2.015 0.058l0.058-0.019 0.601 0.175c0.077 0 0.155 0.038 0.213 0.038 0.097 0.038 0.194 0.058 0.271 0.077l0.407 0.077 178.765 71.471c6.897-20.014 10.404-40.976 10.404-62.365 0-51.206-19.994-99.409-56.301-135.716-36.327-36.307-84.51-56.32-135.735-56.32z" />
<glyph unicode="&#xe90d;" horiz-adv-x="465" d="M213.696-32c-57.076 0-110.743 22.202-151.118 62.559-40.356 40.356-62.578 94.022-62.578 151.079 0 57.076 22.222 110.743 62.578 151.118 40.395 40.356 94.042 62.598 151.118 62.598 6.645 0 12.050-5.406 12.050-12.050v-183.861l170.667 68.255c1.433 0.581 2.945 0.891 4.495 0.891 4.94 0 9.319-2.983 11.159-7.575 10.132-25.283 15.286-52 15.286-79.376 0-57.018-22.202-110.685-62.559-151.099-40.375-40.337-94.022-62.54-151.099-62.54zM213.696 390.394c-55.739 0-108.165-21.719-147.592-61.144-39.446-39.427-61.145-91.853-61.145-147.611 0-55.74 21.699-108.147 61.145-147.572 39.407-39.426 91.834-61.106 147.592-61.106 55.739 0 108.146 21.68 147.592 61.106 39.426 39.465 61.125 91.872 61.125 147.572 0 26.755-5.038 52.833-14.938 77.535-1.085 2.732-3.661 4.456-6.568 4.456-0.911 0-1.802-0.174-2.654-0.523l-177.467-70.987v191.184c0 3.913-3.178 7.091-7.091 7.091zM213.696-12.858c-107.275 0-194.536 87.261-194.536 194.497 0 57.328 25.186 111.498 69.108 148.619l2.015 1.685 117.989-154.877c0.019-0.058 0.077-0.097 0.155-0.175l0.174-0.193c0.038-0.038 0.097-0.097 0.174-0.155 0.155-0.155 0.194-0.213 0.252-0.252l1.608-1.046c0.155-0.116 0.329-0.175 0.542-0.271 0.252-0.077 0.387-0.116 0.504-0.155l0.62-0.175c0.155-0.019 0.31-0.058 0.465-0.077l0.581-0.058c0.484-0.077 0.775 0 1.124 0.038l0.872 0.193c0.174 0.038 0.329 0.077 0.426 0.097l0.077 0.019 180.974 72.363 0.853-2.46c6.974-20.266 10.52-41.518 10.52-63.16 0.019-51.845-20.226-100.688-57.018-137.479-36.772-36.733-85.595-56.98-137.479-56.98zM89.508 324.794c-41.596-36.132-65.388-88.133-65.388-143.155 0-104.524 85.052-189.537 189.576-189.537 50.528 0 98.111 19.742 133.972 55.584s55.584 83.445 55.584 133.952c0 20.226-3.178 40.085-9.435 59.091l-177.119-70.716-0.697 2.363 0.484-2.402-1.608-0.445-0.232 0.116c-0.523-0.077-1.105-0.097-1.88 0l-0.62 0.058c-0.252 0.019-0.446 0.077-0.659 0.116h-0.504l-0.659 0.31c-0.213 0.058-0.426 0.097-0.659 0.193-0.077 0.019-0.194 0.058-0.31 0.097-0.446 0.193-0.756 0.349-1.007 0.485h-0.988l-1.395 1.55c-0.213 0.155-0.387 0.31-0.562 0.465-0.136 0.135-0.349 0.329-0.484 0.503-0.232 0.233-0.387 0.407-0.562 0.639l-0.194 0.233-114.656 150.498zM206.606 202.679l-105.066 137.885 2.131 1.473c29.72 20.44 64.419 32.18 100.319 33.924l2.615 0.116v-173.399zM108.63 339.422l93.015-122.077v153.52c-33.208-2.073-65.252-12.903-93.015-31.444z" />
<glyph unicode="&#xe90e;" horiz-adv-x="465" d="M259.42 244.101c-3.178 0-6.277 0.969-8.951 2.809-4.321 2.925-6.917 7.827-6.917 13.078v201.646c0 8.757 7.13 15.887 15.868 15.887 42.022 0 82.747-12.012 117.834-34.718l0.581-0.349 1.627-1.085c1.104-0.717 2.19-1.453 3.293-2.209 35.435-24.469 62.637-58.49 78.639-98.382 1.57-3.933 1.492-8.409-0.213-12.245-1.627-3.759-4.669-6.762-8.544-8.37l-99.118-39.62-1.356-0.988-1.123-0.019c-46.188-19.045-59.924-24.392-64.767-25.903l-21.214-8.486c-1.918-0.697-3.798-1.046-5.638-1.046zM260.349 460.684v-199.302l21.195 8.486h0.503c6.568 2.286 41.286 16.449 63.218 25.497h0.019l0.503 0.193c0.097 0.038 0.213 0.077 0.291 0.116l1.608 0.639 59.285 23.675 1.26 1.182 1.724 0.019 35.435 14.162c-14.802 36.423-39.755 67.519-72.246 89.954-0.988 0.697-1.976 1.337-2.925 1.976l-1.899 1.221c-32.123 20.885-69.437 32.006-107.972 32.18z" />
<glyph unicode="&#xe90f;" horiz-adv-x="465" d="M259.42 241.621c-3.701 0-7.285 1.124-10.365 3.236-4.999 3.371-7.963 9.029-7.963 15.112v201.666c-0.019 10.132 8.214 18.366 18.328 18.366 42.488 0 83.696-12.147 119.17-35.125l2.228-1.453c1.123-0.736 2.228-1.473 3.351-2.248 35.861-24.741 63.353-59.149 79.512-99.506 1.821-4.553 1.743-9.707-0.252-14.162-1.88-4.359-5.366-7.788-9.842-9.667l-98.885-39.523-1.743-1.279h-1.433c-46.575-19.219-59.536-24.237-64.419-25.767l-21.118-8.466c-2.267-0.775-4.437-1.182-6.568-1.182zM259.42 475.040c-7.381 0-13.387-6.026-13.387-13.407v-201.666c0-4.436 2.17-8.544 5.832-11.024 3.565-2.441 7.924-3.1 12.361-1.492l21.331 8.524c4.068 1.26 14.705 5.25 64.555 25.826l0.426 0.174h0.795l1.26 0.833 99.137 39.62c3.236 1.337 5.812 3.875 7.188 7.052 1.433 3.255 1.492 7.014 0.175 10.346-15.79 39.427-42.681 73.060-77.729 97.278-1.104 0.755-2.151 1.472-3.255 2.17l-2.131 1.375c-34.757 22.532-75.036 34.389-116.555 34.389zM257.909 257.74v205.443h2.48c38.981-0.193 76.779-11.45 109.328-32.568l1.88-1.221c1.007-0.658 1.995-1.317 3.003-2.015 32.839-22.668 58.142-54.15 73.099-91.039l0.95-2.305-38.206-15.267-1.201-0.019-0.93-0.852-62.094-24.799c-21.815-8.989-56.688-23.229-63.334-25.555l-0.407-0.135h-0.445l-24.121-9.668zM262.829 458.185v-193.122l18.231 7.284h0.562c7.421 2.655 41.034 16.391 62.423 25.206l0.329 0.135 61.241 24.47 1.627 1.511 2.19 0.038 32.704 13.078c-14.724 34.989-39.019 64.884-70.406 86.525-1.007 0.697-1.957 1.317-2.887 1.957l-1.88 1.201c-31.018 20.13-66.995 31.076-104.136 31.716z" />
<glyph unicode="&#xe910;" horiz-adv-x="494" d="M468.389 257.7c-6.185 1.991-12.687-1.41-14.678-7.612-1.991-6.185 1.198-12.828 7.401-14.819 5.251-1.691 8.704-6.696 8.704-12.176v-53.725c0-7.013-5.198-12.916-12.228-12.916h-15.964c2.115 11.771 3.19 23.7 3.19 35.84 0 25.11-4.634 49.549-13.744 72.632 0 0 0 0.035 0 0.035 4.863 4.212 9.779 10.413 13.849 17.479 11.313 19.559 11.876 35.699 1.586 42.377l-15.242 11.048c0.493 4.071 0.74 8.193 0.74 12.317 0 4.159-0.264 8.352-0.776 12.476l15.277 11.065c10.291 6.678 9.726 22.819-1.586 42.395-4.070 7.066-8.986 13.268-13.849 17.479-10.114 8.793-17.955 7.171-22.096 5.075l-17.25-7.718c-6.625 5.004-13.762 9.127-21.392 12.352l-1.938 18.818c-0.652 12.281-14.907 19.876-37.531 19.876-22.66 0-36.933-7.595-37.514-19.894l-1.938-18.766c-7.612-3.224-14.766-7.348-21.373-12.352l-17.303 7.718c-10.924 5.568-24.599-2.978-35.911-22.555-11.33-19.63-11.876-35.769-1.516-42.43l15.207-11.013c-0.511-4.141-0.757-8.317-0.757-12.493 0-4.106 0.246-8.229 0.74-12.317l-15.224-11.030c-3.894-2.538-9.18-8.493-6.643-21.673 1.198-6.308 4.106-13.673 8.194-20.722 11.295-19.559 24.986-28.123 35.91-22.572l17.145 7.665c6.661-5.057 13.885-9.233 21.567-12.493l1.921-18.537c0.582-12.299 14.854-19.893 37.514-19.893 22.589 0 36.862 7.577 37.497 19.823l1.921 18.607c7.7 3.26 14.907 7.436 21.585 12.493l15.506-6.925c9.198-21.603 13.868-44.545 13.868-68.245 0-76.896-49.866-144.189-122.463-166.655-6.661 11.031-18.748 18.167-32.563 18.167h-38.413c-20.969 0-38.007-16.986-38.007-37.954 0-20.951 17.039-37.937 38.007-37.937h38.413c19.805 0 36.139 15.435 37.849 34.8 38.395 11.577 72.914 34.977 98.005 66.624 15.26 19.259 26.607 41.232 33.743 63.487h21.762c20.034 0 35.788 16.457 35.788 36.474v53.725c0 15.805-9.885 29.708-24.986 34.572zM266.211-8.442h-38.413c-7.964 0-14.449 6.414-14.449 14.378 0 7.982 6.484 14.396 14.449 14.396h38.413c6.872 0 12.634-4.563 14.114-10.995 0.017-0.141 0.035-0.159 0.070-0.282 0.194-0.934 0.282-1.974 0.282-2.942 0-7.947-6.485-14.555-14.466-14.555z" />
<glyph unicode="&#xe911;" horiz-adv-x="494" d="M411.51 375.528l18.484 13.374c-0.529 2.767-2.115 7.594-5.498 13.462s-6.801 9.656-8.916 11.488l-20.933-9.339c-4.194-1.868-9.127-1.127-12.581 1.921-7.806 6.872-16.722 12.017-26.502 15.312-4.37 1.463-7.488 5.357-7.964 9.956l-2.361 22.765c-2.661 0.917-7.63 1.974-14.396 1.974s-11.753-1.057-14.396-1.974l-2.379-22.765c-0.458-4.599-3.577-8.476-7.947-9.956-9.797-3.295-18.713-8.44-26.502-15.312-3.471-3.049-8.387-3.788-12.599-1.903l-20.916 9.339c-2.132-1.832-5.533-5.621-8.916-11.488s-4.969-10.695-5.515-13.462l18.484-13.391c3.753-2.714 5.55-7.348 4.652-11.876-1.040-5.057-1.55-10.255-1.55-15.435 0-5.145 0.511-10.291 1.516-15.312 0.899-4.511-0.917-9.145-4.652-11.841l-18.413-13.356c0.546-2.749 2.114-7.595 5.515-13.462 3.365-5.868 6.784-9.639 8.916-11.489l20.757 9.269c4.212 1.885 9.163 1.127 12.616-1.938 7.824-6.942 16.793-12.123 26.66-15.418 4.37-1.463 7.488-5.357 7.964-9.956l2.344-22.554c2.643-0.917 7.647-1.974 14.396-1.974 6.784 0 11.753 1.057 14.396 1.974l2.344 22.554c0.476 4.599 3.594 8.476 7.964 9.956 9.868 3.313 18.819 8.493 26.66 15.418 3.454 3.066 8.405 3.823 12.616 1.938l20.757-9.269c2.115 1.833 5.515 5.621 8.916 11.471 3.365 5.868 4.952 10.714 5.498 13.462l-18.484 13.374c-3.736 2.696-5.533 7.348-4.652 11.858 1.022 4.987 1.515 10.132 1.515 15.295 0 5.18-0.511 10.378-1.533 15.435-0.899 4.528 0.916 9.162 4.634 11.876v0z" />
<glyph unicode="&#xe912;" horiz-adv-x="494" d="M184.311 354.894c-66.553-25.797-111.027-91.116-111.027-162.514v-47.54c0-6.502-5.779-11.947-12.282-11.947h-24.563c-20.017 0.017-36.44 16.457-36.44 36.492v53.725c0 15.823 10.184 29.744 25.285 34.589 6.22 1.991 12.88-1.41 14.889-7.595 1.974-6.185-1.445-12.828-7.648-14.819-5.251-1.691-8.969-6.696-8.969-12.158v-53.725c0-7.031 5.85-12.916 12.88-12.916h13.286v35.928c0 40.668 11.999 79.75 35.188 113.018 22.66 32.492 53.831 57.196 90.64 71.469 6.061 2.344 12.881-0.669 15.224-6.731 2.361-6.096-0.405-12.916-6.466-15.277v0z" />
<glyph unicode="&#xe913;" horiz-adv-x="494" d="M375.67 348.198c0-24.704-20.105-44.809-44.809-44.809s-44.809 20.105-44.809 44.809 20.105 44.809 44.809 44.809 44.809-20.105 44.809-44.809v0z" />
<glyph unicode="&#xe914;" horiz-adv-x="494" d="M352.111 348.198c0 11.718-9.533 21.251-21.25 21.251s-21.268-9.533-21.268-21.251 9.55-21.268 21.268-21.268 21.25 9.55 21.25 21.268v0z" />
</font>
</defs>
</svg>
